<?xml version="1.0" encoding="UTF-8"?>
<svg version="1.1" xmlns="http://www.w3.org/2000/svg" width="465" height="288">
<path d="M0 0 C2.27734375 1.42578125 2.27734375 1.42578125 4.3125 3 C4.95316406 3.48855469 5.59382813 3.97710938 6.25390625 4.48046875 C10.520646 8.50760756 12.34138148 13.3111313 14.10668945 18.79077148 C14.3625221 19.57319182 14.61835474 20.35561216 14.88193989 21.16174221 C18.26641193 31.7166484 21.03718587 42.4437102 23.85546875 53.16015625 C24.47021121 55.48015322 25.08548309 57.80000996 25.70124817 60.11973572 C27.31470814 66.2033045 28.92146779 72.28862207 30.52661133 78.37438965 C32.12405548 84.42700818 33.72710867 90.47813974 35.33007812 96.52929688 C37.20834651 103.61977142 39.08610639 110.71037492 40.95944214 117.80215454 C43.84431457 128.71860936 46.74333834 139.6307897 49.68994141 150.53076172 C49.95219293 151.50206119 50.21444445 152.47336065 50.48464298 153.47409344 C51.70324211 157.98597418 52.92570441 162.49673938 54.15531921 167.00563049 C54.57934827 168.57199517 55.00325079 170.13839411 55.42700195 171.70483398 C55.71729877 172.76015603 55.71729877 172.76015603 56.01346016 173.83679771 C56.77359167 176.65884018 57.3125 179.06100798 57.3125 182 C49.7225 182 42.1325 182 34.3125 182 C32.45765875 175.07746746 30.6050747 168.15441373 28.75830078 161.22973633 C28.12910551 158.87325872 27.49857715 156.51713664 26.86669922 154.16137695 C25.95972246 150.7790798 25.05751642 147.39554134 24.15625 144.01171875 C23.7297113 142.42722176 23.7297113 142.42722176 23.29455566 140.81071472 C23.03428589 139.82992447 22.77401611 138.84913422 22.50585938 137.83862305 C22.27491577 136.97480515 22.04397217 136.11098724 21.80603027 135.22099304 C21.3125 133 21.3125 133 21.3125 130 C-2.1175 130 -25.5475 130 -49.6875 130 C-54.3075 147.16 -58.9275 164.32 -63.6875 182 C-71.2775 182 -78.8675 182 -86.6875 182 C-85.43985381 175.76176906 -84.16468273 169.6553666 -82.54296875 163.5234375 C-82.33718704 162.73659576 -82.13140533 161.94975403 -81.91938782 161.1390686 C-81.24109775 158.55020094 -80.55823148 155.9625676 -79.875 153.375 C-79.38797925 151.52214635 -78.90100107 149.6692815 -78.4140625 147.81640625 C-74.47224551 132.8482907 -70.42893653 117.90803822 -66.36355591 102.9730835 C-62.66808323 89.39606274 -59.04759337 75.80233828 -55.5100708 62.18331909 C-49.11683418 37.59069871 -49.11683418 37.59069871 -45.8125 25.9375 C-45.56258301 25.02871094 -45.31266602 24.11992188 -45.05517578 23.18359375 C-42.82361123 15.49692887 -39.87969617 7.88135253 -33.1875 3.0625 C-32.4553125 2.51722656 -31.723125 1.97195312 -30.96875 1.41015625 C-22.44174744 -3.86081622 -9.12330628 -4.18151538 0 0 Z M-19.125 19.6875 C-27.36779639 28.62974047 -29.03757151 48.38792979 -32.0625 59.875 C-32.61956065 61.98183193 -33.17685104 64.08860313 -33.734375 66.1953125 C-35.39146944 72.46195498 -37.04069779 78.73064597 -38.6875 85 C-38.97612915 86.097677 -39.2647583 87.195354 -39.56213379 88.32629395 C-40.4100827 91.55308268 -41.25616101 94.78035553 -42.1015625 98.0078125 C-42.49243546 99.49509354 -42.49243546 99.49509354 -42.89120483 101.01242065 C-43.24597397 102.36969772 -43.24597397 102.36969772 -43.60791016 103.75439453 C-43.8171109 104.55281769 -44.02631165 105.35124084 -44.24185181 106.17385864 C-44.72701344 107.84862623 -44.72701344 107.84862623 -44.6875 109 C-24.8875 109 -5.0875 109 15.3125 109 C12.85324402 98.54816207 10.36416118 88.16767341 7.5625 77.8125 C7.04260217 75.88111651 6.52271203 73.94973092 6.00323486 72.01823425 C5.64674598 70.69296228 5.28993413 69.36777715 4.93280029 68.04267883 C3.65454692 63.29387118 2.4009829 58.53894063 1.15625 53.78125 C0.62826642 51.77149682 0.09981311 49.76186782 -0.42883301 47.75228882 C-0.92173924 45.87260326 -1.40968269 43.99161849 -1.89746094 42.1105957 C-3.33972627 36.64232162 -4.85013394 31.19977549 -6.609375 25.82421875 C-6.8887793 24.96272217 -7.16818359 24.10122559 -7.45605469 23.21362305 C-9.05801005 20.33397808 -10.73288571 19.38451714 -13.6875 18 C-16.77050979 17.71539501 -16.77050979 17.71539501 -19.125 19.6875 Z " fill="#4F4F4F" transform="translate(93.6875,16)"/>
<path d="M0 0 C1.89588867 -0.0299707 1.89588867 -0.0299707 3.83007812 -0.06054688 C24.22420975 -0.05010441 39.72383996 8.37779436 54.25 22.0625 C67.20927551 35.38399128 74.49999425 53.733856 74.47802734 72.28344727 C74.48474457 73.11737503 74.49146179 73.9513028 74.49838257 74.8105011 C74.51723098 77.54169843 74.52128069 80.27264809 74.5234375 83.00390625 C74.52987673 84.92569576 74.5366059 86.84748432 74.54360962 88.76927185 C74.55555118 92.79127266 74.55929388 96.81318781 74.55810547 100.83520508 C74.55790297 105.94649479 74.58514823 111.05722423 74.61964989 116.16838169 C74.64207936 120.13824397 74.64593806 124.10797511 74.64488602 128.07789421 C74.64722011 129.95983743 74.65591728 131.84178551 74.67155075 133.72366524 C74.85183176 157.67500829 68.81016493 177.20129668 51.953125 194.765625 C35.39134553 210.67792292 16.45962538 215.04009799 -5.8828125 214.78515625 C-22.39801349 214.24900669 -35.18747336 207.705855 -47.8125 197.4375 C-48.8025 196.715625 -49.7925 195.99375 -50.8125 195.25 C-59.79677842 187.55985587 -65.7541985 176.38224861 -69.8125 165.4375 C-70.07180801 164.76288727 -70.33111603 164.08827454 -70.59828186 163.39321899 C-73.80848205 153.57972421 -73.30515686 143.42094216 -73.31640625 133.21484375 C-73.32606824 131.1437612 -73.33616221 129.07268063 -73.34666443 127.00160217 C-73.36456215 122.67037215 -73.37019229 118.33932099 -73.3684082 114.00805664 C-73.36810434 108.50666115 -73.4089883 103.00643593 -73.46072483 97.50531673 C-73.49438449 93.2282453 -73.5001567 88.95144749 -73.49857903 84.67425728 C-73.50207726 82.64880926 -73.51510623 80.62335086 -73.53857613 78.59803581 C-73.77389164 56.18885643 -68.04790483 37.53645191 -52.42724609 20.95556641 C-37.93269851 6.16383332 -20.41104549 -0.113452 0 0 Z M-41.8125 34.4375 C-47.68382266 41.78618469 -52.43788375 49.22202035 -54.8125 58.4375 C-54.97727341 59.05090744 -55.14204681 59.66431488 -55.31181335 60.29631042 C-57.30946477 68.75911982 -57.14066397 77.27531826 -57.1484375 85.9140625 C-57.15488114 87.61022041 -57.16161061 89.30637725 -57.16860962 91.00253296 C-57.18053302 94.54777599 -57.18429573 98.09292196 -57.18310547 101.63818359 C-57.18290294 106.13628733 -57.21015849 110.63375461 -57.24464989 115.13170815 C-57.2671133 118.63405092 -57.27093707 122.13624544 -57.26988602 125.6386528 C-57.27221466 127.29452066 -57.28087965 128.95039439 -57.29655075 130.60618973 C-57.461917 149.88767216 -53.8605315 166.72006198 -40.16015625 181.15234375 C-28.84355983 192.16766639 -15.31025463 197.96625451 0.5625 198.875 C16.52225889 198.1901596 32.06047176 190.98460067 43.0546875 179.484375 C55.76674593 164.22990488 57.50624363 148.50234228 57.48828125 129.35546875 C57.49217843 127.6111084 57.49651517 125.86674898 57.50126648 124.12239075 C57.50869035 120.4805696 57.5084657 116.83884545 57.50317383 113.19702148 C57.49738832 108.56769841 57.51430679 103.93877662 57.5375185 99.30951977 C57.55236823 95.71032961 57.55311233 92.11123358 57.55000877 88.5120182 C57.55051649 86.80706298 57.55564884 85.1021017 57.56582069 83.39717674 C57.66963511 63.5649617 54.46808759 46.72158348 40.05078125 32.13671875 C27.96351301 20.74203614 13.83772909 15.81127046 -2.71875 16.1953125 C-17.36387257 17.34177412 -31.93658812 23.32709913 -41.8125 34.4375 Z " fill="#1FA2ED" transform="translate(234.8125,-0.4375)"/>
<path d="M0 0 C1.26650391 0.01023193 2.53300781 0.02046387 3.83789062 0.03100586 C21.43456739 0.42695352 37.10259569 5.15006599 50.8125 16.5625 C49.06727062 20.61464179 46.3896843 23.86853961 43.6875 27.3125 C43.21957031 27.91449219 42.75164062 28.51648438 42.26953125 29.13671875 C41.12024993 30.61436616 39.96678765 32.08876005 38.8125 33.5625 C35.20630469 32.20044781 31.93454801 30.54694362 28.5625 28.6875 C13.90057178 21.30223245 -1.53775494 19.41223079 -17.1875 24.5625 C-23.13085421 27.0027458 -27.50071972 30.85022855 -30.16015625 36.703125 C-32.78524987 43.88245081 -32.91513034 50.0896892 -30.2890625 57.29296875 C-26.46039421 65.18111156 -19.56880365 70.41755012 -11.55004883 73.61376953 C-8.61002784 74.6273251 -5.6563832 75.57449298 -2.6875 76.5 C-0.54883608 77.19202614 1.58918483 77.88604257 3.7265625 78.58203125 C4.76458008 78.91799316 5.80259766 79.25395508 6.87207031 79.60009766 C26.48657531 86.01992319 42.32851003 93.84945646 52.8125 112.5625 C53.410625 113.59375 54.00875 114.625 54.625 115.6875 C59.56812915 127.65507584 59.35282846 141.48382613 55.0703125 153.59765625 C48.87625415 168.19793664 38.54857415 177.35977619 24.16796875 183.44921875 C16.12092221 186.11907703 8.26177037 186.95194567 -0.1875 186.9375 C-1.18281738 186.93588867 -2.17813477 186.93427734 -3.20361328 186.93261719 C-15.63873313 186.72983825 -28.15562535 184.55537928 -39.1875 178.5625 C-40.10015625 178.09714844 -41.0128125 177.63179687 -41.953125 177.15234375 C-47.21524035 174.40169255 -51.81327371 171.58205929 -56.1875 167.5625 C-55.28594676 162.93276636 -52.81670589 160.31740687 -49.8125 156.8125 C-49.3175 156.21050781 -48.8225 155.60851562 -48.3125 154.98828125 C-47.00811903 153.45022775 -45.60309559 151.99885212 -44.1875 150.5625 C-43.1975 150.5625 -42.2075 150.5625 -41.1875 150.5625 C-41.1875 151.2225 -41.1875 151.8825 -41.1875 152.5625 C-40.37345703 152.96662109 -40.37345703 152.96662109 -39.54296875 153.37890625 C-37.85187433 154.22866016 -36.16773365 155.09230625 -34.48828125 155.96484375 C-19.70234055 163.56075838 -2.76782559 167.88468516 13.80078125 163.30859375 C22.20535452 160.19155784 28.28197961 155.46764087 32.91015625 147.7265625 C36.06958459 140.76112513 36.0837163 132.53505092 33.78125 125.33984375 C28.22180135 113.12449964 19.63214521 107.77877892 7.546875 103.20703125 C2.67602553 101.45943568 -2.2749478 100.04146482 -7.25 98.625 C-24.4482592 93.66621532 -39.57272433 86.20541197 -49.25 70.5 C-55.6275395 58.36711997 -57.28385745 46.25488494 -53.6875 32.8125 C-49.52366161 20.8506604 -41.03604162 11.56955104 -29.86083984 5.80102539 C-20.08942641 1.27405002 -10.69143418 -0.13099441 0 0 Z " fill="#4F4F4F" transform="translate(378.1875,13.4375)"/>
<path d="M0 0 C2.57145115 2.83170665 3.37863418 4.70277627 3.41992188 8.50561523 C3.43583374 9.39010849 3.45174561 10.27460175 3.46813965 11.18589783 C3.46844177 12.60788231 3.46844177 12.60788231 3.46875 14.05859375 C3.48017029 15.53054955 3.48017029 15.53054955 3.49182129 17.03224182 C3.502618 19.10585996 3.50547714 21.17953246 3.50097656 23.25317383 C3.50000446 26.42296176 3.54162691 29.5903273 3.5859375 32.75976562 C3.59114479 34.77603662 3.59383269 36.79231603 3.59375 38.80859375 C3.6183429 40.22754189 3.6183429 40.22754189 3.64343262 41.67515564 C3.59552169 46.24538583 3.49253667 48.34267932 0.68164062 52.09399414 C-2 54 -2 54 -5.5 54.6875 C-9.29868059 53.9413306 -10.61559085 52.93540772 -12.96774292 49.91775513 C-14.96522978 46.20677 -14.69007889 42.30808904 -14.62890625 38.18359375 C-14.63131821 37.24951187 -14.63373016 36.31542999 -14.63621521 35.3530426 C-14.63523891 33.38546487 -14.62189721 31.41785893 -14.59692383 29.45043945 C-14.56256539 26.44322283 -14.57628852 23.43893895 -14.59570312 20.43164062 C-14.5888055 18.51561253 -14.57913387 16.59959199 -14.56640625 14.68359375 C-14.57136612 13.78764999 -14.57632599 12.89170624 -14.58143616 11.96861267 C-14.50286307 7.7951949 -14.35407097 5.56393438 -12.08959961 1.95727539 C-8.38500109 -1.51272886 -4.75055339 -1.55216101 0 0 Z " fill="#1FA2ED" transform="translate(240,47)"/>
<path d="M0 0 C4.99340416 3.87593247 6.22771508 7.7460472 7.640625 13.625 C7.85313904 14.4495166 8.06565308 15.2740332 8.28460693 16.12353516 C8.95608555 18.74518617 9.6031651 21.37217296 10.25 24 C10.69895609 25.76602352 11.14946176 27.53165389 11.6015625 29.296875 C14.98071111 42.57100242 14.98071111 42.57100242 16 48 C13.36 48 10.72 48 8 48 C7.49528803 46.23050388 6.99639315 44.45934777 6.5 42.6875 C6.2215625 41.70136719 5.943125 40.71523438 5.65625 39.69921875 C5 37 5 37 5 34 C-2.92 34.495 -2.92 34.495 -11 35 C-12.32 39.29 -13.64 43.58 -15 48 C-16.98 48 -18.96 48 -21 48 C-21.16667332 43.02672148 -20.65891016 38.86609973 -19.35546875 34.0703125 C-19.18501541 33.43568085 -19.01456207 32.80104919 -18.83894348 32.14718628 C-18.47899423 30.81332238 -18.11489584 29.48057178 -17.74682617 28.14892578 C-17.19146541 26.13934887 -16.64831109 24.12679609 -16.10742188 22.11328125 C-15.10376367 18.39951059 -14.06137769 14.69773684 -13 11 C-12.72752441 10.04963867 -12.45504883 9.09927734 -12.17431641 8.12011719 C-9.98494 0.98215026 -7.53826095 -0.90979011 0 0 Z M-4 6 C-6.11409642 13.30697404 -8.22447196 20.6019665 -10 28 C-5.71 28 -1.42 28 3 28 C1.28240513 17.29924695 1.28240513 17.29924695 -2 7 C-2.66 6.67 -3.32 6.34 -4 6 Z " fill="#B9B9B9" transform="translate(21,240)"/>
<path d="M0 0 C1.67632417 0.64199649 3.34750513 1.29894157 5 2 C5.99 1.34 6.98 0.68 8 0 C11.71819916 -0.54679399 15.28193784 -0.5490121 19 0 C21.89683868 2.2015974 23.39297231 3.78594462 25 7 C25.08527628 9.03232634 25.10716135 11.06747006 25.09765625 13.1015625 C25.09443359 14.31328125 25.09121094 15.525 25.08789062 16.7734375 C25.07532227 18.67996094 25.07532227 18.67996094 25.0625 20.625 C25.05798828 21.90375 25.05347656 23.1825 25.04882812 24.5 C25.03701203 27.66671292 25.02053815 30.83333356 25 34 C23.02 34 21.04 34 19 34 C18.970271 32.98631348 18.970271 32.98631348 18.93994141 31.95214844 C18.84456762 28.88437956 18.73493835 25.81728002 18.625 22.75 C18.5940625 21.68652344 18.563125 20.62304688 18.53125 19.52734375 C18.47324219 17.99013672 18.47324219 17.99013672 18.4140625 16.421875 C18.3826416 15.47924805 18.3512207 14.53662109 18.31884766 13.56542969 C17.99399023 10.95164571 17.32323838 9.25646966 16 7 C14.00045254 6.95745644 11.99958364 6.95919217 10 7 C8.22509454 8.77490546 8.76500027 11.37784902 8.68359375 13.78515625 C8.64169922 14.95498047 8.59980469 16.12480469 8.55664062 17.33007812 C8.51732422 18.56177734 8.47800781 19.79347656 8.4375 21.0625 C8.39431641 22.29806641 8.35113281 23.53363281 8.30664062 24.80664062 C8.20015802 27.87097335 8.09814576 30.93539073 8 34 C5.69 34 3.38 34 1 34 C0.67 25.09 0.34 16.18 0 7 C-2.31 7 -4.62 7 -7 7 C-8.88624671 10.21654702 -9.29047742 12.71432261 -9.4140625 16.421875 C-9.45273438 17.44667969 -9.49140625 18.47148437 -9.53125 19.52734375 C-9.5621875 20.59082031 -9.593125 21.65429688 -9.625 22.75 C-9.68300781 24.36841797 -9.68300781 24.36841797 -9.7421875 26.01953125 C-9.83634631 28.67951775 -9.92197387 31.3394994 -10 34 C-11.98 34 -13.96 34 -16 34 C-16.11625936 29.43771459 -16.18727408 24.87581072 -16.25 20.3125 C-16.28351563 19.01892578 -16.31703125 17.72535156 -16.3515625 16.39257812 C-16.36445312 15.14541016 -16.37734375 13.89824219 -16.390625 12.61328125 C-16.41157227 11.46641846 -16.43251953 10.31955566 -16.45410156 9.13793945 C-15.90384899 5.33557585 -14.65728809 3.71874791 -12 1 C-8.34360582 -0.82819709 -4.00928897 -0.28457098 0 0 Z " fill="#B9B9B9" transform="translate(102,254)"/>
<path d="M0 0 C1.9140625 0.8203125 1.9140625 0.8203125 4.6640625 2.3203125 C4.3515625 4.6953125 4.3515625 4.6953125 3.6640625 7.3203125 C2.6740625 7.9803125 1.6840625 8.6403125 0.6640625 9.3203125 C-1.1328125 8.7890625 -1.1328125 8.7890625 -3.0859375 7.8203125 C-7.56586949 5.92048949 -9.884691 6.55836076 -14.3359375 8.3203125 C-15.19568551 10.61325738 -15.19568551 10.61325738 -15.3359375 13.3203125 C-12.49358 16.88530326 -9.63407046 18.18907228 -5.3984375 19.6953125 C0.68096888 22.0900055 3.71229381 24.41677512 6.6640625 30.3203125 C7.01724027 35.7062735 7.08743774 38.91883005 3.6640625 43.3203125 C3.14070313 44.01640625 2.61734375 44.7125 2.078125 45.4296875 C-1.3455662 48.11102494 -4.54584479 47.9061907 -8.7109375 47.8203125 C-9.4534375 47.83578125 -10.1959375 47.85125 -10.9609375 47.8671875 C-16.31945254 47.82931814 -19.15494925 46.6651031 -23.3359375 43.3203125 C-22.6759375 41.6703125 -22.0159375 40.0203125 -21.3359375 38.3203125 C-15.5859375 39.1953125 -15.5859375 39.1953125 -13.3359375 40.3203125 C-11.22739714 40.5555857 -11.22739714 40.5555857 -8.8984375 40.5703125 C-7.72474609 40.60898437 -7.72474609 40.60898437 -6.52734375 40.6484375 C-3.80404206 40.2406704 -2.97007356 39.50086281 -1.3359375 37.3203125 C-0.58578555 34.36339541 -0.58578555 34.36339541 -1.3359375 31.3203125 C-4.72813867 28.28518514 -8.15164821 26.99421622 -12.3984375 25.4453125 C-17.90052245 23.35717182 -20.67822412 20.63573927 -23.3359375 15.3203125 C-23.73731625 11.14597355 -23.59788053 8.82479537 -21.6484375 5.0703125 C-15.98270077 -1.66732037 -8.25649733 -2.4023922 0 0 Z " fill="#B9B9B9" transform="translate(333.3359375,240.6796875)"/>
<path d="M0 0 C1.12148437 -0.02578125 2.24296875 -0.0515625 3.3984375 -0.078125 C7.06402437 0.29464655 8.7796636 0.92288638 11.625 3.25 C14.94902543 8.13784483 15.11430169 12.54239523 15.0625 18.25 C15.0924707 19.42175781 15.0924707 19.42175781 15.12304688 20.6171875 C15.11855658 25.95165362 14.16596009 29.02986134 10.625 33.25 C7.70252427 34.71123786 5.06646161 34.4977615 1.8125 34.5625 C0.58917969 34.59988281 -0.63414062 34.63726562 -1.89453125 34.67578125 C-5.9487799 34.17980695 -7.51543139 33.09899719 -10.375 30.25 C-11.98365775 27.03268449 -11.84196133 23.7392388 -11.375 20.25 C-9.7048312 16.9096624 -8.38897378 14.90610068 -5.25 12.875 C-0.96229617 11.94289047 3.25576312 12.09728881 7.625 12.25 C7.295 10.6 6.965 8.95 6.625 7.25 C5.04176312 7.222807 3.45838938 7.20351694 1.875 7.1875 C0.99328125 7.17589844 0.1115625 7.16429687 -0.796875 7.15234375 C-3.1568838 7.24173802 -5.11998524 7.58087179 -7.375 8.25 C-9.375 5.25 -9.375 5.25 -9.375 1.25 C-6.07164934 0.14888311 -3.47667863 0.04773472 0 0 Z M-4.5625 21.5625 C-5.675497 24.3105687 -5.675497 24.3105687 -4.375 27.25 C-2.16204384 28.35647808 -0.82827301 28.44588368 1.625 28.5 C2.676875 28.53867187 2.676875 28.53867187 3.75 28.578125 C4.36875 28.46984375 4.9875 28.3615625 5.625 28.25 C7.91513653 24.8147952 7.80342973 23.264669 7.625 19.25 C0.87354169 18.37629868 0.87354169 18.37629868 -4.5625 21.5625 Z " fill="#B9B9B9" transform="translate(143.375,253.75)"/>
<path d="M0 0 C1.01964844 -0.00773438 2.03929687 -0.01546875 3.08984375 -0.0234375 C6.44703423 0.42654072 8.33308284 1.4053674 11.0625 3.375 C13.38652951 6.58437409 13.53820691 9.49006021 13.0625 13.375 C11.26256226 16.07490662 9.978727 17.9168865 7.0625 19.375 C4.68847499 19.44616382 2.31249323 19.45909085 -0.0625 19.4375 C-1.34382812 19.42847656 -2.62515625 19.41945313 -3.9453125 19.41015625 C-4.93273437 19.39855469 -5.92015625 19.38695312 -6.9375 19.375 C-5.9475 22.015 -4.9575 24.655 -3.9375 27.375 C0.6825 27.375 5.3025 27.375 10.0625 27.375 C10.3925 29.355 10.7225 31.335 11.0625 33.375 C7.94650206 34.93299897 4.66845599 34.68303114 1.25 34.75 C0.18168945 34.80607422 0.18168945 34.80607422 -0.90820312 34.86328125 C-4.82370785 34.92847929 -6.68752308 34.56645729 -9.82421875 32.1640625 C-13.65504804 27.10821755 -14.24884854 23.25809046 -14.3125 16.9375 C-14.34085938 15.66003906 -14.36921875 14.38257813 -14.3984375 13.06640625 C-13.75949476 7.94944956 -11.67803519 5.09020515 -8.05859375 1.5234375 C-5.25864247 0.00744178 -3.17177515 -0.0239983 0 0 Z M-5.375 8.1875 C-7.2281191 10.33382896 -7.2281191 10.33382896 -6.9375 13.375 C-4.95840602 13.40186553 -2.97921029 13.42133375 -1 13.4375 C0.65322266 13.45490234 0.65322266 13.45490234 2.33984375 13.47265625 C4.97697634 13.68762571 4.97697634 13.68762571 6.0625 12.375 C6.10313832 10.70882885 6.105221 9.04111905 6.0625 7.375 C2.05419185 5.37084592 -1.8056121 5.53333977 -5.375 8.1875 Z " fill="#B9B9B9" transform="translate(195.9375,253.625)"/>
<path d="M0 0 C3.44053159 1.60514284 5.4081893 3.82456976 7.12890625 7.2421875 C8.18210526 10.57653056 8.30111699 13.44291609 8.3125 16.9375 C8.32925781 18.12214844 8.34601563 19.30679687 8.36328125 20.52734375 C7.85633628 25.37330162 6.14387555 28.48245844 3.2421875 32.33203125 C-0.72416861 35.28261324 -4.85676816 34.71292931 -9.62890625 34.59375 C-13.22569882 33.96024772 -14.45933244 33.40313591 -16.8125 30.6875 C-19.80328861 26.29794256 -20.18294625 22.43445622 -20.25 17.1875 C-20.27578125 15.98480469 -20.3015625 14.78210938 -20.328125 13.54296875 C-19.87429784 8.64271601 -18.14341172 5.40160146 -15.0625 1.625 C-10.18369332 -0.96375457 -5.39502296 -0.84685069 0 0 Z M-12 8 C-13.05336511 11.16009533 -13.20032888 13.5553136 -13.25 16.875 C-13.27578125 17.90367187 -13.3015625 18.93234375 -13.328125 19.9921875 C-12.95040551 23.45461616 -12.17827809 25.29187048 -10 28 C-8.07855705 28.78199939 -8.07855705 28.78199939 -6 28.625 C-5.319375 28.63789063 -4.63875 28.65078125 -3.9375 28.6640625 C-1.77703765 28.11684735 -1.77703765 28.11684735 -0.26953125 25.83984375 C1.16541473 22.62997997 1.37003907 20.43853113 1.3125 16.9375 C1.30863281 15.91527344 1.30476563 14.89304687 1.30078125 13.83984375 C1.00298563 11.02818902 0.53699496 9.35165659 -1 7 C-5.06231189 4.96884405 -8.33315625 5.5554375 -12 8 Z " fill="#B9B9B9" transform="translate(250,254)"/>
<path d="M0 0 C4.31969372 1.70987876 6.03047239 3.84817033 8 8 C8.50795976 11.13143553 8.55514459 14.2072698 8.5625 17.375 C8.59923828 18.2 8.63597656 19.025 8.67382812 19.875 C8.71321015 25.38848337 7.67364881 28.75403843 3.75805664 32.72705078 C-0.12022052 35.5351798 -4.22578823 34.79232051 -8.76953125 34.5625 C-12 34 -12 34 -15.25 31.75 C-15.8275 30.8425 -16.405 29.935 -17 29 C-17.35835938 28.44570313 -17.71671875 27.89140625 -18.0859375 27.3203125 C-19.40830813 23.96352552 -19.36847656 20.6802761 -19.375 17.125 C-19.39949219 16.43019531 -19.42398437 15.73539062 -19.44921875 15.01953125 C-19.47852066 9.83309392 -18.28944803 6.95887955 -15 3 C-10.63525801 -1.2308542 -5.74190747 -0.62282206 0 0 Z M-10.16796875 7.546875 C-12.70994862 10.95063482 -12.49915971 13.35730772 -12.4375 17.5625 C-12.44458984 18.23474609 -12.45167969 18.90699219 -12.45898438 19.59960938 C-12.4221224 22.45499429 -12.31111147 24.52474382 -10.7265625 26.9453125 C-7.51090316 28.90962929 -4.69259311 28.29306294 -1 28 C2.23224347 24.76775653 1.97465402 21.53226557 2.1875 17.0625 C2.13895628 13.40091636 1.48483039 10.38211367 0 7 C-3.62420561 5.1878972 -6.8515784 5.18058567 -10.16796875 7.546875 Z " fill="#B9B9B9" transform="translate(414,254)"/>
<path d="M0 0 C3.67767696 2.10152969 5.4526678 4.11174495 7 8 C7.22705078 10.84082031 7.22705078 10.84082031 7.1953125 14.078125 C7.18886719 15.23828125 7.18242187 16.3984375 7.17578125 17.59375 C7.15902344 18.8003125 7.14226562 20.006875 7.125 21.25 C7.11597656 22.47203125 7.10695313 23.6940625 7.09765625 24.953125 C7.07409513 27.96894782 7.04119706 30.98437492 7 34 C5.02 34 3.04 34 1 34 C0.97494385 33.35450195 0.9498877 32.70900391 0.92407227 32.04394531 C0.80785567 29.11244106 0.68524558 26.18123783 0.5625 23.25 C0.52318359 22.23421875 0.48386719 21.2184375 0.44335938 20.171875 C0.40146484 19.1921875 0.35957031 18.2125 0.31640625 17.203125 C0.27974854 16.30239258 0.24309082 15.40166016 0.20532227 14.47363281 C0.01693593 12.20403661 -0.37366501 10.18437113 -1 8 C-5.48133574 7.27743171 -5.48133574 7.27743171 -10 7 C-10.33 15.91 -10.66 24.82 -11 34 C-13.31 34 -15.62 34 -18 34 C-18.11656783 29.79190116 -18.18737611 25.58422004 -18.25 21.375 C-18.28351563 20.18519531 -18.31703125 18.99539063 -18.3515625 17.76953125 C-18.47505983 6.7165199 -18.47505983 6.7165199 -14 2 C-9.54422653 -0.97051564 -5.22557394 -0.62737491 0 0 Z " fill="#B9B9B9" transform="translate(281,254)"/>
<path d="M0 0 C3.50667499 1.6907183 5.38698852 2.78248018 7.14404297 6.2722168 C8.10009268 9.31897761 8.22802209 11.76784594 8.1953125 14.95703125 C8.18886719 16.06884766 8.18242188 17.18066406 8.17578125 18.32617188 C8.15902344 19.47666016 8.14226562 20.62714844 8.125 21.8125 C8.11597656 22.98232422 8.10695313 24.15214844 8.09765625 25.35742188 C8.07413732 28.23849053 8.04126852 31.11913989 8 34 C5.69 34 3.38 34 1 34 C0.98018066 33.2886792 0.96036133 32.5773584 0.93994141 31.84448242 C0.84475133 28.62511184 0.73504771 25.4063955 0.625 22.1875 C0.5940625 21.06794922 0.563125 19.94839844 0.53125 18.79492188 C0.49257813 17.72177734 0.45390625 16.64863281 0.4140625 15.54296875 C0.36693115 14.0583313 0.36693115 14.0583313 0.31884766 12.54370117 C0.16226567 9.75924906 0.16226567 9.75924906 -2 7 C-4.31 7.33 -6.62 7.66 -9 8 C-9.99455909 10.98367726 -10.19559632 13.2004192 -10.31640625 16.32421875 C-10.35830078 17.35224609 -10.40019531 18.38027344 -10.44335938 19.43945312 C-10.48267578 20.51130859 -10.52199219 21.58316406 -10.5625 22.6875 C-10.60568359 23.77095703 -10.64886719 24.85441406 -10.69335938 25.97070312 C-10.79946838 28.64700791 -10.90152361 31.32340526 -11 34 C-12.98 34 -14.96 34 -17 34 C-17.08725659 29.7709638 -17.1404789 25.54215988 -17.1875 21.3125 C-17.21263672 20.11431641 -17.23777344 18.91613281 -17.26367188 17.68164062 C-17.27333984 16.52470703 -17.28300781 15.36777344 -17.29296875 14.17578125 C-17.3086792 13.11270752 -17.32438965 12.04963379 -17.34057617 10.9543457 C-16.85320523 6.72662116 -15.17278487 4.11195578 -12.1171875 1.21484375 C-8.27237229 -0.99131405 -4.2888603 -0.60882875 0 0 Z " fill="#B9B9B9" transform="translate(58,254)"/>
<path d="M0 0 C1.02222656 0.00386719 2.04445313 0.00773438 3.09765625 0.01171875 C5.87882634 0.3062856 7.56364466 0.88363264 9.9375 2.3125 C9.125 4.75 9.125 4.75 7.9375 7.3125 C6.9475 7.6425 5.9575 7.9725 4.9375 8.3125 C4.2775 7.9825 3.6175 7.6525 2.9375 7.3125 C-1.11392119 7.05389865 -2.60587669 7.00808446 -6.0625 9.3125 C-8.49357077 15.05866728 -7.28904355 21.74614112 -5.0625 27.3125 C-3.64594207 27.3397415 -2.22922955 27.35900467 -0.8125 27.375 C-0.02359375 27.38660156 0.7653125 27.39820313 1.578125 27.41015625 C3.84441002 27.31635306 5.7663895 26.94491063 7.9375 26.3125 C9.9375 29.3125 9.9375 29.3125 9.6875 31.4375 C8.9375 33.3125 8.9375 33.3125 6.9375 34.3125 C4.67104234 34.48772676 2.39777146 34.57978256 0.125 34.625 C-1.09832031 34.66238281 -2.32164062 34.69976562 -3.58203125 34.73828125 C-7.70346598 34.23408778 -9.22593074 33.30184678 -12.0625 30.3125 C-14.42217667 26.19910592 -14.39650986 22.00822477 -14.375 17.375 C-14.39111328 16.68470703 -14.40722656 15.99441406 -14.42382812 15.28320312 C-14.42832342 10.54067202 -13.70132076 7.26210755 -11.0625 3.3125 C-7.41632828 0.38198973 -4.61677131 -0.07587614 0 0 Z " fill="#B9B9B9" transform="translate(359.0625,253.6875)"/>
<path d="M0 0 C2.5 0.125 2.5 0.125 3.5 1.125 C3.54092937 3.45797433 3.54241723 5.79205225 3.5 8.125 C6.14 8.125 8.78 8.125 11.5 8.125 C11.5 10.105 11.5 12.085 11.5 14.125 C8.86 14.125 6.22 14.125 3.5 14.125 C3.5 21.385 3.5 28.645 3.5 36.125 C6.14 35.795 8.78 35.465 11.5 35.125 C13.5 38.125 13.5 38.125 13.125 40.3125 C12.91875 40.910625 12.7125 41.50875 12.5 42.125 C10.58529156 42.26047465 8.66781519 42.35720869 6.75 42.4375 C5.68265625 42.49550781 4.6153125 42.55351562 3.515625 42.61328125 C0.5 42.125 0.5 42.125 -1.66186523 40.11499023 C-4.00648441 36.30113035 -4.02589416 33.13412204 -3.92578125 28.796875 C-3.92249313 28.00726379 -3.91920502 27.21765259 -3.91581726 26.40411377 C-3.90543013 24.74328305 -3.88553744 23.08248765 -3.85668945 21.421875 C-3.81240615 18.86959065 -3.79522066 16.31824691 -3.78320312 13.765625 C-3.76978717 12.15102797 -3.75486644 10.53644259 -3.73828125 8.921875 C-3.73089432 8.1552655 -3.72350739 7.38865601 -3.71589661 6.59881592 C-3.5989572 0.17994786 -3.5989572 0.17994786 0 0 Z " fill="#B9B9B9" transform="translate(166.5,245.875)"/>
<path d="M0 0 C2.31 0 4.62 0 7 0 C7 15.51 7 31.02 7 47 C4.69 47 2.38 47 0 47 C0 31.49 0 15.98 0 0 Z " fill="#B9B9B9" transform="translate(427,241)"/>
<path d="M0 0 C0.98484375 0.01804688 1.9696875 0.03609375 2.984375 0.0546875 C4.10585938 0.08949219 4.10585938 0.08949219 5.25 0.125 C4.92 2.105 4.59 4.085 4.25 6.125 C3.61191406 6.24617188 2.97382813 6.36734375 2.31640625 6.4921875 C1.49011719 6.65976562 0.66382813 6.82734375 -0.1875 7 C-1.01121094 7.16242188 -1.83492188 7.32484375 -2.68359375 7.4921875 C-3.36550781 7.70101563 -4.04742187 7.90984375 -4.75 8.125 C-6.03605661 10.69711322 -5.96043941 12.69406966 -6.06640625 15.5703125 C-6.10830078 16.64667969 -6.15019531 17.72304688 -6.19335938 18.83203125 C-6.25233398 20.52392578 -6.25233398 20.52392578 -6.3125 22.25 C-6.35568359 23.38566406 -6.39886719 24.52132813 -6.44335938 25.69140625 C-6.5496604 28.50247768 -6.65169405 31.31363945 -6.75 34.125 C-9.06 34.125 -11.37 34.125 -13.75 34.125 C-13.86686443 30.10441398 -13.93747388 26.08426918 -14 22.0625 C-14.03351563 20.92876953 -14.06703125 19.79503906 -14.1015625 18.62695312 C-14.1798717 11.91193888 -13.99212737 7.47215705 -9.75 2.125 C-6.64271847 -0.22472115 -3.81754827 -0.09089401 0 0 Z " fill="#B9B9B9" transform="translate(387.75,253.875)"/>
<path d="M0 0 C1.98 0 3.96 0 6 0 C6 15.51 6 31.02 6 47 C4.02 47 2.04 47 0 47 C0 31.49 0 15.98 0 0 Z " fill="#B9B9B9" transform="translate(441,241)"/>
<path d="M0 0 C1.98 0 3.96 0 6 0 C6 11.22 6 22.44 6 34 C4.02 34 2.04 34 0 34 C0 22.78 0 11.56 0 0 Z " fill="#B9B9B9" transform="translate(72,254)"/>
<path d="M0 0 C1.875 0.6875 1.875 0.6875 2.875 1.6875 C3 4.1875 3 4.1875 2.875 6.6875 C1.875 7.6875 1.875 7.6875 -1.125 7.8125 C-4.125 7.6875 -4.125 7.6875 -5.125 6.6875 C-5.375 4.25 -5.375 4.25 -5.125 1.6875 C-2.125 -0.3125 -2.125 -0.3125 0 0 Z " fill="#B9B9B9" transform="translate(76.125,242.3125)"/>
</svg>
