<?xml version="1.0" encoding="UTF-8"?>
<svg version="1.1" xmlns="http://www.w3.org/2000/svg" width="400" height="400">
<path d="M0 0 C132 0 264 0 400 0 C400 132 400 264 400 400 C268 400 136 400 0 400 C0 268 0 136 0 0 Z " fill="#52C8C5" transform="translate(0,0)"/>
<path d="M0 0 C0.59006836 0.22558594 1.18013672 0.45117188 1.78808594 0.68359375 C2.60058594 2.68359375 2.60058594 2.68359375 2.78808594 5.68359375 C1.85327148 7.46069336 1.85327148 7.46069336 0.54980469 9.3984375 C-1.95362794 13.24401129 -4.11336086 17.16942082 -6.21191406 21.24609375 C-9.94083798 28.39360202 -13.85282496 35.4254233 -17.83691406 42.43359375 C-21.79552361 49.39803401 -25.70472655 56.37423039 -29.46972656 63.4453125 C-31.69874634 67.58849051 -33.98573039 71.69815837 -36.27441406 75.80859375 C-36.70254395 76.58017822 -37.13067383 77.3517627 -37.57177734 78.14672852 C-39.4132839 81.46407002 -41.26364618 84.77391636 -43.14941406 88.06640625 C-43.68566406 89.01257813 -44.22191406 89.95875 -44.77441406 90.93359375 C-45.22945313 91.7225 -45.68449219 92.51140625 -46.15332031 93.32421875 C-47.55606485 96.18342017 -47.55606485 96.18342017 -48.21191406 101.68359375 C-17.85191406 101.68359375 12.50808594 101.68359375 43.78808594 101.68359375 C44.11808594 103.66359375 44.44808594 105.64359375 44.78808594 107.68359375 C43.45214844 109.484375 43.45214844 109.484375 41.41308594 110.99609375 C38.15233229 113.56947598 35.18905752 116.20681281 32.28808594 119.18359375 C28.90567195 122.61242165 25.40738151 125.80407893 21.75292969 128.9375 C19.6798827 130.7797505 17.73372792 132.70761037 15.78808594 134.68359375 C11.15729139 139.3780731 6.27279911 143.71893682 1.10058594 147.80859375 C-1.53565819 149.94608899 -3.83778419 152.25550638 -6.21191406 154.68359375 C-11.10572459 159.67133538 -16.0424318 164.50325262 -21.35644531 169.04296875 C-23.18940256 170.66368884 -24.88848447 172.36097786 -26.58691406 174.12109375 C-29.21191406 176.68359375 -29.21191406 176.68359375 -31.21191406 176.68359375 C-31.47359375 177.28171875 -31.73527344 177.87984375 -32.00488281 178.49609375 C-33.29218659 180.82907147 -34.47738868 182.00038658 -36.52441406 183.68359375 C-40.42886145 186.98625475 -44.20874574 190.39900435 -47.96191406 193.87109375 C-48.51661377 194.38220703 -49.07131348 194.89332031 -49.64282227 195.41992188 C-51.98294902 197.58362874 -54.27070117 199.74491478 -56.47753906 202.046875 C-58.21191406 203.68359375 -58.21191406 203.68359375 -60.21191406 203.68359375 C-60.21191406 204.34359375 -60.21191406 205.00359375 -60.21191406 205.68359375 C-60.87191406 205.68359375 -61.53191406 205.68359375 -62.21191406 205.68359375 C-62.21191406 206.34359375 -62.21191406 207.00359375 -62.21191406 207.68359375 C-63.71582031 209.1640625 -63.71582031 209.1640625 -65.77441406 210.87109375 C-69.3218758 213.87036868 -72.57714279 217.02354507 -75.76660156 220.3984375 C-77.21191406 221.68359375 -77.21191406 221.68359375 -79.21191406 221.68359375 C-79.21191406 222.34359375 -79.21191406 223.00359375 -79.21191406 223.68359375 C-80.71582031 225.19921875 -80.71582031 225.19921875 -82.77441406 226.93359375 C-83.50402344 227.55492187 -84.23363281 228.17625 -84.98535156 228.81640625 C-85.72011719 229.43257812 -86.45488281 230.04875 -87.21191406 230.68359375 C-91.3858813 234.21017015 -95.39124592 237.76740891 -99.21191406 241.68359375 C-107.34932001 250.00552137 -107.34932001 250.00552137 -110.21191406 251.68359375 C-111.53191406 251.68359375 -112.85191406 251.68359375 -114.21191406 251.68359375 C-114.65259857 247.71147796 -114.40995513 245.99552801 -112.23535156 242.5703125 C-111.36622547 241.49272258 -110.4826946 240.42663031 -109.58691406 239.37109375 C-108.66518421 238.2376724 -107.74591525 237.10224541 -106.82910156 235.96484375 C-106.38018555 235.41183594 -105.93126953 234.85882813 -105.46875 234.2890625 C-103.21055714 231.40447116 -101.2910147 228.30876542 -99.36816406 225.1953125 C-98.79582031 224.44701172 -98.79582031 224.44701172 -98.21191406 223.68359375 C-97.55191406 223.68359375 -96.89191406 223.68359375 -96.21191406 223.68359375 C-96.14488281 223.16023437 -96.07785156 222.636875 -96.00878906 222.09765625 C-94.8551319 218.60275366 -92.66548015 215.95415423 -90.46191406 213.05859375 C-89.45334616 211.70889748 -88.44556643 210.35861198 -87.43847656 209.0078125 C-86.90899414 208.30060059 -86.37951172 207.59338867 -85.83398438 206.86474609 C-83.12955017 203.22816946 -80.48444274 199.54919599 -77.83691406 195.87109375 C-76.73800131 194.34762337 -75.63904258 192.82418615 -74.54003906 191.30078125 C-73.43059438 189.76176898 -72.32121955 188.22270635 -71.21191406 186.68359375 C-64.4749735 177.33638489 -57.73387847 167.9934201 -50.90087891 158.71606445 C-50.07856898 157.59874322 -49.25898162 156.47941216 -48.44238281 155.35791016 C-47.58324558 154.18886985 -46.70960297 153.03041246 -45.82519531 151.88037109 C-45.3753125 151.28305176 -44.92542969 150.68573242 -44.46191406 150.0703125 C-44.05457031 149.54010498 -43.64722656 149.00989746 -43.22753906 148.46362305 C-41.96914166 146.25810011 -41.6658594 144.16767824 -41.21191406 141.68359375 C-42.42269623 141.68581436 -43.63347839 141.68803497 -44.88095093 141.69032288 C-56.27062329 141.71056172 -67.66029202 141.72556949 -79.04997826 141.73540592 C-84.90604779 141.74063285 -90.76210286 141.74772708 -96.61816406 141.7590332 C-102.26561247 141.76986879 -107.91304692 141.77587202 -113.56050491 141.77847099 C-115.71915532 141.78032402 -117.87780494 141.78394232 -120.03644943 141.78932381 C-123.05117211 141.79654311 -126.06583653 141.79758431 -129.08056641 141.79711914 C-130.43031303 141.80251205 -130.43031303 141.80251205 -131.80732727 141.80801392 C-137.98380974 141.79764591 -137.98380974 141.79764591 -140.21191406 140.68359375 C-139.7135682 136.29014191 -138.36404219 134.33998837 -135.24707031 131.2578125 C-134.44720703 130.46181641 -133.64734375 129.66582031 -132.82324219 128.84570312 C-131.98212891 128.02908203 -131.14101562 127.21246094 -130.27441406 126.37109375 C-129.43716797 125.53513672 -128.59992188 124.69917969 -127.73730469 123.83789062 C-121.49257733 117.68359375 -121.49257733 117.68359375 -119.21191406 117.68359375 C-118.96658936 117.11302246 -118.72126465 116.54245117 -118.46850586 115.95458984 C-116.99526101 113.29204397 -115.26397011 111.49321695 -113.10644531 109.34765625 C-112.28724609 108.53039062 -111.46804687 107.713125 -110.62402344 106.87109375 C-109.3372168 105.60265625 -109.3372168 105.60265625 -108.02441406 104.30859375 C-107.18587891 103.47070312 -106.34734375 102.6328125 -105.48339844 101.76953125 C-101.82545227 98.13728493 -98.15967195 94.56948203 -94.22363281 91.23828125 C-91.21618014 88.85240581 -91.21618014 88.85240581 -89.21191406 86.18359375 C-87.0230354 83.44749542 -84.62512612 81.39433822 -81.94628906 79.15625 C-78.77386239 76.46254537 -75.92423598 73.6169811 -73.39941406 70.30859375 C-71.63012763 68.18545003 -70.08609991 66.67809155 -67.99316406 64.93359375 C-61.15646633 59.01211763 -54.89493712 52.47099176 -48.52441406 46.05859375 C-47.20628981 44.73544282 -45.88793216 43.41252434 -44.56933594 42.08984375 C-41.61798829 39.12860498 -38.66848257 36.16555469 -35.7225647 33.19891357 C-34.29388378 31.76581682 -32.8551199 30.34279253 -31.41577148 28.92041016 C-29.17994857 26.74493768 -29.17994857 26.74493768 -27.39941406 24.30859375 C-25.08211076 21.52782979 -22.59250514 19.39293897 -19.83300781 17.06640625 C-17.62647611 15.06046834 -15.56276534 13.01035999 -13.49707031 10.86328125 C-12.50284058 9.83630127 -12.50284058 9.83630127 -11.48852539 8.78857422 C-10.14584502 7.39397235 -8.81344349 5.98939511 -7.49194336 4.57470703 C-6.86843994 3.93001465 -6.24493652 3.28532227 -5.60253906 2.62109375 C-4.76770996 1.73744141 -4.76770996 1.73744141 -3.91601562 0.8359375 C-2.21191406 -0.31640625 -2.21191406 -0.31640625 0 0 Z " fill="#FCFEFD" transform="translate(247.2119140625,72.31640625)"/>
<path d="M0 0 C0.33 0 0.66 0 1 0 C1 60.72 1 121.44 1 184 C-59.72 184 -120.44 184 -183 184 C-183 183.67 -183 183.34 -183 183 C-182.030625 182.89042969 -181.06125 182.78085937 -180.0625 182.66796875 C-155.80071329 179.84640375 -133.03698009 173.73823394 -111 163 C-110.38398926 162.70158203 -109.76797852 162.40316406 -109.13330078 162.09570312 C-98.76967564 157.00139843 -89.32458822 150.78930957 -80 144 C-79.41395996 143.57912109 -78.82791992 143.15824219 -78.22412109 142.72460938 C-70.37034432 137.03638782 -63.37616119 130.64609515 -56.5 123.8125 C-55.36908936 122.68992798 -55.36908936 122.68992798 -54.21533203 121.54467773 C-49.69371474 116.96392461 -45.76350171 112.21215118 -42 107 C-40.94425781 105.67935547 -40.94425781 105.67935547 -39.8671875 104.33203125 C-29.56959611 91.30860684 -21.44449676 76.27150444 -15 61 C-14.51273438 59.93007813 -14.02546875 58.86015625 -13.5234375 57.7578125 C-5.60620657 39.52788077 -2.35209665 19.62143788 0 0 Z " fill="#FCFEFE" transform="translate(399,216)"/>
<path d="M0 0 C0.33 0 0.66 0 1 0 C1.03738281 0.8971875 1.07476562 1.794375 1.11328125 2.71875 C2.46169289 28.3121317 9.43491385 54.13189369 21 77 C21.47904785 77.97018066 21.47904785 77.97018066 21.96777344 78.95996094 C35.64974831 106.53226564 56.57405651 132.47868364 82 150 C83.13308594 150.79083984 83.13308594 150.79083984 84.2890625 151.59765625 C86.50189672 153.10640685 88.74185708 154.55997115 91 156 C91.95132813 156.61488281 92.90265625 157.22976563 93.8828125 157.86328125 C122.69838347 176.09426288 154.91620144 186.41088399 189 188 C189 188.33 189 188.66 189 189 C126.63 189 64.26 189 0 189 C0 126.63 0 64.26 0 0 Z " fill="#FCFEFE" transform="translate(0,211)"/>
<path d="M0 0 C62.37 0 124.74 0 189 0 C189 61.71 189 123.42 189 187 C188.67 187 188.34 187 188 187 C187.85304688 185.27330078 187.85304688 185.27330078 187.703125 183.51171875 C184.96711555 153.55543406 176.57733881 124.62665072 161.03198242 98.73828125 C159.97033472 96.95003151 158.95522875 95.13993339 157.94140625 93.32421875 C156.32500702 90.55650096 154.68734343 88.11645172 152.6875 85.625 C152.08035156 84.86316406 151.47320312 84.10132812 150.84765625 83.31640625 C150.23792969 82.55199219 149.62820313 81.78757812 149 81 C147.87460579 79.52113324 146.74960416 78.04196765 145.625 76.5625 C134.04896091 61.72668937 120.55889227 47.96724618 104.6171875 37.84375 C103.75351562 37.2353125 102.88984375 36.626875 102 36 C102 35.34 102 34.68 102 34 C101.12988281 33.74476562 100.25976562 33.48953125 99.36328125 33.2265625 C95.90347965 31.96479978 93.25855609 30.39553756 90.1875 28.375 C63.27446032 11.29873508 31.5787363 2.94433833 0 1 C0 0.67 0 0.34 0 0 Z " fill="#FDFEFE" transform="translate(211,0)"/>
<path d="M0 0 C61.71 0 123.42 0 187 0 C187 0.33 187 0.66 187 1 C186.2678125 1.01417969 185.535625 1.02835937 184.78125 1.04296875 C147.28455043 2.69460909 98.59001772 19.40114692 72 47 C70.65729148 48.24167302 69.30255276 49.47043426 67.9375 50.6875 C66.89916016 51.62142578 66.89916016 51.62142578 65.83984375 52.57421875 C64 54 64 54 62 54 C61.7525 54.61875 61.505 55.2375 61.25 55.875 C59.79371361 58.35068687 58.62187494 58.95125002 56 60 C56 60.66 56 61.32 56 62 C55.34 62 54.68 62 54 62 C53.76410156 62.5465625 53.52820312 63.093125 53.28515625 63.65625 C51.66440557 66.61202631 49.63409932 68.94245713 47.4375 71.5 C19.87966093 104.05282303 5.87673475 142.05279337 1 184 C0.67 184 0.34 184 0 184 C0 123.28 0 62.56 0 0 Z " fill="#FDFEFE" transform="translate(0,0)"/>
<path d="M0 0 C-2.85845789 2.39404025 -5.02312134 3.47591521 -8.6875 4.125 C-9.55761719 4.2796875 -10.42773438 4.434375 -11.32421875 4.59375 C-20.58653846 6 -20.58653846 6 -25 6 C-25.66 6.33 -26.32 6.66 -27 7 C-29.00800456 6.71887936 -31.01014051 6.38932033 -33 6 C-33.33 6.99 -33.66 7.98 -34 9 C-34.53882813 8.64550781 -35.07765625 8.29101562 -35.6328125 7.92578125 C-41.13042373 5.77572537 -48.38126342 9.3184267 -53.5625 11.5 C-55.7306545 12.83424893 -57.34920764 14.07407558 -59 16 C-59.99 15.67 -60.98 15.34 -62 15 C-64.41564897 15.64571587 -64.41564897 15.64571587 -66.9375 16.75 C-67.79214844 17.09546875 -68.64679688 17.4409375 -69.52734375 17.796875 C-72.02586257 18.91255192 -72.02586257 18.91255192 -74.07421875 20.578125 C-76.09652359 22.07126691 -77.43394595 22.52943536 -79.875 23 C-85.81443004 24.3468596 -89.77313348 26.63223793 -94 31 C-94.680625 31.309375 -95.36125 31.61875 -96.0625 31.9375 C-98.23946698 32.90595319 -98.23946698 32.90595319 -99.375 35.5 C-101.52817787 38.81258133 -103.23678152 38.98682579 -107 40 C-112.2057271 41.63621765 -112.2057271 41.63621765 -115.4375 45.6875 C-115.7159375 46.8321875 -115.7159375 46.8321875 -116 48 C-116.75023437 47.9175 -117.50046875 47.835 -118.2734375 47.75 C-121.09365383 47.73154771 -121.09365383 47.73154771 -122.9140625 49.75 C-123.47867188 50.4925 -124.04328125 51.235 -124.625 52 C-126.3515625 54.25 -126.3515625 54.25 -128 56 C-128.99 56 -129.98 56 -131 56 C-131.79953138 59.28696233 -132.09658936 60.71023192 -131 64 C-132.32 64 -133.64 64 -135 64 C-138.11785113 64.64644661 -138.11785113 64.64644661 -139 67 C-139.66 67 -140.32 67 -141 67 C-141.2475 67.7425 -141.495 68.485 -141.75 69.25 C-143.10000586 72.22001289 -144.71759028 73.71759028 -147 76 C-147.7872678 78.1381966 -147.7872678 78.1381966 -148 80 C-148.78375 80.0825 -149.5675 80.165 -150.375 80.25 C-153.11983754 80.73044197 -153.11983754 80.73044197 -154.3125 82.9375 C-155.10540926 84.95388345 -155.10540926 84.95388345 -155 87 C-157.97 87.99 -157.97 87.99 -161 89 C-159.74330104 84.85289345 -157.67322554 82.25986483 -154.8515625 79.09765625 C-152.60632825 76.55400479 -150.45997385 73.93913332 -148.3125 71.3125 C-147.56613281 70.40113281 -146.81976563 69.48976563 -146.05078125 68.55078125 C-144.77181716 66.95999353 -143.5318063 65.33607686 -142.35546875 63.66796875 C-141.68451172 62.84232422 -141.68451172 62.84232422 -141 62 C-140.34 62 -139.68 62 -139 62 C-139 61.34 -139 60.68 -139 60 C-137.35648543 58.63823078 -135.68477344 57.31037934 -134 56 C-133.195625 55.195625 -132.39125 54.39125 -131.5625 53.5625 C-128.81830459 50.81830459 -126.06309531 48.38240747 -123 46 C-122.34 46 -121.68 46 -121 46 C-120.67 45.01 -120.34 44.02 -120 43 C-89.41928627 15.47072409 -40.68838382 -0.81376768 0 0 Z " fill="#7ECACC" transform="translate(195,0)"/>
<path d="M0 0 C35.33402298 1.13601626 67.1732282 10.75373145 98 28 C99.68802734 28.93972656 99.68802734 28.93972656 101.41015625 29.8984375 C106.36377438 32.75495428 106.36377438 32.75495428 108 34 C108 34.66 108 35.32 108 36 C108.598125 36.268125 109.19625 36.53625 109.8125 36.8125 C111.97224808 37.98493467 113.35790256 39.19369282 115 41 C112.69 40.34 110.38 39.68 108 39 C108 38.34 108 37.68 108 37 C106.515 37.495 106.515 37.495 105 38 C103.5 36.625 103.5 36.625 102 35 C102 34.34 102 33.68 102 33 C98.7 32.67 95.4 32.34 92 32 C92.020625 31.2575 92.04125 30.515 92.0625 29.75 C90.76274121 26.38591843 89.94799178 26.19254356 86.75 24.75 C84.23628067 23.74689118 82.04785263 23.00797544 79.375 22.5625 C76.81224633 21.95553203 75.79270005 21.16681237 73.75 19.5625 C69.86899393 16.62621251 65.84046566 15.39399139 61 15 C60.01 15.33 59.02 15.66 58 16 C57.34 14.68 56.68 13.36 56 12 C55.67 12.66 55.34 13.32 55 14 C54.34 14 53.68 14 53 14 C53 12.68 53 11.36 53 10 C45.27111181 8.04596958 37.94957992 7.77571718 30 8 C30.33 7.01 30.66 6.02 31 5 C30.46890625 5.23976563 29.9378125 5.47953125 29.390625 5.7265625 C23.58247766 8.16428857 23.58247766 8.16428857 20.5625 7.3125 C19 6 19 6 18 4 C17.360625 4.20625 16.72125 4.4125 16.0625 4.625 C10.98645857 5.24655609 5.95975069 4.35804336 1.72265625 1.421875 C1.15417969 0.95265625 0.58570313 0.4834375 0 0 Z " fill="#85C8CD" transform="translate(205,0)"/>
<path d="M0 0 C0.99 0 1.98 0 3 0 C3.495 1.98 3.495 1.98 4 4 C3.34 4 2.68 4 2 4 C2 4.99 2 5.98 2 7 C1.38125 7.433125 0.7625 7.86625 0.125 8.3125 C-2.23953091 9.86814316 -2.23953091 9.86814316 -2.875 12.75 C-3.9881293 15.96570686 -4.85755432 17.10540783 -7.125 19.5 C-9.7042164 22.19165276 -9.7042164 22.19165276 -9.9375 25.875 C-10.02770377 30.38518833 -12.48523954 32.37697744 -15.30859375 35.7421875 C-17.58461162 38.78038225 -18.29256173 41.30560016 -19 45 C-19.66 45 -20.32 45 -21 45 C-21 46.65 -21 48.3 -21 50 C-20.34 50 -19.68 50 -19 50 C-18.67 51.65 -18.34 53.3 -18 55 C-19.98 55 -21.96 55 -24 55 C-24.13277344 56.0621875 -24.26554687 57.124375 -24.40234375 58.21875 C-25.6015625 67.8125 -26.80078125 77.40625 -28 87 C-28.33 87 -28.66 87 -29 87 C-29.66 92.28 -30.32 97.56 -31 103 C-31.66 103 -32.32 103 -33 103 C-31.73497195 68.53889094 -21.79925362 38.04213971 -5 8 C-4.62182129 7.32308105 -4.24364258 6.64616211 -3.85400391 5.94873047 C-1.13965869 1.13965869 -1.13965869 1.13965869 0 0 Z " fill="#72C9C7" transform="translate(33,89)"/>
<path d="M0 0 C1.98 0.33 3.96 0.66 6 1 C5.48272948 5.11272465 4.43424335 7.0767369 1.52734375 10.00390625 C0.80071533 10.73867188 0.07408691 11.4734375 -0.67456055 12.23046875 C-1.46258057 13.00003906 -2.25060059 13.76960938 -3.0625 14.5625 C-4.27836792 15.76132812 -4.27836792 15.76132812 -5.51879883 16.984375 C-12.26407454 23.51727874 -19.32958415 29.30231568 -27.04443359 34.64306641 C-29.0641905 36.04454068 -31.05699428 37.47985093 -33.05078125 38.91796875 C-34.36559931 39.84340638 -35.68194927 40.76667231 -37 41.6875 C-37.88014771 42.32171875 -37.88014771 42.32171875 -38.77807617 42.96875 C-43.26088958 46.00941062 -46.7258138 46.65879716 -52 47 C-51.34 46.01 -50.68 45.02 -50 44 C-49.34 44 -48.68 44 -48 44 C-47.67 42.68 -47.34 41.36 -47 40 C-47 40.66 -47 41.32 -47 42 C-45.68 42 -44.36 42 -43 42 C-43 41.34 -43 40.68 -43 40 C-41.515 39.505 -41.515 39.505 -40 39 C-40 37.02 -40 35.04 -40 33 C-35.44459229 31.48153076 -32.64598338 30.96755925 -28 32 C-24.68539295 30.29107501 -24.68539295 30.29107501 -24.3125 26.875 C-24.209375 25.92625 -24.10625 24.9775 -24 24 C-21.03 23.67 -18.06 23.34 -15 23 C-14.67 20.69 -14.34 18.38 -14 16 C-12.02 15.67 -10.04 15.34 -8 15 C-7.34 12.69 -6.68 10.38 -6 8 C-4.35 8 -2.7 8 -1 8 C-0.67 5.36 -0.34 2.72 0 0 Z " fill="#46C2B5" transform="translate(344,328)"/>
<path d="M0 0 C-2.85845789 2.39404025 -5.02312134 3.47591521 -8.6875 4.125 C-9.55761719 4.2796875 -10.42773438 4.434375 -11.32421875 4.59375 C-20.58653846 6 -20.58653846 6 -25 6 C-25.66 6.33 -26.32 6.66 -27 7 C-29.00800456 6.71887936 -31.01014051 6.38932033 -33 6 C-33.33 6.99 -33.66 7.98 -34 9 C-34.53882813 8.64550781 -35.07765625 8.29101562 -35.6328125 7.92578125 C-41.13042373 5.77572537 -48.38126342 9.3184267 -53.5625 11.5 C-55.7306545 12.83424893 -57.34920764 14.07407558 -59 16 C-59.99 15.67 -60.98 15.34 -62 15 C-64.89250996 15.42507163 -64.89250996 15.42507163 -68 16.25 C-69.051875 16.50265625 -70.10375 16.7553125 -71.1875 17.015625 C-74.02734141 18.00956949 -74.99811583 18.88001057 -77 21 C-80.1875 21.1875 -80.1875 21.1875 -83 21 C-62.24322724 4.51719811 -25.70923875 -0.51418478 0 0 Z " fill="#89CACF" transform="translate(195,0)"/>
<path d="M0 0 C30.03 0 60.06 0 91 0 C91.495 2.97 91.495 2.97 92 6 C90.68 6.66 89.36 7.32 88 8 C88.33 6.68 88.66 5.36 89 4 C87.35 4 85.7 4 84 4 C84 3.34 84 2.68 84 2 C56.28 2 28.56 2 0 2 C0 1.34 0 0.68 0 0 Z " fill="#CFF0F1" transform="translate(200,174)"/>
<path d="M0 0 C1.04449911 3.13349732 0.93423645 3.98968256 0 7 C1.1503624 6.99777939 2.30072479 6.99555878 3.48594666 6.99327087 C14.30200059 6.97304078 25.1180507 6.9580285 35.93411922 6.94818783 C41.49539411 6.94295866 47.05665379 6.93586042 52.61791992 6.92456055 C57.98007419 6.91373285 63.34221378 6.90772342 68.70437813 6.90512276 C70.75500278 6.90326829 72.8056266 6.89964728 74.85624504 6.89426994 C77.71790203 6.88706107 80.57949757 6.88600899 83.44116211 6.88647461 C84.72617111 6.8810817 84.72617111 6.8810817 86.03713989 6.87557983 C91.88594784 6.88594784 91.88594784 6.88594784 93 8 C93.40560735 12.13719492 93.27496599 14.4806198 91.3125 18.1875 C89.0414241 20.94961934 87.01145667 23.06957906 84 25 C82.515 24.505 82.515 24.505 81 24 C81.9080162 22.86800647 82.82683826 21.74467637 83.75 20.625 C84.51570313 19.68527344 84.51570313 19.68527344 85.296875 18.7265625 C87.08199481 16.91687682 88.67949644 15.99882545 91 15 C90.505 12.03 90.505 12.03 90 9 C59.64 9 29.28 9 -2 9 C-2 3 -2 3 0 0 Z " fill="#66C4BA" transform="translate(201,165)"/>
<path d="M0 0 C0.5775 0.226875 1.155 0.45375 1.75 0.6875 C0.75 3.6875 0.75 3.6875 -1.05078125 4.828125 C-29.24169539 17.27947744 -29.24169539 17.27947744 -43.1875 18.3125 C-44.14527344 18.38726562 -45.10304687 18.46203125 -46.08984375 18.5390625 C-47.15912109 18.61253906 -47.15912109 18.61253906 -48.25 18.6875 C-48.25 17.6975 -48.25 16.7075 -48.25 15.6875 C-47.4146875 15.73970703 -47.4146875 15.73970703 -46.5625 15.79296875 C-40.70298962 16.000823 -36.6199664 15.03075807 -31.25 12.6875 C-31.25 11.3675 -31.25 10.0475 -31.25 8.6875 C-30.37988281 8.83058594 -30.37988281 8.83058594 -29.4921875 8.9765625 C-24.60066254 9.67073931 -20.78568747 10.06873592 -16.25 7.6875 C-15.28122943 5.65506452 -15.28122943 5.65506452 -15.25 3.6875 C-13.6 3.6875 -11.95 3.6875 -10.25 3.6875 C-9.92 3.0275 -9.59 2.3675 -9.25 1.6875 C-8.26 2.0175 -7.27 2.3475 -6.25 2.6875 C-5.2909375 1.945 -5.2909375 1.945 -4.3125 1.1875 C-2.25 -0.3125 -2.25 -0.3125 0 0 Z " fill="#3DC2B4" transform="translate(287.25,376.3125)"/>
<path d="M0 0 C2 1.625 2 1.625 3 4 C1.20110236 12.79461068 -4.7528938 22.29729448 -9.8125 29.625 C-11.4131644 32.8263288 -11.13091703 35.46524011 -11 39 C-11.33 39.99 -11.66 40.98 -12 42 C-13.65 42 -15.3 42 -17 42 C-17.71875 40.3984375 -17.71875 40.3984375 -18 38 C-16.92418925 35.7348207 -15.82197753 33.73757769 -14.5 31.625 C-13.75439637 30.38485997 -13.01230198 29.14260443 -12.2734375 27.8984375 C-11.89413086 27.2600293 -11.51482422 26.62162109 -11.12402344 25.96386719 C-8.67277544 21.68110461 -6.58705756 17.20850079 -4.4453125 12.765625 C-3 10 -3 10 -1 8 C-1.32041397 5.39719432 -1.32041397 5.39719432 -2 3 C-5.87132028 3.57352893 -8.08172796 5.48704352 -11 8 C-9.16300048 1.49984785 -7.0170474 -0.87713093 0 0 Z " fill="#7AC8C9" transform="translate(250,70)"/>
<path d="M0 0 C3.32022557 1.4489693 5.52352547 3.26628215 8.08203125 5.81640625 C8.84966797 6.58146484 9.61730469 7.34652344 10.40820312 8.13476562 C11.59833008 9.33649414 11.59833008 9.33649414 12.8125 10.5625 C13.98522461 11.72362305 13.98522461 11.72362305 15.18164062 12.90820312 C29 26.77273914 29 26.77273914 29 31 C27.02 30.67 25.04 30.34 23 30 C22.34 27.69 21.68 25.38 21 23 C20.21625 22.87625 19.4325 22.7525 18.625 22.625 C16 22 16 22 14 20 C14 18.68 14 17.36 14 16 C11.23735711 15.40267181 8.83967231 15 6 15 C5.9071875 13.1128125 5.9071875 13.1128125 5.8125 11.1875 C5.61680048 8.98573585 5.61680048 8.98573585 5 7 C2.52066803 5.22851628 2.52066803 5.22851628 0 4 C0 2.68 0 1.36 0 0 Z " fill="#77CACB" transform="translate(330,49)"/>
<path d="M0 0 C0.66 0 1.32 0 2 0 C-0.8369702 20.18386089 -16.47305001 44.99186966 -31 59 C-31 58.01 -31 57.02 -31 56 C-30.34 56 -29.68 56 -29 56 C-28.88527344 55.41734375 -28.77054687 54.8346875 -28.65234375 54.234375 C-27.95175938 51.83476865 -27.01807405 50.27139067 -25.5625 48.25 C-25.13066406 47.63640625 -24.69882812 47.0228125 -24.25390625 46.390625 C-23.63322266 45.70226562 -23.63322266 45.70226562 -23 45 C-22.34 45 -21.68 45 -21 45 C-20.71125 43.865625 -20.4225 42.73125 -20.125 41.5625 C-19.75375 40.386875 -19.3825 39.21125 -19 38 C-18.01 37.505 -18.01 37.505 -17 37 C-16.855625 36.38125 -16.71125 35.7625 -16.5625 35.125 C-16 33 -16 33 -14.5625 31.625 C-12.38230308 29.3575952 -11.89683578 26.9894526 -11 24 C-10.34588315 22.32836805 -9.68346682 20.65984798 -9 19 C-8.34 19 -7.68 19 -7 19 C-7.061875 18.2575 -7.12375 17.515 -7.1875 16.75 C-6.96249654 13.44994921 -6.01138684 12.55291407 -4 10 C-3.29618843 8.01276732 -2.6288189 6.01222047 -2 4 C-1.36184656 2.65278717 -0.70674629 1.31252882 0 0 Z " fill="#58C2B9" transform="translate(385,268)"/>
<path d="M0 0 C10.25873882 15.38810823 11.34546368 39.966396 12 58 C11.34 58 10.68 58 10 58 C9.93941406 57.33613281 9.87882812 56.67226562 9.81640625 55.98828125 C9.20136493 49.45091919 9.20136493 49.45091919 8 43 C6.68 42.67 5.36 42.34 4 42 C4 39.36 4 36.72 4 34 C4.66 34 5.32 34 6 34 C5.4629059 26.20648438 5.4629059 26.20648438 3.9375 18.5625 C3 15 3 15 3 11 C2.34 11 1.68 11 1 11 C0.67 7.37 0.34 3.74 0 0 Z " fill="#66C7C5" transform="translate(388,133)"/>
<path d="M0 0 C-3.51740479 3.56673193 -7.04124462 7.12692951 -10.57128906 10.68115234 C-11.77198895 11.89192849 -12.9708902 13.10449101 -14.16796875 14.31884766 C-15.88595748 16.06101338 -17.61024875 17.79671544 -19.3359375 19.53125 C-19.87245941 20.07809448 -20.40898132 20.62493896 -20.96176147 21.18835449 C-22.27042287 22.49741098 -23.63096626 23.75421906 -25 25 C-25.66 25 -26.32 25 -27 25 C-27.33 25.99 -27.66 26.98 -28 28 C-28.66 28 -29.32 28 -30 28 C-30.2475 28.598125 -30.495 29.19625 -30.75 29.8125 C-32.16370012 32.28647521 -33.65055383 33.43370255 -36 35 C-35.875 31.75 -35.875 31.75 -35 28 C-32.18153804 25.62992971 -29.70025271 24.25463735 -26.25 23 C-23.83524834 22.18007555 -23.83524834 22.18007555 -22.6875 19.875 C-22.3471875 18.946875 -22.3471875 18.946875 -22 18 C-21.34 18 -20.68 18 -20 18 C-20 17.01 -20 16.02 -20 15 C-19.34 15 -18.68 15 -18 15 C-17.67 14.01 -17.34 13.02 -17 12 C-16.34 12 -15.68 12 -15 12 C-14.7525 11.21625 -14.505 10.4325 -14.25 9.625 C-12.79075497 6.56058543 -11.94985044 6.38274239 -9 5 C-7.73195434 2.9664052 -7.73195434 2.9664052 -7 1 C-7.66 0.67 -8.32 0.34 -9 0 C-5.5657338 -0.85856655 -3.38317487 -0.97591583 0 0 Z " fill="#79C8CA" transform="translate(206,112)"/>
<path d="M0 0 C1 2 1 2 0.44140625 4.09375 C0.15136719 4.8878125 -0.13867188 5.681875 -0.4375 6.5 C-1.63616058 9.67598467 -1.63616058 9.67598467 -2 13 C-1.01 13.33 -0.02 13.66 1 14 C-5.66666667 22.11111111 -5.66666667 22.11111111 -9 24 C-10.32 24 -11.64 24 -13 24 C-13.47337615 19.92404692 -13.16582093 18.25915354 -10.91796875 14.74609375 C-10.02228875 13.63144043 -9.11161188 12.52869747 -8.1875 11.4375 C-5.17458094 7.76268431 -2.33167644 4.1598347 0 0 Z " fill="#EAFBF9" transform="translate(146,300)"/>
<path d="M0 0 C0.33 0.99 0.66 1.98 1 3 C0.67 3.66 0.34 4.32 0 5 C0.66 5 1.32 5 2 5 C2 5.66 2 6.32 2 7 C32.69 7 63.38 7 95 7 C95 7.33 95 7.66 95 8 C82.51769974 8.02313227 70.03540454 8.04091962 57.55308723 8.05181217 C51.75755178 8.05703905 45.96203094 8.06413319 40.16650391 8.07543945 C34.57741018 8.08627521 28.98833056 8.09227831 23.39922714 8.09487724 C21.2629054 8.09673024 19.12658447 8.10034848 16.99026871 8.10573006 C14.00667887 8.1129496 11.0231479 8.11399055 8.03955078 8.11352539 C6.70383026 8.1189183 6.70383026 8.1189183 5.34112549 8.12442017 C-0.77189568 8.11405216 -0.77189568 8.11405216 -3 7 C-2.25 2.25 -2.25 2.25 0 0 Z " fill="#D8FEFD" transform="translate(110,206)"/>
<path d="M0 0 C0.99 0.33 1.98 0.66 3 1 C2.28972656 1.90363281 1.57945312 2.80726563 0.84765625 3.73828125 C-0.08094601 4.92951849 -1.00931953 6.12093408 -1.9375 7.3125 C-2.40607422 7.90740234 -2.87464844 8.50230469 -3.35742188 9.11523438 C-5.38555959 11.72700884 -6.94630801 13.83892403 -8 17 C-9.17309899 18.13958187 -10.34814348 19.27726208 -11.53515625 20.40234375 C-13.92779162 23.01191139 -15.70534406 26.01264788 -17.5703125 29.01171875 C-19 31 -19 31 -22 33 C-22.33 32.34 -22.66 31.68 -23 31 C-21.75 27.9375 -21.75 27.9375 -20 25 C-19.01 24.67 -18.02 24.34 -17 24 C-16.67 23.01 -16.34 22.02 -16 21 C-15.525625 20.608125 -15.05125 20.21625 -14.5625 19.8125 C-12.77363053 17.73741142 -12.62722303 16.58732437 -12.125 13.9375 C-11.65625 11.78125 -11.65625 11.78125 -11 10 C-8.625 8.9375 -8.625 8.9375 -6 8 C-4.43078664 5.77203837 -3.27492996 3.41797061 -2 1 C-1.34 0.67 -0.68 0.34 0 0 Z " fill="#5DC3BA" transform="translate(159,279)"/>
<path d="M0 0 C0.66 0.33 1.32 0.66 2 1 C-0.45023758 3.50804718 -2.91147598 6.0050076 -5.375 8.5 C-6.07367188 9.21542969 -6.77234375 9.93085937 -7.4921875 10.66796875 C-8.1625 11.34472656 -8.8328125 12.02148438 -9.5234375 12.71875 C-10.14138184 13.34716797 -10.75932617 13.97558594 -11.39599609 14.62304688 C-13 16 -13 16 -15 16 C-15.2475 16.5775 -15.495 17.155 -15.75 17.75 C-17.18299988 20.32939979 -18.78424676 22.06121592 -21 24 C-21.66 24 -22.32 24 -23 24 C-23.20625 24.556875 -23.4125 25.11375 -23.625 25.6875 C-25.55000774 28.92501302 -28.03850902 30.68231141 -31 33 C-30.34 31.02 -29.68 29.04 -29 27 C-28.34 27 -27.68 27 -27 27 C-27 26.34 -27 25.68 -27 25 C-26.34 25 -25.68 25 -25 25 C-24.67 24.01 -24.34 23.02 -24 22 C-23.34 22 -22.68 22 -22 22 C-21.67 21.01 -21.34 20.02 -21 19 C-20.34 19 -19.68 19 -19 19 C-19 18.34 -19 17.68 -19 17 C-18.01 17 -17.02 17 -16 17 C-15.67 16.01 -15.34 15.02 -15 14 C-14.34 14 -13.68 14 -13 14 C-12.773125 13.278125 -12.54625 12.55625 -12.3125 11.8125 C-9.71479687 6.2459933 -5.0474405 3.16932311 0 0 Z " fill="#7DC6CA" transform="translate(237,78)"/>
<path d="M0 0 C0.66 0 1.32 0 2 0 C4 3 4 3 4 6 C4.66 6 5.32 6 6 6 C6.2475 6.804375 6.495 7.60875 6.75 8.4375 C8.01078359 12.03073322 9.49168623 15.44121964 11.0625 18.90625 C11.74950217 20.44055485 12.38885239 21.99643424 13 23.5625 C13.93195499 25.83414029 14.93512103 28.03802715 16 30.25 C16.33 30.93578125 16.66 31.6215625 17 32.328125 C17.90089312 34.174628 17.90089312 34.174628 20 35 C21.69382187 38.59090237 23.21910455 42.09552275 24 46 C20.89330106 43.27551323 18.90888543 39.8854375 16.8125 36.375 C16.42102783 35.71983398 16.02955566 35.06466797 15.6262207 34.38964844 C9.24919689 23.50311191 3.93677906 11.99163621 0 0 Z " fill="#5DC1BA" transform="translate(11,266)"/>
<path d="M0 0 C12.21 0 24.42 0 37 0 C37 0.33 37 0.66 37 1 C35.81470703 1.03867187 35.81470703 1.03867187 34.60546875 1.078125 C26.3171626 1.49490839 18.56244829 2.76456434 10.48706055 4.62792969 C6.58098654 5.51836588 3.03917702 6.25194062 -1 6 C-0.01 5.67 0.98 5.34 2 5 C1.34 3.35 0.68 1.7 0 0 Z " fill="#EEFCFC" transform="translate(150,0)"/>
<path d="M0 0 C0.5534764 2.07553648 1 3.84365964 1 6 C1.7425 5.95875 2.485 5.9175 3.25 5.875 C6 6 6 6 7.875 7 C10.92273759 8.43422946 13.68189065 8.12761959 17 8 C17.33 8.99 17.66 9.98 18 11 C11.65143732 11.56683595 6.51634265 10.50209355 0.5 8.625 C-0.21865234 8.40368408 -0.93730469 8.18236816 -1.67773438 7.9543457 C-3.47460097 7.36864457 -5.24095961 6.69105158 -7 6 C-7.33 5.34 -7.66 4.68 -8 4 C-8.99 3.67 -9.98 3.34 -11 3 C-10.67 2.34 -10.34 1.68 -10 1 C-7.71484375 0.5859375 -7.71484375 0.5859375 -4.9375 0.375 C-4.01839844 0.30023438 -3.09929687 0.22546875 -2.15234375 0.1484375 C-1.44207031 0.09945313 -0.73179687 0.05046875 0 0 Z " fill="#4CC3B7" transform="translate(143,384)"/>
<path d="M0 0 C12.21 0 24.42 0 37 0 C37 1.32 37 2.64 37 4 C31.74632753 5.24889203 27.62528295 4.63548509 22.4375 3.625 C14.94826408 2.26199289 7.61033205 1.38992867 0 1 C0 0.67 0 0.34 0 0 Z " fill="#ECFBFB" transform="translate(211,0)"/>
<path d="M0 0 C0 2.97 0 5.94 0 9 C1.98 8.67 3.96 8.34 6 8 C6.59732819 10.76264289 7 13.16032769 7 16 C9.31 16 11.62 16 14 16 C14.33 16.66 14.66 17.32 15 18 C14.34 18.66 13.68 19.32 13 20 C5.73349146 17.78845392 0.75522516 12.81725734 -4 7 C-4 6.01 -4 5.02 -4 4 C-4.66 3.67 -5.32 3.34 -6 3 C-6 2.34 -6 1.68 -6 1 C-4 0 -4 0 0 0 Z " fill="#42C2B6" transform="translate(56,328)"/>
<path d="M0 0 C7.31373825 6.89581035 11.95053159 14.82955436 16 24 C16 24.66 16 25.32 16 26 C15.34 26 14.68 26 14 26 C13.773125 25.21625 13.54625 24.4325 13.3125 23.625 C12.21875 20.78125 12.21875 20.78125 9.375 19.6875 C8.199375 19.3471875 8.199375 19.3471875 7 19 C6.67 16.36 6.34 13.72 6 11 C5.38125 10.9175 4.7625 10.835 4.125 10.75 C2 10 2 10 0.75 8.3125 C-0.1758912 5.45766881 -0.135557 2.98225393 0 0 Z " fill="#7ACBC9" transform="translate(361,82)"/>
<path d="M0 0 C0.671875 1.796875 0.671875 1.796875 1 4 C-0.109375 5.703125 -0.109375 5.703125 -1.75 7.25 C-2.54664063 8.03117188 -2.54664063 8.03117188 -3.359375 8.828125 C-5 10 -5 10 -8 10 C-8.2475 10.598125 -8.495 11.19625 -8.75 11.8125 C-10.17002708 14.29754739 -11.72705959 15.31362486 -14 17 C-14.33 17.99 -14.66 18.98 -15 20 C-16.32 20 -17.64 20 -19 20 C-19.20625 20.53625 -19.4125 21.0725 -19.625 21.625 C-21.53250426 24.91978009 -24.04819384 27.59363628 -27 30 C-27.66 30 -28.32 30 -29 30 C-29 29.34 -29 28.68 -29 28 C-27.64453125 26.66796875 -27.64453125 26.66796875 -25.8125 25.1875 C-21.91555727 21.95052337 -18.27287689 18.66790766 -15.1875 14.625 C-12.69327418 11.63192902 -9.92883093 9.24002474 -6.97265625 6.71484375 C-4.52202077 4.58448934 -2.2596163 2.33022931 0 0 Z " fill="#DBF9FA" transform="translate(189,128)"/>
<path d="M0 0 C0 0.66 0 1.32 0 2 C-1.65 2.33 -3.3 2.66 -5 3 C-5 3.33 -5 3.66 -5 4 C-7.31 4 -9.62 4 -12 4 C-12 4.66 -12 5.32 -12 6 C-14.97 6 -17.94 6 -21 6 C-21 6.66 -21 7.32 -21 8 C-25.91502758 9.29235715 -30.77290102 9.11135517 -35.8125 9.0625 C-37.13797852 9.05573242 -37.13797852 9.05573242 -38.49023438 9.04882812 C-40.66018559 9.03709866 -42.83010172 9.01916495 -45 9 C-45 8.67 -45 8.34 -45 8 C-44.030625 7.89042969 -43.06125 7.78085937 -42.0625 7.66796875 C-28.4941437 6.08445291 -13.16182569 0 0 0 Z " fill="#D5FAF9" transform="translate(261,391)"/>
<path d="M0 0 C1.231394 3.69418201 0.64432764 6.2056261 0 10 C-0.78375 10.226875 -1.5675 10.45375 -2.375 10.6875 C-5.20103326 11.73533852 -5.20103326 11.73533852 -5.9375 14.375 C-7.39364214 17.97252764 -9.82286162 18.88190775 -13 21 C-14.41190564 23.60437233 -14.41190564 23.60437233 -15 26 C-15.99 25.34 -16.98 24.68 -18 24 C-17.3709375 23.18917969 -16.741875 22.37835938 -16.09375 21.54296875 C-10.60409748 14.44777055 -5.22999163 7.28984866 0 0 Z " fill="#E7FBFA" transform="translate(198,229)"/>
<path d="M0 0 C0.68707555 2.49064888 1 4.37886292 1 7 C4.80427492 9.2013866 4.80427492 9.2013866 9 10 C9.33 9.34 9.66 8.68 10 8 C11.07525194 10.65228812 12.09456151 13.28368454 13 16 C7.95243518 15.50138037 4.33138012 13.75096693 0.125 11.0625 C-0.46796875 10.70220703 -1.0609375 10.34191406 -1.671875 9.97070312 C-3.15535978 9.0426706 -4.58365359 8.02758664 -6 7 C-6 6.34 -6 5.68 -6 5 C-4.68 5 -3.36 5 -2 5 C-2.33 4.01 -2.66 3.02 -3 2 C-2.01 1.34 -1.02 0.68 0 0 Z " fill="#3EC3B4" transform="translate(95,360)"/>
<path d="M0 0 C-0.99 2.97 -1.98 5.94 -3 9 C-3.928125 8.938125 -4.85625 8.87625 -5.8125 8.8125 C-8.97943248 8.67622737 -8.97943248 8.67622737 -10.75 10.5 C-11.36875 11.2425 -11.36875 11.2425 -12 12 C-12.66 12 -13.32 12 -14 12 C-14 12.99 -14 13.98 -14 15 C-13.01 15.33 -12.02 15.66 -11 16 C-11.33 16.66 -11.66 17.32 -12 18 C-15.55060608 17.39132467 -18.83461241 16.75854866 -22 15 C-22.8125 12.375 -22.8125 12.375 -23 10 C-22.01 11.485 -22.01 11.485 -21 13 C-16.37558727 12.52018616 -14.25701498 10.79572683 -10.9375 7.625 C-2.87785016 0 -2.87785016 0 0 0 Z " fill="#4AC2B9" transform="translate(154,310)"/>
<path d="M0 0 C1.125 1.75 1.125 1.75 2 4 C1.07451225 6.69933926 0.57626463 7.71186768 -2 9 C-2.33 9.99 -2.66 10.98 -3 12 C-4 15 -4 15 -6 16 C-6.39085466 18.09508223 -6.39085466 18.09508223 -6.5 20.5 C-6.65625 22.96875 -6.65625 22.96875 -7 25 C-7.66 25.33 -8.32 25.66 -9 26 C-9.33 25.34 -9.66 24.68 -10 24 C-11.32 25.32 -12.64 26.64 -14 28 C-12.38362969 22.37025569 -9.75063033 17.44831978 -7 12.3125 C-6.54882812 11.45849609 -6.09765625 10.60449219 -5.6328125 9.72460938 C-3.85728642 6.38105212 -2.10203539 3.15305309 0 0 Z " fill="#7FC9CB" transform="translate(231,110)"/>
<path d="M0 0 C0.94616328 3.42984189 1 6.44175575 1 10 C0.236875 9.79375 -0.52625 9.5875 -1.3125 9.375 C-4.21885944 8.66608797 -4.21885944 8.66608797 -7 11 C-8.32 11 -9.64 11 -11 11 C-10.4409112 7.75728494 -9.5867822 6.06942576 -7 4 C-6.34 4 -5.68 4 -5 4 C-5 3.34 -5 2.68 -5 2 C-3.35 1.34 -1.7 0.68 0 0 Z " fill="#40C5B9" transform="translate(173,292)"/>
<path d="M0 0 C1.67640353 2.9680378 2.31784092 5.34271666 2.59765625 8.73046875 C2.71657227 10.05788086 2.71657227 10.05788086 2.83789062 11.41210938 C2.91201172 12.32798828 2.98613281 13.24386719 3.0625 14.1875 C3.21613857 16.01465621 3.37348687 17.8415056 3.53515625 19.66796875 C3.600979 20.47516357 3.66680176 21.2823584 3.73461914 22.11401367 C3.80838734 24.00894766 3.80838734 24.00894766 5 25 C5.21371448 26.82844606 5.37015998 28.66369108 5.5 30.5 C5.89072726 35.68488877 6.39750444 40.83575236 7 46 C6.67 46 6.34 46 6 46 C1.90128834 30.58884417 0.52179182 15.89131846 0 0 Z " fill="#66C7C0" transform="translate(0,204)"/>
<path d="M0 0 C3 2 3 2 4 5 C4.66 4.67 5.32 4.34 6 4 C6 14.23 6 24.46 6 35 C5.67 35 5.34 35 5 35 C4.89042969 33.8140625 4.78085937 32.628125 4.66796875 31.40625 C3.64446449 20.8025258 2.15825427 10.43156232 0 0 Z " fill="#E2FCFB" transform="translate(394,152)"/>
<path d="M0 0 C0.66 0 1.32 0 2 0 C0.53381955 5.04930593 -1.68478915 9.24442805 -4.3125 13.75 C-7.74891344 19.74006581 -11.0184583 25.76722941 -14 32 C-15.13643966 28.59068103 -14.86747764 27.99664544 -13.5625 24.8125 C-13.27503906 24.09707031 -12.98757812 23.38164062 -12.69140625 22.64453125 C-12.46324219 22.10183594 -12.23507813 21.55914062 -12 21 C-11.34 21 -10.68 21 -10 21 C-9.8453125 19.6696875 -9.8453125 19.6696875 -9.6875 18.3125 C-8.97307717 14.87028093 -7.93379427 12.90069141 -6 10 C-5.484375 9.071875 -4.96875 8.14375 -4.4375 7.1875 C-3.963125 6.465625 -3.48875 5.74375 -3 5 C-2.34 5 -1.68 5 -1 5 C-0.67 3.35 -0.34 1.7 0 0 Z " fill="#E3FAFB" transform="translate(231,106)"/>
<path d="M0 0 C0.66 1.32 1.32 2.64 2 4 C-9 15 -9 15 -12.0625 15.0625 C-13.031875 15.041875 -14.00125 15.02125 -15 15 C-12.06334264 10.96209613 -8.68524643 7.85773305 -4.90234375 4.6484375 C-3.18778129 3.16271808 -1.58115759 1.62548911 0 0 Z " fill="#5EC6C0" transform="translate(227,239)"/>
<path d="M0 0 C1.66611905 -0.042721 3.33382885 -0.04063832 5 0 C6 1 6 1 6.3125 4.1875 C5.85027123 9.826691 3.45325148 12.61763883 -0.5625 16.4375 C-1.7690625 17.2109375 -1.7690625 17.2109375 -3 18 C-3.99 17.67 -4.98 17.34 -6 17 C-5.0919838 15.86800647 -4.17316174 14.74467637 -3.25 13.625 C-2.48429687 12.68527344 -2.48429687 12.68527344 -1.703125 11.7265625 C0.08199481 9.91687682 1.67949644 8.99882545 4 8 C3.67 6.02 3.34 4.04 3 2 C2.01 2 1.02 2 0 2 C0 1.34 0 0.68 0 0 Z " fill="#72C8C5" transform="translate(288,172)"/>
<path d="M0 0 C1.80252503 2.70378755 2.56069823 4.44853168 3.4375 7.5 C3.69200928 8.38244385 3.94651855 9.2648877 4.20874023 10.17407227 C4.46985596 11.10662842 4.73097168 12.03918457 5 13 C5.2669165 13.94738037 5.53383301 14.89476074 5.80883789 15.87084961 C10.70327701 33.5171886 10.70327701 33.5171886 9 39 C5.19774062 30.24328144 3.81544708 20.45918616 3 11 C2.34 11 1.68 11 1 11 C0.67 7.37 0.34 3.74 0 0 Z " fill="#7BC9C6" transform="translate(388,133)"/>
<path d="M0 0 C3.76092895 4.17696091 5.70324374 8.47736408 7.75 13.625 C8.22373047 14.7696875 8.22373047 14.7696875 8.70703125 15.9375 C11 21.59547484 11 21.59547484 11 25 C10.01 25 9.02 25 8 25 C7.34 21.37 6.68 17.74 6 14 C4.68 13.67 3.36 13.34 2 13 C1.66127487 11.58461283 1.32925376 10.16762037 1 8.75 C0.814375 7.96109375 0.62875 7.1721875 0.4375 6.359375 C0 4 0 4 0 0 Z " fill="#78C6C7" transform="translate(377,108)"/>
<path d="M0 0 C-1.25103516 0.74443359 -1.25103516 0.74443359 -2.52734375 1.50390625 C-9.36707295 5.63281495 -15.82831078 9.89679445 -22 15 C-22.33 14.01 -22.66 13.02 -23 12 C-21.35 11.34 -19.7 10.68 -18 10 C-18 9.34 -18 8.68 -18 8 C-17.34 8 -16.68 8 -16 8 C-16 7.34 -16 6.68 -16 6 C-14.13671875 4.52734375 -14.13671875 4.52734375 -11.6875 2.9375 C-10.88699219 2.41027344 -10.08648437 1.88304687 -9.26171875 1.33984375 C-5.75898362 -0.73517896 -3.83581666 -1.19042586 0 0 Z " fill="#DFF9FA" transform="translate(99,28)"/>
<path d="M0 0 C1.45903258 0.30921884 2.91720722 0.62248799 4.375 0.9375 C5.18710938 1.11152344 5.99921875 1.28554688 6.8359375 1.46484375 C9 2 9 2 11 3 C12.32 3 13.64 3 15 3 C15.33 3.66 15.66 4.32 16 5 C16.66 5 17.32 5 18 5 C18 5.99 18 6.98 18 8 C19.32 8.33 20.64 8.66 22 9 C13.98904459 8.73296815 7.83065279 6.18044822 1 2 C0.67 1.34 0.34 0.68 0 0 Z " fill="#4FC3B5" transform="translate(109,377)"/>
<path d="M0 0 C0.66 0.33 1.32 0.66 2 1 C2 1.66 2 2.32 2 3 C3.98 2.34 5.96 1.68 8 1 C8 1.66 8 2.32 8 3 C7.01 3 6.02 3 5 3 C5 3.66 5 4.32 5 5 C-1.93 5 -8.86 5 -16 5 C-15.67 4.01 -15.34 3.02 -15 2 C-13.948125 2.185625 -12.89625 2.37125 -11.8125 2.5625 C-6.76383891 3.14185455 -4.22213603 2.81475735 0 0 Z " fill="#2DC5B2" transform="translate(224,393)"/>
<path d="M0 0 C0.66 0 1.32 0 2 0 C1.56208275 11.2197419 0.16754569 21.98505085 -2 33 C-2.33 33 -2.66 33 -3 33 C-3.02686553 31.02090602 -3.04633375 29.04171029 -3.0625 27.0625 C-3.07410156 25.96035156 -3.08570313 24.85820312 -3.09765625 23.72265625 C-3 21 -3 21 -2 20 C-1.77376479 18.51562191 -1.60587035 17.02222575 -1.46484375 15.52734375 C-1.37783203 14.62822266 -1.29082031 13.72910156 -1.20117188 12.80273438 C-1.11416016 11.85720703 -1.02714844 10.91167969 -0.9375 9.9375 C-0.84662109 8.98810547 -0.75574219 8.03871094 -0.66210938 7.06054688 C-0.43743502 4.70737865 -0.21691818 2.35389381 0 0 Z " fill="#6AC8C2" transform="translate(398,208)"/>
<path d="M0 0 C3.54875053 -0.19715281 6.09557968 -0.17831524 9 2 C9.33333333 3.66666667 9.66666667 5.33333333 10 7 C11.79927039 8.27489266 11.79927039 8.27489266 14 9 C15.33333333 9.66666667 16.66666667 10.33333333 18 11 C13.86793874 11.71861935 11.95387749 11.60178448 8.34375 9.32421875 C1.24959442 3.74878326 1.24959442 3.74878326 0 0 Z " fill="#4CC2B3" transform="translate(71,351)"/>
<path d="M0 0 C0.66 0 1.32 0 2 0 C0.94801209 4.99854082 -1.56565019 9.20660002 -3.9375 13.6875 C-4.39318359 14.56728516 -4.84886719 15.44707031 -5.31835938 16.35351562 C-5.75857422 17.18947266 -6.19878906 18.02542969 -6.65234375 18.88671875 C-7.05445068 19.65201904 -7.45655762 20.41731934 -7.87084961 21.20581055 C-9 23 -9 23 -11 24 C-10.37321829 20.33827525 -9.35548154 17.1181005 -7.9375 13.6875 C-7.57527344 12.80449219 -7.21304688 11.92148438 -6.83984375 11.01171875 C-6.42412109 10.01591797 -6.42412109 10.01591797 -6 9 C-5.01 9 -4.02 9 -3 9 C-2.87625 8.2575 -2.7525 7.515 -2.625 6.75 C-2.04513299 4.19858515 -1.26291261 2.2732427 0 0 Z " fill="#DFFBFC" transform="translate(210,144)"/>
<path d="M0 0 C0.66 0.33 1.32 0.66 2 1 C0.83348574 6.92863717 -0.75519358 12.38798394 -3 18 C-3.87840996 14.90279155 -3.99435406 13.09354597 -3 10 C-3.99 9.67 -4.98 9.34 -6 9 C-5.67 7.35 -5.34 5.7 -5 4 C-4.34 4 -3.68 4 -3 4 C-3 4.66 -3 5.32 -3 6 C-2.34 6 -1.68 6 -1 6 C-0.67 4.02 -0.34 2.04 0 0 Z " fill="#61C9C3" transform="translate(391,252)"/>
<path d="M0 0 C0.99 0.33 1.98 0.66 3 1 C1.71451591 2.33929505 0.42141845 3.67128643 -0.875 5 C-1.59429687 5.7425 -2.31359375 6.485 -3.0546875 7.25 C-5 9 -5 9 -7 9 C-7.20625 9.5775 -7.4125 10.155 -7.625 10.75 C-9.49750888 13.81410544 -11.96958519 15.15539968 -15 17 C-14.67 15.35 -14.34 13.7 -14 12 C-12.68 12 -11.36 12 -10 12 C-10 11.01 -10 10.02 -10 9 C-8.3203125 7.24609375 -8.3203125 7.24609375 -6.125 5.4375 C-5.40570313 4.83808594 -4.68640625 4.23867187 -3.9453125 3.62109375 C-2.98238281 2.81865234 -2.98238281 2.81865234 -2 2 C-1.34 1.34 -0.68 0.68 0 0 Z " fill="#DBFBFA" transform="translate(223,240)"/>
<path d="M0 0 C0.33 1.32 0.66 2.64 1 4 C-2.75 7 -2.75 7 -5 7 C-5.268125 7.763125 -5.53625 8.52625 -5.8125 9.3125 C-6.98195076 11.95915172 -7.69900082 13.29555616 -10 15 C-12.6875 15.6875 -12.6875 15.6875 -15 16 C-7.94975689 7.63371151 -7.94975689 7.63371151 -5 5 C-4.34 5 -3.68 5 -3 5 C-2.690625 4.360625 -2.38125 3.72125 -2.0625 3.0625 C-1 1 -1 1 0 0 Z " fill="#D8F6F6" transform="translate(131,185)"/>
<path d="M0 0 C0.66 0.66 1.32 1.32 2 2 C1.03900391 2.85271484 1.03900391 2.85271484 0.05859375 3.72265625 C-5.11530342 8.34138114 -10.16792647 13.02392428 -15 18 C-15.33 17.34 -15.66 16.68 -16 16 C-15.09373216 14.7010161 -14.17450463 13.41106833 -13.25 12.125 C-12.73953125 11.40570313 -12.2290625 10.68640625 -11.703125 9.9453125 C-9.90840483 7.89537983 -8.39679466 7.19839733 -6 6 C-5.67 5.01 -5.34 4.02 -5 3 C-3.35 2.67 -1.7 2.34 0 2 C0 1.34 0 0.68 0 0 Z " fill="#6CC5C2" transform="translate(150,164)"/>
<path d="M0 0 C0.66 0.33 1.32 0.66 2 1 C0.22318339 9.33737024 0.22318339 9.33737024 -3 12 C-3.33 12.99 -3.66 13.98 -4 15 C-4.66 15 -5.32 15 -6 15 C-6.99 17.475 -6.99 17.475 -8 20 C-8.66 19.67 -9.32 19.34 -10 19 C-9.36191406 17.87980469 -8.72382813 16.75960937 -8.06640625 15.60546875 C-7.23163275 14.13289077 -6.39700491 12.66023021 -5.5625 11.1875 C-5.14162109 10.44951172 -4.72074219 9.71152344 -4.28710938 8.95117188 C-3.68286133 7.88286133 -3.68286133 7.88286133 -3.06640625 6.79296875 C-2.5086853 5.81106567 -2.5086853 5.81106567 -1.93969727 4.80932617 C-0.8645343 2.85463588 -0.8645343 2.85463588 0 0 Z " fill="#79C6C6" transform="translate(212,144)"/>
<path d="M0 0 C0.763125 0.495 1.52625 0.99 2.3125 1.5 C7.28101775 3.52109197 11.70651036 3.25431356 17 3 C17 3.66 17 4.32 17 5 C10.07 5 3.14 5 -4 5 C-3.67 4.34 -3.34 3.68 -3 3 C-2.34 3 -1.68 3 -1 3 C-0.67 2.01 -0.34 1.02 0 0 Z " fill="#2DC6B2" transform="translate(175,393)"/>
<path d="M0 0 C3 1 3 1 4.125 2.875 C4.81761182 4.55705727 5.4247585 6.27427551 6 8 C5.01 9.485 5.01 9.485 4 11 C2.35 11.33 0.7 11.66 -1 12 C-0.67 8.04 -0.34 4.08 0 0 Z " fill="#3FC5BC" transform="translate(130,307)"/>
<path d="M0 0 C0.33 0.66 0.66 1.32 1 2 C1.66 2.33 2.32 2.66 3 3 C2.01 3.66 1.02 4.32 0 5 C-0.57748803 6.96361864 -0.57748803 6.96361864 -0.6875 9.125 C-0.8421875 11.043125 -0.8421875 11.043125 -1 13 C-4.28696233 13.79953138 -5.71023192 14.09658936 -9 13 C-8.51789063 12.31292969 -8.03578125 11.62585938 -7.5390625 10.91796875 C-6.90742188 10.01691406 -6.27578125 9.11585938 -5.625 8.1875 C-4.99851562 7.29417969 -4.37203125 6.40085937 -3.7265625 5.48046875 C-2.46449761 3.66732122 -1.22541192 1.83811789 0 0 Z " fill="#EAFAF9" transform="translate(369,306)"/>
<path d="M0 0 C0.33 0.99 0.66 1.98 1 3 C1.7425 2.690625 2.485 2.38125 3.25 2.0625 C5.5123958 1.18839253 7.64974079 0.55743327 10 0 C9.0919838 1.13199353 8.17316174 2.25532363 7.25 3.375 C6.73953125 4.00148438 6.2290625 4.62796875 5.703125 5.2734375 C3.91800519 7.08312318 2.32050356 8.00117455 0 9 C-1.125 6.1875 -1.125 6.1875 -2 3 C-1.34 2.01 -0.68 1.02 0 0 Z " fill="#E7FBFA" transform="translate(155,297)"/>
<path d="M0 0 C1.125 3.75 1.125 3.75 0 6 C-0.66 6 -1.32 6 -2 6 C-2.33 7.32 -2.66 8.64 -3 10 C-3.66 10 -4.32 10 -5 10 C-5.268125 10.639375 -5.53625 11.27875 -5.8125 11.9375 C-7 14 -7 14 -10 15 C-10 15.66 -10 16.32 -10 17 C-10.66 16.67 -11.32 16.34 -12 16 C-11.34 15.01 -10.68 14.02 -10 13 C-9.34 13 -8.68 13 -8 13 C-7.86271484 12.15695312 -7.86271484 12.15695312 -7.72265625 11.296875 C-6.81299986 8.40564279 -5.3388903 6.60080982 -3.4375 4.25 C-2.79683594 3.45078125 -2.15617188 2.6515625 -1.49609375 1.828125 C-1.00238281 1.22484375 -0.50867188 0.6215625 0 0 Z " fill="#DCF7F9" transform="translate(159,283)"/>
<path d="M0 0 C0.66 0.66 1.32 1.32 2 2 C0.04761147 4.00612399 -1.91137822 6.00492433 -3.875 8 C-4.43058594 8.57234375 -4.98617187 9.1446875 -5.55859375 9.734375 C-7.00134404 11.19450782 -8.4974374 12.60149298 -10 14 C-10.66 14 -11.32 14 -12 14 C-12.33 14.66 -12.66 15.32 -13 16 C-12.625 13.5625 -12.625 13.5625 -12 11 C-11.34 10.67 -10.68 10.34 -10 10 C-9.34786708 7.97536745 -9.34786708 7.97536745 -9 6 C-7.35 6 -5.7 6 -4 6 C-3.67 5.01 -3.34 4.02 -3 3 C-1.4375 1.3125 -1.4375 1.3125 0 0 Z " fill="#DDFAFA" transform="translate(180,280)"/>
<path d="M0 0 C0.66 0.33 1.32 0.66 2 1 C-7.65517241 12.82758621 -7.65517241 12.82758621 -14 16 C-13.67 14.68 -13.34 13.36 -13 12 C-12.34 12 -11.68 12 -11 12 C-10.896875 11.401875 -10.79375 10.80375 -10.6875 10.1875 C-9.89496146 7.66578648 -9.08408591 6.60314301 -7 5 C-6.01 5 -5.02 5 -4 5 C-3.896875 4.360625 -3.79375 3.72125 -3.6875 3.0625 C-3.460625 2.381875 -3.23375 1.70125 -3 1 C-2.01 0.67 -1.02 0.34 0 0 Z " fill="#6BC2C0" transform="translate(132,182)"/>
<path d="M0 0 C0.99 0.33 1.98 0.66 3 1 C1.95199219 2.35544922 1.95199219 2.35544922 0.8828125 3.73828125 C-0.03650974 4.92964783 -0.95577774 6.12105627 -1.875 7.3125 C-2.33519531 7.90740234 -2.79539063 8.50230469 -3.26953125 9.11523438 C-5.26247149 11.70028005 -7.18866045 14.28299068 -9 17 C-9.75 14.75 -9.75 14.75 -10 12 C-8.3125 10.125 -8.3125 10.125 -6 8 C-5.2560394 6.79206398 -4.54879757 5.56093247 -3.875 4.3125 C-2 1 -2 1 0 0 Z " fill="#5FC3BC" transform="translate(159,279)"/>
<path d="M0 0 C0.33 0.66 0.66 1.32 1 2 C0.67 2.99 0.34 3.98 0 5 C-2.5625 6.1875 -2.5625 6.1875 -5 7 C-5 7.99 -5 8.98 -5 10 C-5.66 10 -6.32 10 -7 10 C-7 10.66 -7 11.32 -7 12 C-8.96466413 13.06775224 -10.96855359 14.06553465 -13 15 C-13.66 14.67 -14.32 14.34 -15 14 C-10.20922972 9.0744893 -5.22325977 4.46351289 0 0 Z " fill="#69C6C0" transform="translate(265,204)"/>
<path d="M0 0 C1.65 0 3.3 0 5 0 C6.63159097 4.69082405 7.26975579 7.2384158 6 12 C5.34 10.68 4.68 9.36 4 8 C3.34 8 2.68 8 2 8 C0.23537317 4.91190305 0 3.76687864 0 0 Z " fill="#3BC7B9" transform="translate(33,304)"/>
<path d="M0 0 C2.64128493 3.9619274 4.29187738 8.18049487 6.125 12.5625 C6.49753906 13.43841797 6.87007812 14.31433594 7.25390625 15.21679688 C7.78177734 16.47266602 7.78177734 16.47266602 8.3203125 17.75390625 C8.64273926 18.52033447 8.96516602 19.2867627 9.29736328 20.07641602 C10 22 10 22 10 24 C9.34 24 8.68 24 8 24 C8 23.01 8 22.02 8 21 C7.34 21 6.68 21 6 21 C0.44419134 7.55125285 0.44419134 7.55125285 0 0 Z " fill="#D4FAF8" transform="translate(10,264)"/>
<path d="M0 0 C-1.375 1.5 -1.375 1.5 -3 3 C-3.66 3 -4.32 3 -5 3 C-5.33 3.99 -5.66 4.98 -6 6 C-6.66 6 -7.32 6 -8 6 C-8.28875 6.639375 -8.5775 7.27875 -8.875 7.9375 C-10 10 -10 10 -12 11 C-12.25 8.75 -12.25 8.75 -12 6 C-10.125 3.6875 -10.125 3.6875 -8 2 C-7.34 2 -6.68 2 -6 2 C-6 1.34 -6 0.68 -6 0 C-3 -1 -3 -1 0 0 Z " fill="#79C7C9" transform="translate(165,153)"/>
<path d="M0 0 C1.093125 0.14308594 2.18625 0.28617187 3.3125 0.43359375 C8.53144353 1.08596169 13.76350809 1.57496455 19 2.0625 C19.96550781 2.15337891 20.93101562 2.24425781 21.92578125 2.33789062 C24.28375445 2.55968018 26.64182579 2.78035986 29 3 C29 3.33 29 3.66 29 4 C25.29181703 4.08756305 21.58390237 4.14058015 17.875 4.1875 C16.30492187 4.22520508 16.30492187 4.22520508 14.703125 4.26367188 C8.94528536 4.31833491 4.86485368 4.20676341 0 1 C0 0.67 0 0.34 0 0 Z " fill="#C5F9F6" transform="translate(160,396)"/>
<path d="M0 0 C0.33 0 0.66 0 1 0 C0.27247184 9.03666554 -0.83834968 18.0113077 -2 27 C-2.33 27 -2.66 27 -3 27 C-3.09579384 18.92138585 -3.12513633 11.01659634 -2 3 C-1.34 3 -0.68 3 0 3 C0 2.01 0 1.02 0 0 Z " fill="#DDFCFB" transform="translate(3,157)"/>
<path d="M0 0 C0.5534764 2.07553648 1 3.84365964 1 6 C-0.43836751 5.88541307 -1.87570966 5.75790884 -3.3125 5.625 C-4.11300781 5.55539062 -4.91351563 5.48578125 -5.73828125 5.4140625 C-8 5 -8 5 -11 3 C-10.67 2.34 -10.34 1.68 -10 1 C-7.71484375 0.5859375 -7.71484375 0.5859375 -4.9375 0.375 C-4.01839844 0.30023438 -3.09929687 0.22546875 -2.15234375 0.1484375 C-1.44207031 0.09945313 -0.73179687 0.05046875 0 0 Z " fill="#2DC6B6" transform="translate(143,384)"/>
<path d="M0 0 C0.66 0.33 1.32 0.66 2 1 C0.92781239 2.63237552 -0.15821244 4.25566803 -1.25 5.875 C-2.15492188 7.23238281 -2.15492188 7.23238281 -3.078125 8.6171875 C-4.99015996 10.98779995 -6.11771203 12.089197 -9 13 C-9.99 12.67 -10.98 12.34 -12 12 C-10.54782324 10.49403892 -9.08807139 8.99537896 -7.625 7.5 C-6.40683594 6.24703125 -6.40683594 6.24703125 -5.1640625 4.96875 C-3 3 -3 3 -1 3 C-0.67 2.01 -0.34 1.02 0 0 Z " fill="#70C6C1" transform="translate(246,221)"/>
<path d="M0 0 C0.33 0 0.66 0 1 0 C1.04898438 0.92039063 1.09796875 1.84078125 1.1484375 2.7890625 C1.67017963 11.62269655 2.61185871 20.25336217 4 29 C2 28 2 28 0.8828125 25.6484375 C-0.33746852 20.60532922 -0.21166255 15.79142128 -0.125 10.625 C-0.11597656 9.60277344 -0.10695312 8.58054688 -0.09765625 7.52734375 C-0.0742043 5.01798478 -0.04138355 2.50911664 0 0 Z " fill="#CDF9F8" transform="translate(0,211)"/>
<path d="M0 0 C0.33 1.32 0.66 2.64 1 4 C0.278125 4.391875 -0.44375 4.78375 -1.1875 5.1875 C-4.23751786 7.15306706 -6.4725159 9.40770862 -9 12 C-10.31175986 13.02813611 -11.6369893 14.04084432 -13 15 C-13.66 14.67 -14.32 14.34 -15 14 C-13.71034824 12.62437146 -12.37310707 11.29233607 -11 10 C-10.34 10 -9.68 10 -9 10 C-8.67 9.01 -8.34 8.02 -8 7 C-6.15234375 5.17578125 -6.15234375 5.17578125 -3.9375 3.3125 C-2.83728516 2.37857422 -2.83728516 2.37857422 -1.71484375 1.42578125 C-1.14894531 0.95527344 -0.58304687 0.48476562 0 0 Z " fill="#6EC6C1" transform="translate(281,189)"/>
<path d="M0 0 C0.99 0.33 1.98 0.66 3 1 C3 3.31 3 5.62 3 8 C3.66 8.33 4.32 8.66 5 9 C4.67 9.99 4.34 10.98 4 12 C3.34 12 2.68 12 2 12 C2 12.99 2 13.98 2 15 C1.34 15 0.68 15 0 15 C0 10.05 0 5.1 0 0 Z " fill="#3BC6BB" transform="translate(352,312)"/>
<path d="M0 0 C0 3.50481678 -0.49237247 3.92840405 -2.75 6.4375 C-3.2965625 7.04851562 -3.843125 7.65953125 -4.40625 8.2890625 C-6.22565314 10.24224529 -8.07844733 12.14707421 -10 14 C-10.66 14.66 -11.32 15.32 -12 16 C-12.99 15.67 -13.98 15.34 -15 15 C-10 10 -5 5 0 0 Z " fill="#DBF8F9" transform="translate(221,96)"/>
<path d="M0 0 C1.32 0.33 2.64 0.66 4 1 C-2.435 6.94 -2.435 6.94 -9 13 C-9.33 11.68 -9.66 10.36 -10 9 C-8.68 8.67 -7.36 8.34 -6 8 C-6 7.01 -6 6.02 -6 5 C-5.01 5 -4.02 5 -3 5 C-3 4.34 -3 3.68 -3 3 C-2.01 3 -1.02 3 0 3 C0 2.01 0 1.02 0 0 Z " fill="#D9F8F9" transform="translate(258,207)"/>
<path d="M0 0 C0.55945313 0.17015625 1.11890625 0.3403125 1.6953125 0.515625 C9.10785935 2.75607324 16.55068688 4.88542553 24 7 C24 7.33 24 7.66 24 8 C21.36 8 18.72 8 16 8 C16 7.34 16 6.68 16 6 C15.43152344 5.87882812 14.86304688 5.75765625 14.27734375 5.6328125 C9.45754536 4.58677946 4.7267066 3.40795516 0 2 C0 1.34 0 0.68 0 0 Z " fill="#D8FBF9" transform="translate(128,387)"/>
<path d="M0 0 C0 4.58852164 -2.9046421 6.81744892 -6 10 C-7.64864545 11.35555293 -9.31003995 12.69631653 -11 14 C-11.33 14.66 -11.66 15.32 -12 16 C-12.99 15.67 -13.98 15.34 -15 15 C-10.05 10.05 -5.1 5.1 0 0 Z " fill="#DDFAFB" transform="translate(205,112)"/>
<path d="M0 0 C2.1875 0.3125 2.1875 0.3125 4 1 C4.75 3.25 4.75 3.25 5 6 C3.0625 8.3125 3.0625 8.3125 1 10 C1.33 7.69 1.66 5.38 2 3 C1.34 3 0.68 3 0 3 C-0.33 3.99 -0.66 4.98 -1 6 C-1.66 5.01 -2.32 4.02 -3 3 C-1.75 1.4375 -1.75 1.4375 0 0 Z " fill="#DBF8F9" transform="translate(245,72)"/>
<path d="M0 0 C0.66 0 1.32 0 2 0 C2.66 0.66 3.32 1.32 4 2 C4.99 2.33 5.98 2.66 7 3 C8.1875 5.0625 8.1875 5.0625 9 7 C8.34 7.66 7.68 8.32 7 9 C3.17475764 7.549046 1.80909034 5.61818068 0 2 C0 1.34 0 0.68 0 0 Z " fill="#47C4B7" transform="translate(40,318)"/>
<path d="M0 0 C2.68234235 2.42457972 4.36856725 5.07510397 6.1875 8.1875 C6.71730469 9.08855469 7.24710938 9.98960937 7.79296875 10.91796875 C8.19128906 11.60503906 8.58960938 12.29210937 9 13 C8.01 13.495 8.01 13.495 7 14 C7 13.34 7 12.68 7 12 C5.68 11.34 4.36 10.68 3 10 C3 9.34 3 8.68 3 8 C2.34 8 1.68 8 1 8 C0.67 5.36 0.34 2.72 0 0 Z " fill="#D2F9F7" transform="translate(25,298)"/>
<path d="M0 0 C0.66 0.33 1.32 0.66 2 1 C1.28972656 1.67546875 0.57945313 2.3509375 -0.15234375 3.046875 C-1.07144531 3.93890625 -1.99054688 4.8309375 -2.9375 5.75 C-4.31228516 7.07257813 -4.31228516 7.07257813 -5.71484375 8.421875 C-7.82429343 10.80176695 -8.66067071 11.9099375 -9 15 C-8.34 15.33 -7.68 15.66 -7 16 C-8.32 16 -9.64 16 -11 16 C-10.67 13.69 -10.34 11.38 -10 9 C-9.34 9 -8.68 9 -8 9 C-7.67 8.01 -7.34 7.02 -7 6 C-6.34 6 -5.68 6 -5 6 C-5 5.34 -5 4.68 -5 4 C-3.37373596 2.61767557 -1.7074998 1.28062485 0 0 Z " fill="#68C2BE" transform="translate(116,198)"/>
<path d="M0 0 C-0.0625 1.75 -0.0625 1.75 -1 4 C-5.09149182 6.83257126 -7.89829756 8.61838818 -13 8 C-3.28571429 0 -3.28571429 0 0 0 Z " fill="#D7F9F8" transform="translate(309,368)"/>
<path d="M0 0 C0.671875 1.796875 0.671875 1.796875 1 4 C-0.109375 5.703125 -0.109375 5.703125 -1.75 7.25 C-2.54664063 8.03117188 -2.54664063 8.03117188 -3.359375 8.828125 C-5 10 -5 10 -8 10 C-6.34908222 5.70761377 -3.26245434 3.1206085 0 0 Z " fill="#E5FDFD" transform="translate(189,128)"/>
<path d="M0 0 C-0.625 1.875 -0.625 1.875 -2 4 C-5.19201574 5.35830457 -7.52710626 6 -11 6 C-10.34 4.35 -9.68 2.7 -9 1 C-8.34 1 -7.68 1 -7 1 C-7 1.66 -7 2.32 -7 3 C-6.34 3 -5.68 3 -5 3 C-5 2.34 -5 1.68 -5 1 C-3 0 -3 0 0 0 Z " fill="#74CBCF" transform="translate(96,34)"/>
<path d="M0 0 C2.97 0.33 5.94 0.66 9 1 C9 1.66 9 2.32 9 3 C6.36 3.66 3.72 4.32 1 5 C0.67 3.35 0.34 1.7 0 0 Z " fill="#2BC6B7" transform="translate(256,385)"/>
<path d="M0 0 C1.32 0 2.64 0 4 0 C3.01 2.97 2.02 5.94 1 9 C-0.32 8.34 -1.64 7.68 -3 7 C-2.34 7 -1.68 7 -1 7 C-1.309375 5.824375 -1.309375 5.824375 -1.625 4.625 C-1.74875 3.75875 -1.8725 2.8925 -2 2 C-1.34 1.34 -0.68 0.68 0 0 Z " fill="#39C8B9" transform="translate(363,304)"/>
<path d="M0 0 C-1.48781815 3.78717347 -3.61988409 5.77407001 -7 8 C-7.99 7.67 -8.98 7.34 -10 7 C-3.18421053 0 -3.18421053 0 0 0 Z " fill="#65C6C0" transform="translate(292,182)"/>
<path d="M0 0 C5.00099548 2.65848126 9.7045025 5.25876024 14 9 C9.43545749 8.45660208 6.0271824 7.20536179 2 5 C2 4.01 2 3.02 2 2 C1.34 2 0.68 2 0 2 C0 1.34 0 0.68 0 0 Z " fill="#D1F9F8" transform="translate(90,367)"/>
<path d="M0 0 C0.66 0 1.32 0 2 0 C1.814375 0.5775 1.62875 1.155 1.4375 1.75 C0.95976454 4.20692525 1.24270636 5.64397534 2 8 C-0.97 7.505 -0.97 7.505 -4 7 C-4 6.01 -4 5.02 -4 4 C-2.68 3.34 -1.36 2.68 0 2 C0 1.34 0 0.68 0 0 Z " fill="#3FC7BE" transform="translate(172,294)"/>
<path d="M0 0 C2.31 0.66 4.62 1.32 7 2 C7 2.99 7 3.98 7 5 C8.32 5.33 9.64 5.66 11 6 C11 6.66 11 7.32 11 8 C11.66 8 12.32 8 13 8 C12.67 8.99 12.34 9.98 12 11 C9.99702215 9.35767739 7.99756092 7.71138756 6 6.0625 C5.42765625 5.59392578 4.8553125 5.12535156 4.265625 4.64257812 C2.82502935 3.45065672 1.41025129 2.22767412 0 1 C0 0.67 0 0.34 0 0 Z " fill="#DDF7F9" transform="translate(323,42)"/>
<path d="M0 0 C0.66 0 1.32 0 2 0 C0.22054913 4.04420651 -2.39529673 7.46078487 -5 11 C-5.66 10.67 -6.32 10.34 -7 10 C-6.67 8.68 -6.34 7.36 -6 6 C-4.68 5.67 -3.36 5.34 -2 5 C-2 4.01 -2 3.02 -2 2 C-1.34 2 -0.68 2 0 2 C0 1.34 0 0.68 0 0 Z " fill="#66C6C3" transform="translate(195,230)"/>
<path d="M0 0 C0.33 1.32 0.66 2.64 1 4 C-0.3125 5.75 -0.3125 5.75 -2 7 C-2.66 7 -3.32 7 -4 7 C-4 7.66 -4 8.32 -4 9 C-5.32 8.67 -6.64 8.34 -8 8 C-5.36 5.36 -2.72 2.72 0 0 Z " fill="#D4F4F4" transform="translate(140,176)"/>
<path d="M0 0 C0.99 0.33 1.98 0.66 3 1 C3 2.98 3 4.96 3 7 C2.01 7.495 2.01 7.495 1 8 C0.67 7.34 0.34 6.68 0 6 C-1.32 7.32 -2.64 8.64 -4 10 C-2.8905928 6.51329166 -1.73662334 3.22515763 0 0 Z " fill="#73C6C8" transform="translate(221,128)"/>
<path d="M0 0 C0.66 0 1.32 0 2 0 C2 1.32 2 2.64 2 4 C2.99 4.33 3.98 4.66 5 5 C5.33 8.3 5.66 11.6 6 15 C3.75848118 12.75848118 3.03698675 10.9932888 1.875 8.0625 C1.52179688 7.18722656 1.16859375 6.31195313 0.8046875 5.41015625 C0 3 0 3 0 0 Z " fill="#DBFAF9" transform="translate(385,123)"/>
<path d="M0 0 C4.50586178 2.19204087 6.13081444 4.37622519 8 9 C8 9.66 8 10.32 8 11 C7.34 11 6.68 11 6 11 C5.6596875 9.824375 5.6596875 9.824375 5.3125 8.625 C4.21875 5.78125 4.21875 5.78125 1.375 4.6875 C0.59125 4.460625 -0.1925 4.23375 -1 4 C-0.67 2.68 -0.34 1.36 0 0 Z " fill="#75C9C6" transform="translate(369,97)"/>
<path d="M0 0 C-1.84403511 1.97068588 -3.29802947 2.94648579 -6.01757812 3.15380859 C-8.43913566 3.07039484 -10.83641838 2.900574 -13.25 2.6875 C-14.09046875 2.62626953 -14.9309375 2.56503906 -15.796875 2.50195312 C-17.86570599 2.34914175 -19.93305508 2.17649838 -22 2 C-22 1.67 -22 1.34 -22 1 C-14.65623924 0.42240084 -7.36901413 -0.14738028 0 0 Z " fill="#97D1D9" transform="translate(195,0)"/>
<path d="M0 0 C1.32 0 2.64 0 4 0 C4.33 0.66 4.66 1.32 5 2 C5.66 2 6.32 2 7 2 C7 2.99 7 3.98 7 5 C8.32 5.33 9.64 5.66 11 6 C8.03 5.67 5.06 5.34 2 5 C1.34 3.35 0.68 1.7 0 0 Z " fill="#40C4B6" transform="translate(120,380)"/>
<path d="M0 0 C0.66 0.33 1.32 0.66 2 1 C1.24266726 2.3410477 0.46867264 3.67269781 -0.3125 5 C-0.74175781 5.7425 -1.17101562 6.485 -1.61328125 7.25 C-2.07089844 7.8275 -2.52851563 8.405 -3 9 C-6 9 -6 9 -8 8 C-6.71034824 6.62437146 -5.37310707 5.29233607 -4 4 C-3.34 4 -2.68 4 -2 4 C-2 3.34 -2 2.68 -2 2 C-1.34 2 -0.68 2 0 2 C0 1.34 0 0.68 0 0 Z " fill="#61C9BF" transform="translate(187,276)"/>
<path d="M0 0 C0.33 0.99 0.66 1.98 1 3 C0.51789063 3.39832031 0.03578125 3.79664062 -0.4609375 4.20703125 C-1.09257812 4.73683594 -1.72421875 5.26664062 -2.375 5.8125 C-3.00148437 6.33457031 -3.62796875 6.85664062 -4.2734375 7.39453125 C-6.2221048 9.08225739 -6.2221048 9.08225739 -8 12 C-8.99 12 -9.98 12 -11 12 C-11 11.34 -11 10.68 -11 10 C-9.35546875 8.37890625 -9.35546875 8.37890625 -7.1875 6.5625 C-4.68897282 4.45536324 -2.2757944 2.34758602 0 0 Z " fill="#D8F6F8" transform="translate(233,84)"/>
<path d="M0 0 C0.66 0 1.32 0 2 0 C0.49087042 4.98012761 -2.55661849 8.24259942 -6 12 C-6.33 11.01 -6.66 10.02 -7 9 C-6.07421875 7.17578125 -6.07421875 7.17578125 -4.6875 5.3125 C-4.23761719 4.68988281 -3.78773437 4.06726563 -3.32421875 3.42578125 C-2.88722656 2.95527344 -2.45023438 2.48476562 -2 2 C-1.34 2 -0.68 2 0 2 C0 1.34 0 0.68 0 0 Z " fill="#DEFBFB" transform="translate(41,75)"/>
<path d="M0 0 C0.99 0.33 1.98 0.66 3 1 C2.67 2.65 2.34 4.3 2 6 C0.35 6 -1.3 6 -3 6 C-3.33 4.68 -3.66 3.36 -4 2 C-2.68 2 -1.36 2 0 2 C0 1.34 0 0.68 0 0 Z " fill="#69C8CE" transform="translate(236,106)"/>
<path d="M0 0 C1.6045556 0.14148989 3.20863767 0.28835686 4.8125 0.4375 C5.70582031 0.51871094 6.59914063 0.59992187 7.51953125 0.68359375 C10 1 10 1 13 2 C13 2.99 13 3.98 13 5 C8.39146203 4.27991594 4.32762591 2.68704061 0 1 C0 0.67 0 0.34 0 0 Z " fill="#E1F9FA" transform="translate(264,10)"/>
<path d="M0 0 C1.8871875 0.0309375 1.8871875 0.0309375 3.8125 0.0625 C0.64683427 2.17294382 -1.69947415 2.81802077 -5.375 3.6875 C-6.46167969 3.94789062 -7.54835937 4.20828125 -8.66796875 4.4765625 C-9.49941406 4.66992188 -10.33085937 4.86328125 -11.1875 5.0625 C-7.60998157 1.23825617 -5.24114904 -0.08592048 0 0 Z " fill="#E4FBFC" transform="translate(145.1875,5.9375)"/>
<path d="M0 0 C1 2 1 2 -0.125 5.5625 C-1.053125 7.2640625 -1.053125 7.2640625 -2 9 C-4.6171875 9.71484375 -4.6171875 9.71484375 -7 10 C-6.02223933 8.51990357 -5.0427506 7.04094856 -4.0625 5.5625 C-3.51722656 4.73878906 -2.97195313 3.91507812 -2.41015625 3.06640625 C-1 1 -1 1 0 0 Z " fill="#D9F8F7" transform="translate(359,320)"/>
<path d="M0 0 C1.65 0.33 3.3 0.66 5 1 C1.67692308 5.8 1.67692308 5.8 -1.75 6.8125 C-2.4925 6.874375 -3.235 6.93625 -4 7 C-2.79618552 4.50638429 -1.54571278 2.31856917 0 0 Z " fill="#60C9CB" transform="translate(181,128)"/>
<path d="M0 0 C1 4 1 4 0 6 C-0.99 6 -1.98 6 -3 6 C-3 6.66 -3 7.32 -3 8 C-4.32 7.67 -5.64 7.34 -7 7 C-4.69 4.69 -2.38 2.38 0 0 Z " fill="#DFF8FA" transform="translate(241,76)"/>
<path d="M0 0 C0.33 0.99 0.66 1.98 1 3 C0.3503125 3.5878125 0.3503125 3.5878125 -0.3125 4.1875 C-2.14560261 6.02238902 -2.14560261 6.02238902 -3.5625 8.6875 C-4.2740625 9.8321875 -4.2740625 9.8321875 -5 11 C-5.66 11 -6.32 11 -7 11 C-5.20974068 7.12110481 -3.03770253 3.03770253 0 0 Z " fill="#D8F8F7" transform="translate(167,272)"/>
<path d="M0 0 C1.09280823 3.98919427 1.62719956 7.88654833 1 12 C-1 15 -1 15 -3 17 C-2.48517081 11.147205 -1.54642808 5.6702363 0 0 Z " fill="#D6F7F7" transform="translate(395,242)"/>
<path d="M0 0 C0.33 0 0.66 0 1 0 C1.26785714 8.03571429 1.26785714 8.03571429 -1 12 C-1.22162329 10.37675914 -1.42689803 8.751279 -1.625 7.125 C-1.74101563 6.22007812 -1.85703125 5.31515625 -1.9765625 4.3828125 C-1.98429688 3.59648437 -1.99203125 2.81015625 -2 2 C-1.34 1.34 -0.68 0.68 0 0 Z " fill="#5DC5CA" transform="translate(7,168)"/>
<path d="M0 0 C0.99 0 1.98 0 3 0 C3.33 1.32 3.66 2.64 4 4 C3.34 4 2.68 4 2 4 C1.67 4.66 1.34 5.32 1 6 C-1.5625 6.625 -1.5625 6.625 -4 7 C-2.79618552 4.50638429 -1.54571278 2.31856917 0 0 Z " fill="#83D0D2" transform="translate(33,89)"/>
<path d="M0 0 C0.33 0.66 0.66 1.32 1 2 C3.02463255 2.65213292 3.02463255 2.65213292 5 3 C4.34 3 3.68 3 3 3 C3 3.99 3 4.98 3 6 C0.69 6.33 -1.62 6.66 -4 7 C-3.34 6.01 -2.68 5.02 -2 4 C-1.34 4 -0.68 4 0 4 C0 2.68 0 1.36 0 0 Z " fill="#31C3B3" transform="translate(296,368)"/>
<path d="M0 0 C1 2 1 2 0.0625 5.125 C-0.288125 6.07375 -0.63875 7.0225 -1 8 C-0.01 8.33 0.98 8.66 2 9 C0.35 9.33 -1.3 9.66 -3 10 C-3.36923077 4.58461538 -3.36923077 4.58461538 -1.5 1.625 C-1.005 1.08875 -0.51 0.5525 0 0 Z " fill="#CCF8F7" transform="translate(136,314)"/>
<path d="M0 0 C0.33 1.32 0.66 2.64 1 4 C-0.43359375 6.140625 -0.43359375 6.140625 -2.4375 8.25 C-3.09621094 8.95640625 -3.75492188 9.6628125 -4.43359375 10.390625 C-5.20896484 11.18726563 -5.20896484 11.18726563 -6 12 C-6.66 11.67 -7.32 11.34 -8 11 C-5.36 7.37 -2.72 3.74 0 0 Z " fill="#D3F9F8" transform="translate(194,234)"/>
<path d="M0 0 C0.99 0.66 1.98 1.32 3 2 C0.69 4.31 -1.62 6.62 -4 9 C-4.33 7.68 -4.66 6.36 -5 5 C-4.01 5 -3.02 5 -2 5 C-1.7834375 4.0409375 -1.7834375 4.0409375 -1.5625 3.0625 C-1 1 -1 1 0 0 Z " fill="#DBF8F7" transform="translate(236,227)"/>
<path d="M0 0 C5.57142857 5.14285714 5.57142857 5.14285714 6 9 C4.68 8.67 3.36 8.34 2 8 C1.87625 7.360625 1.7525 6.72125 1.625 6.0625 C1.315625 5.0415625 1.315625 5.0415625 1 4 C0.34 3.67 -0.32 3.34 -1 3 C-0.67 2.01 -0.34 1.02 0 0 Z " fill="#8ACFD0" transform="translate(366,89)"/>
<path d="M0 0 C0 0.66 0 1.32 0 2 C-3.97193147 5.12940055 -7.04230204 5.29162929 -12 5 C-9.9330412 2.9330412 -8.69369158 2.35542451 -6 1.375 C-5.29875 1.11460937 -4.5975 0.85421875 -3.875 0.5859375 C-2 0 -2 0 0 0 Z " fill="#D0FAF7" transform="translate(284,382)"/>
<path d="M0 0 C0.66 1.32 1.32 2.64 2 4 C1.443125 4.0825 0.88625 4.165 0.3125 4.25 C-2.69714206 5.22610013 -4.62154752 6.95188814 -7 9 C-7.66 8.67 -8.32 8.34 -9 8 C-6.03 5.36 -3.06 2.72 0 0 Z " fill="#5DC2BC" transform="translate(147,314)"/>
<path d="M0 0 C0.99 0.33 1.98 0.66 3 1 C2.02501855 2.5027237 1.04490611 4.00211963 0.0625 5.5 C-0.48277344 6.3353125 -1.02804688 7.170625 -1.58984375 8.03125 C-2.05519531 8.6809375 -2.52054688 9.330625 -3 10 C-3.33 10 -3.66 10 -4 10 C-4 8.02 -4 6.04 -4 4 C-3.34 4 -2.68 4 -2 4 C-1.34 2.68 -0.68 1.36 0 0 Z " fill="#61C4BB" transform="translate(166,269)"/>
<path d="M0 0 C1.65 0 3.3 0 5 0 C2.14723863 2.93200474 -0.65079784 5.64315404 -4 8 C-4 7.01 -4 6.02 -4 5 C-3.34 5 -2.68 5 -2 5 C-1.34 3.35 -0.68 1.7 0 0 Z " fill="#DDF9F8" transform="translate(283,183)"/>
<path d="M0 0 C1.04449911 3.13349732 0.93423645 3.98968256 0 7 C1.65 7 3.3 7 5 7 C2 9 2 9 -2 9 C-2.25 3.375 -2.25 3.375 0 0 Z " fill="#71C6C0" transform="translate(201,165)"/>
<path d="M0 0 C-1.66666667 3.33333333 -3.33333333 6.66666667 -5 10 C-5.33 10 -5.66 10 -6 10 C-6.19990835 6.40164967 -5.96808719 4.06146896 -4 1 C-2 0 -2 0 0 0 Z " fill="#E8FDFE" transform="translate(32,90)"/>
<path d="M0 0 C6.27 0.33 12.54 0.66 19 1 C19 1.33 19 1.66 19 2 C16.58388629 2.24942467 14.16940879 2.47507501 11.75 2.6875 C10.72712891 2.79674805 10.72712891 2.79674805 9.68359375 2.90820312 C4.88004935 3.30461213 4.09167298 3.06875474 0 0 Z " fill="#90CDD6" transform="translate(205,0)"/>
<path d="M0 0 C1.48285242 0.95262034 2.96118201 1.91228405 4.4375 2.875 C5.67306641 3.67550781 5.67306641 3.67550781 6.93359375 4.4921875 C9 6 9 6 10 8 C7.8125 8.375 7.8125 8.375 5 8 C2.91167347 6.17130326 1.61663209 4.30947441 0 2 C0 1.34 0 0.68 0 0 Z " fill="#D3F9F7" transform="translate(71,353)"/>
<path d="M0 0 C2.97 0.495 2.97 0.495 6 1 C5.01 1.495 5.01 1.495 4 2 C4 2.99 4 3.98 4 5 C3.34 5 2.68 5 2 5 C1.67 5.66 1.34 6.32 1 7 C0 2.25 0 2.25 0 0 Z " fill="#39C7B9" transform="translate(344,328)"/>
<path d="M0 0 C0.66 0.66 1.32 1.32 2 2 C-0.64 4.31 -3.28 6.62 -6 9 C-6 8.01 -6 7.02 -6 6 C-5.34 6 -4.68 6 -4 6 C-3.71125 5.38125 -3.4225 4.7625 -3.125 4.125 C-2 2 -2 2 0 0 Z " fill="#D4FAF9" transform="translate(145,313)"/>
<path d="M0 0 C0.33 0.99 0.66 1.98 1 3 C0.67 3.66 0.34 4.32 0 5 C0.66 5 1.32 5 2 5 C2 5.66 2 6.32 2 7 C0.35 7 -1.3 7 -3 7 C-2.25 2.25 -2.25 2.25 0 0 Z " fill="#CFF5F5" transform="translate(110,206)"/>
<path d="M0 0 C0.33 1.32 0.66 2.64 1 4 C-0.98 5.32 -2.96 6.64 -5 8 C-5.66 7.67 -6.32 7.34 -7 7 C-4.69 4.69 -2.38 2.38 0 0 Z " fill="#CFF1F3" transform="translate(148,168)"/>
<path d="M0 0 C3.36720387 1.39332574 4.9859524 2.9789286 7 6 C3.89448334 6 2.64738916 5.4606285 0 4 C0 2.68 0 1.36 0 0 Z " fill="#84CCCD" transform="translate(330,49)"/>
<path d="M0 0 C1.98 0.66 3.96 1.32 6 2 C5.67 2.99 5.34 3.98 5 5 C2.03 4.505 2.03 4.505 -1 4 C-0.67 2.68 -0.34 1.36 0 0 Z " fill="#3CC1B3" transform="translate(163,392)"/>
<path d="M0 0 C1.1446875 0.2784375 1.1446875 0.2784375 2.3125 0.5625 C5.08967375 1.22819173 5.08967375 1.22819173 8 0 C7.34 1.32 6.68 2.64 6 4 C3.03 3.505 3.03 3.505 0 3 C0 2.01 0 1.02 0 0 Z " fill="#68CDCB" transform="translate(160,148)"/>
<path d="M0 0 C2.475 0.99 2.475 0.99 5 2 C5.33 4.64 5.66 7.28 6 10 C3.99006295 7.99006295 3.10059081 6.40788768 1.875 3.875 C1.52179688 3.15054688 1.16859375 2.42609375 0.8046875 1.6796875 C0.53914063 1.12539062 0.27359375 0.57109375 0 0 Z " fill="#E4FDFD" transform="translate(367,89)"/>
<path d="M0 0 C7.57142857 4 7.57142857 4 10 8 C6.01328937 6.63312778 3.11505367 4.84804907 0 2 C0 1.34 0 0.68 0 0 Z " fill="#85C9C9" transform="translate(320,41)"/>
<path d="M0 0 C-1.36983503 3.16115776 -1.9890638 3.9927092 -5 6 C-7.1875 5.625 -7.1875 5.625 -9 5 C-7.87926138 4.16094435 -6.75325453 3.32892169 -5.625 2.5 C-4.99851562 2.0359375 -4.37203125 1.571875 -3.7265625 1.09375 C-2 0 -2 0 0 0 Z " fill="#D2F5F3" transform="translate(318,362)"/>
<path d="M0 0 C1.98 0 3.96 0 6 0 C6 0.66 6 1.32 6 2 C2.53846154 5 2.53846154 5 0 5 C0 3.35 0 1.7 0 0 Z " fill="#33C6B9" transform="translate(320,352)"/>
<path d="M0 0 C0 0.99 0 1.98 0 3 C-0.639375 3.268125 -1.27875 3.53625 -1.9375 3.8125 C-4.33131686 4.88667752 -4.33131686 4.88667752 -5 8 C-5.99 7.67 -6.98 7.34 -8 7 C-6.71034824 5.62437146 -5.37310707 4.29233607 -4 3 C-3.34 3 -2.68 3 -2 3 C-2 2.34 -2 1.68 -2 1 C-1.34 0.67 -0.68 0.34 0 0 Z " fill="#67C4BE" transform="translate(170,293)"/>
<path d="M0 0 C0.99 0 1.98 0 3 0 C2.67 2.31 2.34 4.62 2 7 C1.01 7.33 0.02 7.66 -1 8 C-0.67 5.36 -0.34 2.72 0 0 Z " fill="#46C4BA" transform="translate(148,289)"/>
<path d="M0 0 C0.66 0.33 1.32 0.66 2 1 C1.67 1.99 1.34 2.98 1 4 C0.2575 3.95875 -0.485 3.9175 -1.25 3.875 C-4.08758952 4.00398134 -5.58773938 4.57051222 -8 6 C-3.375 1.125 -3.375 1.125 0 0 Z " fill="#63CBC3" transform="translate(206,261)"/>
<path d="M0 0 C0.66 0.33 1.32 0.66 2 1 C1.67 3.97 1.34 6.94 1 10 C0.34 10 -0.32 10 -1 10 C-2.15837626 5.94568308 -1.83691257 3.78187881 0 0 Z " fill="#63C9CC" transform="translate(229,118)"/>
<path d="M0 0 C2.475 0.99 2.475 0.99 5 2 C4.67 3.32 4.34 4.64 4 6 C3.01 5.67 2.02 5.34 1 5 C1 4.34 1 3.68 1 3 C0.01 2.67 -0.98 2.34 -2 2 C-1.34 1.34 -0.68 0.68 0 0 Z " fill="#32C7B8" transform="translate(75,351)"/>
<path d="M0 0 C1.98 0.66 3.96 1.32 6 2 C6.33 3.65 6.66 5.3 7 7 C5.83040013 6.02433888 4.66438823 5.044375 3.5 4.0625 C2.8503125 3.51722656 2.200625 2.97195313 1.53125 2.41015625 C1.0259375 1.94480469 0.520625 1.47945313 0 1 C0 0.67 0 0.34 0 0 Z " fill="#60C5BA" transform="translate(64,346)"/>
<path d="M0 0 C0.66 0.99 1.32 1.98 2 3 C0.75 4.5625 0.75 4.5625 -1 6 C-3.1875 5.6875 -3.1875 5.6875 -5 5 C-3.35 3.35 -1.7 1.7 0 0 Z " fill="#65C7C3" transform="translate(211,254)"/>
<path d="M0 0 C2 2 2 2 2 5 C0.02 5.66 -1.96 6.32 -4 7 C-2.92598892 4.08482708 -2.22189824 2.22189824 0 0 Z " fill="#88CECE" transform="translate(38,82)"/>
<path d="M0 0 C2.64 0.66 5.28 1.32 8 2 C6.68 2.33 5.36 2.66 4 3 C4 3.99 4 4.98 4 6 C3.34 6 2.68 6 2 6 C2 4.68 2 3.36 2 2 C1.34 2 0.68 2 0 2 C0 1.34 0 0.68 0 0 Z " fill="#8BCCD4" transform="translate(256,8)"/>
<path d="M0 0 C-1.28913487 0.67154933 -2.58140204 1.33708859 -3.875 2 C-4.59429687 2.37125 -5.31359375 2.7425 -6.0546875 3.125 C-8 4 -8 4 -10 4 C-10 3.34 -10 2.68 -10 2 C-3.375 -1.125 -3.375 -1.125 0 0 Z " fill="#4FC3B5" transform="translate(298,375)"/>
<path d="M0 0 C1.32 0.33 2.64 0.66 4 1 C4 2.98 4 4.96 4 7 C2 5.75 2 5.75 0 4 C0 2.68 0 1.36 0 0 Z " fill="#37C6BD" transform="translate(59,336)"/>
<path d="M0 0 C0.99 0.33 1.98 0.66 3 1 C2.01 2.98 1.02 4.96 0 7 C-0.99 7 -1.98 7 -3 7 C-2.01 4.69 -1.02 2.38 0 0 Z " fill="#47BFB9" transform="translate(139,304)"/>
<path d="M0 0 C2.475 0.495 2.475 0.495 5 1 C5 2.32 5 3.64 5 5 C3.02 5.99 3.02 5.99 1 7 C1.50603992 4.83125748 1.99983813 3.00032373 3 1 C2.01 0.67 1.02 0.34 0 0 Z " fill="#DBFDFC" transform="translate(287,175)"/>
<path d="M0 0 C2.97 0.33 5.94 0.66 9 1 C5.00889681 2.9955516 3.30013434 3.19546065 -1 3 C-0.67 2.01 -0.34 1.02 0 0 Z " fill="#78CBD2" transform="translate(236,5)"/>
<path d="M0 0 C1.98 0.495 1.98 0.495 4 1 C2.515 3.475 2.515 3.475 1 6 C0.34 5.34 -0.32 4.68 -1 4 C-0.625 1.875 -0.625 1.875 0 0 Z " fill="#2DC9BA" transform="translate(305,360)"/>
<path d="M0 0 C1.32 1.32 2.64 2.64 4 4 C1.69 4.66 -0.62 5.32 -3 6 C-2 4 -1 2 0 0 Z " fill="#E0F9F8" transform="translate(53,336)"/>
<path d="M0 0 C0.33 0.66 0.66 1.32 1 2 C1.66 2.33 2.32 2.66 3 3 C0.69 4.65 -1.62 6.3 -4 8 C-2.87548273 5.0280615 -1.77706209 2.66559313 0 0 Z " fill="#D1F6F5" transform="translate(369,306)"/>
<path d="M0 0 C0.33 0 0.66 0 1 0 C1 1.98 1 3.96 1 6 C-0.98 6.99 -0.98 6.99 -3 8 C-1.125 2.25 -1.125 2.25 0 0 Z " fill="#D5F9F8" transform="translate(381,284)"/>
<path d="M0 0 C0.99 0 1.98 0 3 0 C3 0.99 3 1.98 3 3 C1 4.6875 1 4.6875 -1 6 C-1.625 4.125 -1.625 4.125 -2 2 C-1.34 1.34 -0.68 0.68 0 0 Z " fill="#47C6BD" transform="translate(179,248)"/>
<path d="M0 0 C0.33 1.32 0.66 2.64 1 4 C-0.65 5.32 -2.3 6.64 -4 8 C-3.67 6.35 -3.34 4.7 -3 3 C-2.01 3 -1.02 3 0 3 C0 2.01 0 1.02 0 0 Z " fill="#E6FAFC" transform="translate(252,212)"/>
</svg>
