<?xml version="1.0" encoding="UTF-8"?>
<svg version="1.1" xmlns="http://www.w3.org/2000/svg" width="512" height="512">
<path d="M0 0 C0.99789551 0.00054382 1.99579102 0.00108765 3.02392578 0.00164795 C17.70311352 0.03845782 31.73685331 0.62289294 46 4.375 C46.86802246 4.58930664 47.73604492 4.80361328 48.63037109 5.02441406 C73.95128414 11.33054684 98.88321573 21.89735698 120 37.375 C121.5778125 38.52742188 121.5778125 38.52742188 123.1875 39.703125 C130.34035486 45.02332533 137.03245699 50.75568983 143.47314453 56.91552734 C144.50315775 57.90008427 145.53812459 58.8794814 146.57763672 59.85400391 C161.08422351 73.48728447 180.21789264 93.29938983 181.37109375 114.1953125 C181.70883063 128.71118894 179.91090861 139.89088033 170.09765625 151.2265625 C160.22786908 161.33528306 148.2308265 166.270569 134.25 166.75 C121.20266349 166.52504592 109.40586298 161.73376172 99.9375 152.75 C96.02829111 148.63751225 92.76642345 144.09507955 89.4140625 139.52734375 C76.3593 122.48010534 60.79096145 110.12049362 40.9375 102 C40.15971191 101.67829834 39.38192383 101.35659668 38.58056641 101.02514648 C26.40985395 96.2736702 14.38336426 94.85652658 1.44189453 94.92895508 C-0.86646868 94.93746854 -3.17234736 94.90856787 -5.48046875 94.87695312 C-18.89084911 94.81288213 -31.31908441 97.29968784 -43.6875 102.625 C-44.3875415 102.92092041 -45.08758301 103.21684082 -45.80883789 103.52172852 C-72.53036515 115.17721877 -92.70140764 136.74260372 -104 163.375 C-112.51660798 186.09338621 -114.3180118 211.06206438 -107 234.375 C-106.78569336 235.06239258 -106.57138672 235.74978516 -106.35058594 236.45800781 C-101.58079338 251.25339056 -94.214442 263.61584087 -84 275.375 C-83.53464844 275.98472656 -83.06929688 276.59445312 -82.58984375 277.22265625 C-68.53736931 295.40062777 -41.38661565 308.27358392 -19 311.375 C-16.37048043 311.50024812 -13.76680028 311.5856513 -11.13671875 311.61328125 C-10.38646927 311.621353 -9.63621979 311.62942474 -8.86323547 311.63774109 C-7.27562726 311.65152154 -5.68799018 311.66227047 -4.1003418 311.67016602 C-2.51138327 311.68158118 -0.92245981 311.70186285 0.66625977 311.73168945 C15.22018166 312.00399551 28.89192699 310.22663281 42.25 304.0625 C42.89928467 303.76327637 43.54856934 303.46405273 44.2175293 303.15576172 C46.15611845 302.25009154 48.07912693 301.31757146 50 300.375 C51.15628906 299.81683594 52.31257813 299.25867188 53.50390625 298.68359375 C61.16658992 294.78440052 67.62933684 290.13438513 74 284.375 C74.80824219 283.64925781 75.61648438 282.92351562 76.44921875 282.17578125 C82.45256075 276.48179021 87.38716635 270.18971279 92.27099609 263.52734375 C101.05062387 251.64821204 111.96066043 242.66808611 127 240.375 C141.98527932 239.05822422 154.01866609 243.15715345 166.25 251.625 C177.51176707 262.88676707 181.34069166 274.78491216 181.3828125 290.24194336 C180.97313304 315.13210459 157.42968108 336.49304003 140.671875 352.91796875 C130.81155994 362.35830743 119.54363525 370.14535215 108 377.375 C107.40058594 377.75366211 106.80117188 378.13232422 106.18359375 378.52246094 C78.52529306 395.74169457 43.8480415 406.31704679 11.2421875 406.61328125 C10.34442596 406.62312042 9.44666443 406.63295959 8.521698 406.64309692 C-28.91352491 406.96917575 -28.91352491 406.96917575 -47 402.375 C-47.96099609 402.13894043 -48.92199219 401.90288086 -49.91210938 401.65966797 C-71.3791238 396.25808793 -92.18090751 388.09480457 -111 376.375 C-112.55847656 375.40820312 -112.55847656 375.40820312 -114.1484375 374.421875 C-160.66023132 344.39063804 -192.21211633 297.88865262 -203.9375 243.875 C-205.95061331 234.4208475 -207.15545153 225.30127178 -207.203125 215.63671875 C-207.20882507 214.71647415 -207.21452515 213.79622955 -207.22039795 212.84809875 C-207.22980222 210.90419648 -207.23636363 208.96027859 -207.24023438 207.01635742 C-207.24984656 204.10891059 -207.28087498 201.20220052 -207.3125 198.29492188 C-207.40038915 182.83647158 -205.88849859 167.81362186 -201.75 152.875 C-201.54020508 152.10349609 -201.33041016 151.33199219 -201.11425781 150.53710938 C-189.43835357 108.92169311 -165.23875347 71.01977353 -131 44.375 C-130.46697266 43.95492676 -129.93394531 43.53485352 -129.38476562 43.10205078 C-104.79197225 23.84340858 -76.12317323 11.0613316 -45.75 4.125 C-45.09040283 3.97377686 -44.43080566 3.82255371 -43.7512207 3.66674805 C-29.17977188 0.54290882 -14.84183079 -0.03040352 0 0 Z " fill="#E53C3F" transform="translate(269,52.625)"/>
<path d="M0 0 C0.92428802 -0.00979385 1.84857605 -0.01958771 2.8008728 -0.02967834 C40.64950674 -0.34859963 40.64950674 -0.34859963 58.0859375 4.23828125 C58.95395996 4.45258789 59.82198242 4.66689453 60.71630859 4.88769531 C86.03722164 11.19382809 110.96915323 21.76063823 132.0859375 37.23828125 C133.66375 38.39070313 133.66375 38.39070313 135.2734375 39.56640625 C142.42629236 44.88660658 149.11839449 50.61897108 155.55908203 56.77880859 C156.58909525 57.76336552 157.62406209 58.74276265 158.66357422 59.71728516 C173.17016101 73.35056572 192.30383014 93.16267108 193.45703125 114.05859375 C193.79476813 128.57447019 191.99684611 139.75416158 182.18359375 151.08984375 C172.31380658 161.19856431 160.316764 166.13385025 146.3359375 166.61328125 C133.28860099 166.38832717 121.49180048 161.59704297 112.0234375 152.61328125 C108.11422861 148.5007935 104.85236095 143.9583608 101.5 139.390625 C88.4452375 122.34338659 72.87689895 109.98377487 53.0234375 101.86328125 C52.24564941 101.54157959 51.46786133 101.21987793 50.66650391 100.88842773 C38.49579145 96.13695145 26.46930176 94.71980783 13.52783203 94.79223633 C11.21946882 94.80074979 8.91359014 94.77184912 6.60546875 94.74023438 C-7.07162846 94.67443053 -19.52901002 97.28867696 -32.1015625 102.80078125 C-33.14666992 103.23680664 -33.14666992 103.23680664 -34.21289062 103.68164062 C-37.23668922 104.96524744 -39.97782392 106.2778603 -42.77734375 108.015625 C-43.48246094 108.41910156 -44.18757813 108.82257813 -44.9140625 109.23828125 C-46.9140625 108.23828125 -46.9140625 108.23828125 -47.9140625 107.23828125 C-49.31028738 107.18778149 -50.70900714 107.20262973 -52.10546875 107.24609375 C-53.40000977 107.27123047 -53.40000977 107.27123047 -54.72070312 107.296875 C-56.53082277 107.34049234 -58.34076683 107.39231953 -60.15039062 107.453125 C-71.66838242 107.64040942 -79.87776438 102.49919757 -89.1015625 95.98828125 C-98.06802107 87.22107731 -103.93047015 75.87341831 -104.15576172 63.24853516 C-104.20375821 50.1793735 -104.20375821 50.1793735 -100.9140625 44.23828125 C-100.46546875 43.34625 -100.016875 42.45421875 -99.5546875 41.53515625 C-96.81117483 36.24611636 -93.94588758 31.6258556 -89.9140625 27.23828125 C-90.5740625 26.90828125 -91.2340625 26.57828125 -91.9140625 26.23828125 C-64.46616158 10.38511574 -31.81543168 0.27876428 0 0 Z " fill="#3EA3D9" transform="translate(256.9140625,52.76171875)"/>
<path d="M0 0 C-1.39534308 2.95015394 -3.01517659 5.57108337 -4.875 8.25 C-12.31032669 19.2848247 -14.11104335 28.77646498 -13 42 C-11.41889132 50.02299718 -7.94668409 56.55694398 -3 63 C-2.38898438 63.83402344 -1.77796875 64.66804688 -1.1484375 65.52734375 C4.2766405 71.77111534 13.84488515 77.37896659 22 79 C23.87877624 79.08026745 25.7601615 79.10765872 27.640625 79.09765625 C28.71054688 79.09443359 29.78046875 79.09121094 30.8828125 79.08789062 C31.99398437 79.07951172 33.10515625 79.07113281 34.25 79.0625 C35.37664062 79.05798828 36.50328125 79.05347656 37.6640625 79.04882812 C40.44276217 79.03705397 43.22135409 79.0206084 46 79 C43.54447326 82.28137654 41.39036971 84.64856128 37.875 86.75 C32.37414737 90.27271351 27.74115493 94.5286669 23 99 C22.32066406 99.60328125 21.64132813 100.2065625 20.94140625 100.828125 C3.63470709 116.84639786 -7.51829976 142.71626047 -9.22094727 166.0246582 C-9.74306826 180.11970801 -9.24906882 193.49804586 -5 207 C-4.78037598 207.69802734 -4.56075195 208.39605469 -4.33447266 209.11523438 C-1.57287836 217.59741361 1.86374287 225.07736709 6.77734375 232.546875 C8 235 8 235 7.69140625 237.328125 C7.46324219 237.87984375 7.23507813 238.4315625 7 239 C6.21625 238.278125 5.4325 237.55625 4.625 236.8125 C-5.80290922 228.15536782 -17.82932496 226.06906909 -30.98681641 226.80908203 C-43.83795801 228.02780538 -54.09072547 234.85928602 -62.24609375 244.546875 C-70.74598405 256.43536299 -72.31612471 269.54627051 -70 283.625 C-69.67479226 285.41815936 -69.34438559 287.21042488 -69 289 C-72.25439266 287.638297 -73.71350847 286.39137414 -75.48046875 283.3515625 C-75.91786377 282.60390625 -76.35525879 281.85625 -76.8059082 281.0859375 C-77.2618335 280.27382813 -77.71775879 279.46171875 -78.1875 278.625 C-78.66727295 277.779375 -79.1470459 276.93375 -79.64135742 276.0625 C-94.43062778 249.52254882 -105.05199556 218.89927322 -105.203125 188.26171875 C-105.20882507 187.34147415 -105.21452515 186.42122955 -105.22039795 185.47309875 C-105.22980222 183.52919648 -105.23636363 181.58527859 -105.24023438 179.64135742 C-105.24984656 176.73391059 -105.28087498 173.82720052 -105.3125 170.91992188 C-105.40038915 155.46147158 -103.88849859 140.43862186 -99.75 125.5 C-99.54020508 124.72849609 -99.33041016 123.95699219 -99.11425781 123.16210938 C-84.68226634 71.72340962 -51.54840025 28.82155801 -6.05078125 0.92578125 C-4 0 -4 0 0 0 Z " fill="#F2EA13" transform="translate(167,80)"/>
<path d="M0 0 C-0.33 0.33 -0.66 0.66 -1 1 C-0.04480469 1.09796875 0.91039062 1.1959375 1.89453125 1.296875 C17.02181477 3.04639134 29.82457528 7.08389617 39.875 19.375 C48.77439514 31.8384215 51.33953742 43.83633156 49 59 C46.91255851 68.00581902 42.04674213 76.30325565 35.25390625 82.625 C33.66308936 84.0592991 33.66308936 84.0592991 34 87 C31.43792942 88.12598637 28.87536301 89.25081988 26.3125 90.375 C25.59126953 90.69210938 24.87003906 91.00921875 24.12695312 91.3359375 C20.44024665 92.95202801 16.75035844 94.53536298 13 96 C13.33 95.34 13.66 94.68 14 94 C13.37544922 94.01571045 12.75089844 94.0314209 12.10742188 94.04760742 C9.23837583 94.11052044 6.36947558 94.14916731 3.5 94.1875 C2.51773438 94.21263672 1.53546875 94.23777344 0.5234375 94.26367188 C-12.01217428 94.38902799 -23.05182741 88.74932431 -32 80 C-42.23523108 67.42528753 -45.08219327 54.88018417 -44 39 C-43.44461883 35.97834992 -42.48148028 33.67550916 -41 31 C-40.55140625 30.10796875 -40.1028125 29.2159375 -39.640625 28.296875 C-36.89711233 23.00783511 -34.03182508 18.38757435 -30 14 C-30.66 13.67 -31.32 13.34 -32 13 C-24.39123694 8.74772675 -16.77600192 4.70940965 -8.6875 1.4375 C-8.04804443 1.17437012 -7.40858887 0.91124023 -6.74975586 0.64013672 C-2.25067008 -1.12533504 -2.25067008 -1.12533504 0 0 Z " fill="#126FA9" transform="translate(197,66)"/>
<path d="M0 0 C2.13998535 1.53253126 3.94824092 3.01074092 5.8125 4.875 C6.8025 4.875 7.7925 4.875 8.8125 4.875 C10.85546875 6.921875 10.85546875 6.921875 13 9.625 C13.71542969 10.50671875 14.43085938 11.3884375 15.16796875 12.296875 C16.8125 14.875 16.8125 14.875 16.8125 18.875 C17.44135906 20.84579937 18.1133391 22.80303109 18.8125 24.75 C22.76193027 37.35996665 21.58444433 49.60669475 15.52734375 61.37109375 C8.28383349 73.01317012 -1.21687851 79.58577212 -13.9375 84.25 C-27.05269806 86.91145233 -39.69067169 84.91905608 -51.08203125 78.05859375 C-53.16069195 76.78599415 -53.16069195 76.78599415 -55.5625 76.1796875 C-59.53383127 74.2058413 -61.7016041 71.02899234 -64.375 67.5625 C-64.90802734 66.89798828 -65.44105469 66.23347656 -65.99023438 65.54882812 C-68.63831241 62.18127229 -71.06083628 59.08274409 -72.1875 54.875 C-71.8575 54.215 -71.5275 53.555 -71.1875 52.875 C-71.51599196 50.98750866 -71.51599196 50.98750866 -72.125 48.875 C-75.02494776 36.42111474 -72.38373861 24.45759494 -65.984375 13.48046875 C-51.25737207 -7.8736855 -22.00331526 -14.29514749 0 0 Z " fill="#C1312D" transform="translate(168.1875,313.125)"/>
<path d="M0 0 C0 3 0 3 -2.01953125 5.36010742 C-3.40205078 6.71906128 -3.40205078 6.71906128 -4.8125 8.10546875 C-5.30081299 8.5895369 -5.78912598 9.07360504 -6.29223633 9.57234192 C-7.85459826 11.1179014 -9.42706327 12.65271107 -11 14.1875 C-12.06057762 15.23303282 -13.12048229 16.27924873 -14.1796875 17.32617188 C-16.77869434 19.89208902 -19.3868639 22.44846467 -22 25 C-22.66 24.67 -23.32 24.34 -24 24 C-16.32908807 15.59591248 -8.68092794 7.38078896 0 0 Z " fill="#94921E" transform="translate(133,101)"/>
<path d="M0 0 C0 0.99 0 1.98 0 3 C-5.94 3.495 -5.94 3.495 -12 4 C-9.94577945 1.94577945 -8.66990976 1.31862408 -6 0.3125 C-5.29875 0.04050781 -4.5975 -0.23148437 -3.875 -0.51171875 C-2 -1 -2 -1 0 0 Z " fill="#316F8C" transform="translate(197,66)"/>
<path d="M0 0 C0.66 0.99 1.32 1.98 2 3 C-4.625 6.125 -4.625 6.125 -8 5 C-4.04 2.525 -4.04 2.525 0 0 Z " fill="#31647C" transform="translate(229,150)"/>
<path d="M0 0 C0.66 0.33 1.32 0.66 2 1 C-2.455 3.97 -2.455 3.97 -7 7 C-7.66 6.34 -8.32 5.68 -9 5 C-7.54735962 4.1361871 -6.0876837 3.28419546 -4.625 2.4375 C-3.40683594 1.72400391 -3.40683594 1.72400391 -2.1640625 0.99609375 C-1.44992188 0.66738281 -0.73578125 0.33867188 0 0 Z " fill="#797E29" transform="translate(174,74)"/>
</svg>
