<?xml version="1.0" encoding="UTF-8"?>
<svg version="1.1" xmlns="http://www.w3.org/2000/svg" width="440" height="194">
<path d="M0 0 C0.78979248 0.01063477 1.57958496 0.02126953 2.39331055 0.03222656 C8.31023742 0.22528272 13.06664542 1.16555753 18.0625 4.5 C18.949375 5.056875 19.83625 5.61375 20.75 6.1875 C30.45836764 15.89586764 33.03299807 27.09137429 33.0625 40.5 C32.4614081 51.01910821 29.01122281 61.2734863 21.125 68.5625 C14.80093 73.83927178 8.67335419 75.03658991 0.6875 74.9375 C-0.15377441 74.93065186 -0.99504883 74.92380371 -1.86181641 74.91674805 C-9.58820734 74.71634525 -15.27452754 73.25401543 -20.9375 67.8125 C-21.9275 66.6678125 -21.9275 66.6678125 -22.9375 65.5 C-23.2675 65.17 -23.5975 64.84 -23.9375 64.5 C-24.2675 75.72 -24.5975 86.94 -24.9375 98.5 C-27.2475 98.5 -29.5575 98.5 -31.9375 98.5 C-31.9375 66.49 -31.9375 34.48 -31.9375 1.5 C-29.6275 1.5 -27.3175 1.5 -24.9375 1.5 C-24.6075 4.8 -24.2775 8.1 -23.9375 11.5 C-22.9475 10.4275 -21.9575 9.355 -20.9375 8.25 C-15.07564422 1.89965624 -8.44498522 -0.20529445 0 0 Z M-16.625 11.8125 C-25.38077488 21.98813026 -25.75559185 32.41540661 -25.13720703 45.26953125 C-24.46281834 52.80157901 -21.44179706 59.37099593 -15.9375 64.5 C-9.25000283 69.80674526 -1.08071639 69.35718067 7.0625 68.5 C13.79160243 66.81772439 18.19318177 62.06278643 22.0625 56.5 C27.23347662 47.7491165 26.93518593 35.57955426 24.77734375 25.9609375 C22.52303573 18.20020497 18.7702761 13.12174517 12.0625 8.5 C2.89822489 3.86395494 -8.94961008 5.20809472 -16.625 11.8125 Z M-25.9375 13.5 C-24.9375 15.5 -24.9375 15.5 -24.9375 15.5 Z " fill="#A0A1AD" transform="translate(167.9375,58.5)"/>
<path d="M0 0 C0.79575439 0.00829834 1.59150879 0.01659668 2.41137695 0.02514648 C10.48638403 0.25775304 15.87268449 2.14517905 21.875 7.625 C29.27559338 15.71242339 32.08964804 24.68732455 32.3125 35.5625 C32.125 38.4375 32.125 38.4375 31.125 39.4375 C29.34508076 39.53120624 27.56143261 39.55494271 25.77905273 39.55102539 C24.6379454 39.55094986 23.49683807 39.55087433 22.32115173 39.55079651 C21.0795076 39.54563522 19.83786346 39.54047394 18.55859375 39.53515625 C16.66295433 39.53303383 16.66295433 39.53303383 14.72901917 39.53086853 C11.36375111 39.52620582 7.9985501 39.5172148 4.63330078 39.50616455 C1.2015033 39.49594846 -2.23030109 39.49137049 -5.66210938 39.48632812 C-12.39975824 39.4752738 -19.13737525 39.4585171 -25.875 39.4375 C-25.27314659 42.00756654 -24.66109314 44.57446801 -24.04296875 47.140625 C-23.87470581 47.8639502 -23.70644287 48.58727539 -23.53308105 49.33251953 C-21.91498355 55.98701665 -19.65792204 60.72315594 -13.98046875 64.796875 C-6.70054846 68.74072792 2.22645378 68.84729381 10.0703125 66.58984375 C16.13405682 63.91998618 19.4396569 60.4531376 22.125 54.4375 C23.42404008 51.13357984 23.42404008 51.13357984 24.125 48.4375 C26.435 48.4375 28.745 48.4375 31.125 48.4375 C29.53370597 58.46265242 25.47770736 65.22958274 17.25 71.24609375 C8.58532022 76.1040484 -3.56993118 76.03117384 -13.05859375 73.6328125 C-21.33041107 69.89049265 -27.12193588 63.15524957 -30.3125 54.75 C-31.49363836 50.98804831 -32.54665362 47.37765659 -32.875 43.4375 C-32.93816406 42.68597656 -33.00132812 41.93445313 -33.06640625 41.16015625 C-33.53538377 30.85777916 -31.41847216 19.06531958 -24.5078125 11.078125 C-17.05253865 3.58717998 -10.72512938 -0.14360479 0 0 Z M-18.6875 14.1875 C-23.66934872 20.30416619 -24.76299619 25.65347336 -25.875 33.4375 C-9.045 33.4375 7.785 33.4375 25.125 33.4375 C22.87210272 19.47225713 22.87210272 19.47225713 14 10 C3.5159398 2.51429943 -10.24769778 5.29243874 -18.6875 14.1875 Z " fill="#9F9FAD" transform="translate(276.875,58.5625)"/>
<path d="M0 0 C0.80759766 -0.01998047 1.61519531 -0.03996094 2.44726562 -0.06054688 C9.70844393 -0.0546958 14.88738743 2.06637749 20.3125 6.875 C21.055 7.720625 21.7975 8.56625 22.5625 9.4375 C23.243125 10.159375 23.92375 10.88125 24.625 11.625 C29.21939433 18.29428209 31.71466424 26.09255689 31.6875 34.1875 C31.69136719 35.35539062 31.69136719 35.35539062 31.6953125 36.546875 C31.5625 38.4375 31.5625 38.4375 30.5625 39.4375 C28.81411165 39.5606517 27.06085496 39.61537811 25.30834961 39.64282227 C24.18726303 39.66276749 23.06617645 39.68271271 21.91111755 39.70326233 C20.08146202 39.72833107 20.08146202 39.72833107 18.21484375 39.75390625 C16.97328018 39.77468735 15.73171661 39.79546844 14.45252991 39.81687927 C11.14650877 39.87133609 7.84047755 39.92154205 4.53436279 39.96972656 C1.16282509 40.01989856 -2.20862053 40.07560701 -5.58007812 40.13085938 C-12.19914551 40.23820038 -18.8182816 40.33994198 -25.4375 40.4375 C-25.16627104 42.32568539 -24.8825439 44.21207748 -24.59375 46.09765625 C-24.43712891 47.14832275 -24.28050781 48.19898926 -24.11914062 49.28149414 C-22.81096638 55.33835965 -20.14202293 60.23510357 -15.3125 64.16796875 C-7.73446667 68.61757055 0.80685469 68.710947 9.24609375 66.84375 C15.52810863 64.55552873 18.59422782 60.26336302 21.5625 54.4375 C22.93043675 51.10023623 22.93043675 51.10023623 23.5625 48.4375 C25.8725 48.4375 28.1825 48.4375 30.5625 48.4375 C28.97120597 58.46265242 24.91520736 65.22958274 16.6875 71.24609375 C8.0319904 76.09890704 -4.18919347 76.0678227 -13.65625 73.59765625 C-22.10901095 69.72347415 -27.22525816 62.94187593 -30.7109375 54.515625 C-34.40218499 43.95786337 -34.28383571 28.83772123 -29.703125 18.66015625 C-22.81970163 6.57167508 -14.14270897 -0.12356616 0 0 Z M-18.6875 13.5625 C-23.50142385 19.6785508 -25.4375 25.71365427 -25.4375 33.4375 C-8.9375 33.4375 7.5625 33.4375 24.5625 33.4375 C23.42276613 23.17989513 21.52349393 16.17943847 13.40625 9.59375 C3.09088952 3.12479513 -10.41339734 4.89926874 -18.6875 13.5625 Z " fill="#9F9FAD" transform="translate(32.4375,58.5625)"/>
<path d="M0 0 C5.4094678 3.44150729 9.22652253 8.35390198 10.64453125 14.64453125 C10.9375 17.125 10.9375 17.125 11.0625 21.0625 C8.7525 21.0625 6.4425 21.0625 4.0625 21.0625 C3.91554688 20.39863281 3.76859375 19.73476562 3.6171875 19.05078125 C2.01695214 12.75100412 0.60620514 9.56974203 -4.9375 6.0625 C-11.42712766 3.79697683 -21.77838749 3.74243981 -28.1875 6.375 C-31.35108932 8.31629345 -33.28196715 9.7514343 -34.9375 13.0625 C-35.29330114 16.83399207 -35.30020494 19.31981845 -33.625 22.75 C-26.80357087 28.61960181 -17.10757576 29.85632774 -8.48388672 31.49243164 C-0.04345724 33.18889283 5.99081496 35.99287843 11.0625 43.0625 C13.54146032 48.02042065 12.71829562 54.67719528 12.0625 60.0625 C9.7540464 65.07407829 5.7501245 68.04366236 0.9375 70.5625 C-8.5670703 73.82329873 -22.66240173 74.23471031 -31.875 70 C-38.37889509 65.87699508 -42.57714364 60.4058309 -44.9375 53.0625 C-45.125 49.125 -45.125 49.125 -44.9375 46.0625 C-42.6275 46.0625 -40.3175 46.0625 -37.9375 46.0625 C-37.86273438 46.63097656 -37.78796875 47.19945312 -37.7109375 47.78515625 C-36.68643587 53.80159231 -34.83323531 58.22932793 -29.9375 62.0625 C-24.92568807 64.66279611 -20.73835414 65.58549003 -15.0625 65.5 C-14.01412964 65.48972778 -14.01412964 65.48972778 -12.94458008 65.47924805 C-7.27181123 65.30355737 -2.56922625 64.42601549 2.0625 61.0625 C4.69097457 58.19507319 5.25835229 55.84357597 5.5 52.0625 C5.35651276 49.23526998 4.9900295 47.917559 3.6875 45.3125 C-2.71077539 39.82826395 -11.44353729 38.34782932 -19.5 36.6875 C-27.90792878 34.82144332 -34.69809555 32.80183422 -40.59375 26.2109375 C-43.10240825 22.20000134 -43.02962332 17.69498681 -42.9375 13.0625 C-41.37124794 7.09116403 -38.10021638 3.30047552 -32.9375 0.0625 C-23.90729811 -3.91460249 -9.02353435 -4.00738892 0 0 Z " fill="#A0A0AC" transform="translate(427.9375,60.9375)"/>
<path d="M0 0 C5.03455447 3.16123188 8.11300736 7.27652209 10 12.9375 C10.12781786 15.61144964 10.04391871 18.25845857 10 20.9375 C8.02 20.9375 6.04 20.9375 4 20.9375 C3.84144531 20.26203125 3.68289063 19.5865625 3.51953125 18.890625 C2.04542476 13.15699815 2.04542476 13.15699815 -1.375 8.4375 C-6.54553229 5.48291012 -10.86944059 4.54929938 -16.8125 4.5625 C-17.52229004 4.56338623 -18.23208008 4.56427246 -18.96337891 4.56518555 C-24.73879074 4.69581197 -28.30074995 5.64802497 -33 8.9375 C-35.43522498 12.59033747 -35.55474367 15.68718452 -35 19.9375 C-34.06765973 22.34225031 -33.42590739 23.65298406 -31.26000977 25.09985352 C-23.97428439 28.19059026 -16.50850514 29.87784475 -8.79492188 31.56054688 C-1.08575862 33.35462609 4.79419564 35.81184075 10.5 41.375 C12.92102568 47.12493599 12.70813555 52.79789174 12 58.9375 C9.364859 64.94562148 4.33367206 68.50230886 -1.5859375 71.05078125 C-10.59853329 73.3915813 -23.30851162 73.87596292 -31.875 69.9375 C-37.25164906 66.54577873 -41.28579707 61.91872249 -44.4375 56.4375 C-45.23880768 52.87613252 -45.12364269 49.58495946 -45 45.9375 C-43.02 45.9375 -41.04 45.9375 -39 45.9375 C-38.79246094 46.66195312 -38.58492188 47.38640625 -38.37109375 48.1328125 C-36.25302913 54.7794588 -34.10523786 59.29466577 -28 62.9375 C-21.33331646 66.27084177 -12.58846009 65.87573736 -5.3828125 64.40234375 C-1.45135876 63.04487954 1.70612101 61.42419607 4 57.9375 C5.13330777 53.74268721 5.46590525 50.24785852 4 46.125 C-2.05192528 39.50570673 -10.25079197 38.56321127 -18.64257812 36.95898438 C-28.04656697 35.02075767 -36.47276089 32.13920965 -42 23.9375 C-43.7097368 18.8082896 -43.64617595 13.87602784 -41.9375 8.75 C-33.23905913 -3.87676901 -13.58788206 -6.25866083 0 0 Z " fill="#A0A0AC" transform="translate(362,61.0625)"/>
<path d="M0 0 C3.13853653 -0.53168634 5.87427345 -0.67128849 9 0 C11.83271602 2.3594645 13.61963337 5.26739837 15.5625 8.375 C16.60243217 9.94732511 17.64543253 11.51762499 18.69140625 13.0859375 C19.21105957 13.87838867 19.73071289 14.67083984 20.26611328 15.48730469 C23.27270807 19.8443694 26.63534614 23.91669791 30 28 C32.5642825 24.64719274 35.12610035 21.29250999 37.6875 17.9375 C38.40873047 16.99455078 39.12996094 16.05160156 39.87304688 15.08007812 C40.57880859 14.15517578 41.28457031 13.23027344 42.01171875 12.27734375 C43.04848755 10.92467407 43.04848755 10.92467407 44.10620117 9.54467773 C45.73547895 7.35543418 47.23190952 5.12979259 48.71875 2.84375 C51 0 51 0 53.45703125 -0.68359375 C54.23433594 -0.60238281 55.01164062 -0.52117188 55.8125 -0.4375 C56.60269531 -0.37433594 57.39289063 -0.31117187 58.20703125 -0.24609375 C59.09455078 -0.12427734 59.09455078 -0.12427734 60 0 C60 2 60 2 57.86328125 4.1484375 C57.17613037 4.80924316 57.17613037 4.80924316 56.47509766 5.48339844 C53.74581619 8.289472 51.50403693 11.47738486 49.1875 14.625 C48.66704102 15.32560547 48.14658203 16.02621094 47.61035156 16.74804688 C43.3674731 22.4697818 39.16342088 28.22019219 35 34 C39.0343062 40.23810472 43.33678835 46.16939514 47.9375 52 C51.46484375 56.5 51.46484375 56.5 53.20654297 58.72265625 C54.4640524 60.31945015 55.72939242 61.91009374 57.00048828 63.49609375 C57.64099121 64.30175781 58.28149414 65.10742188 58.94140625 65.9375 C59.82034546 67.03384766 59.82034546 67.03384766 60.71704102 68.15234375 C62 70 62 70 62 72 C58.86512951 72.52247842 56.1224379 72.66041839 53 72 C50.18519471 69.68459565 48.42537436 66.81840342 46.5 63.75 C45.39308125 62.09818431 44.28500309 60.44714501 43.17578125 58.796875 C42.37454834 57.57387695 42.37454834 57.57387695 41.55712891 56.32617188 C39.40341259 53.10876689 37.06522925 50.05348455 34.6875 47 C31 42.23339318 31 42.23339318 31 40 C26.35705555 44.30942481 22.76617587 49.18954683 19.0625 54.3125 C17.28128032 56.75757621 15.49929558 59.20196764 13.70996094 61.64111328 C12.57789955 63.20278906 11.46608521 64.77936149 10.37597656 66.37060547 C9.86647461 67.09779785 9.35697266 67.82499023 8.83203125 68.57421875 C8.38964111 69.22350342 7.94725098 69.87278809 7.49145508 70.54174805 C5.52864189 72.46086463 4.33264492 72.49438554 1.625 72.5 C0.42875 72.335 -0.7675 72.17 -2 72 C-0.34217233 68.34043359 1.90582211 65.17822802 4.25 61.9375 C4.88470215 61.04623413 4.88470215 61.04623413 5.53222656 60.13696289 C8.22772949 56.37389137 11.00380728 52.68662182 13.84375 49.03125 C14.81393066 47.76486694 14.81393066 47.76486694 15.80371094 46.47290039 C17.08873337 44.79892173 18.38867777 43.13628017 19.70410156 41.48608398 C20.2915918 40.71594971 20.87908203 39.94581543 21.484375 39.15234375 C22.01772461 38.47163818 22.55107422 37.79093262 23.10058594 37.08959961 C24.28138379 34.94943118 24.28138379 34.94943118 23.26611328 32.38623047 C21.8182628 29.65748179 20.13982771 27.530752 18.125 25.1875 C14.10802318 20.39198859 10.26436953 15.49639632 6.5 10.5 C5.97164551 9.80543701 5.44329102 9.11087402 4.89892578 8.39526367 C4.16005127 7.4107019 4.16005127 7.4107019 3.40625 6.40625 C2.74592773 5.52936523 2.74592773 5.52936523 2.07226562 4.63476562 C1 3 1 3 0 0 Z " fill="#A0A0AA" transform="translate(67,60)"/>
<path d="M0 0 C2.31 0 4.62 0 7 0 C7.33 3.63 7.66 7.26 8 11 C8.94875 9.9275 9.8975 8.855 10.875 7.75 C16.29495294 2.36282903 22.47575173 -0.21391864 30.125 -0.25 C31.40375 -0.1675 32.6825 -0.085 34 0 C34 1.98 34 3.96 34 6 C33.29875 6.08636719 32.5975 6.17273438 31.875 6.26171875 C24.21281684 7.39647142 18.24636963 9.03063976 13.2109375 15.1875 C9.6021844 20.38684096 7.91673535 24.32976171 7.79467773 30.67675781 C7.77473251 31.59741028 7.75478729 32.51806274 7.73423767 33.46661377 C7.71752518 34.45216248 7.70081268 35.43771118 7.68359375 36.453125 C7.66281265 37.46848328 7.64203156 38.48384155 7.62062073 39.52996826 C7.55529403 42.76991073 7.49631863 46.00993348 7.4375 49.25 C7.39429874 51.44792493 7.35068393 53.64584178 7.30664062 55.84375 C7.19962993 61.22908206 7.09783227 66.6144938 7 72 C4.69 72 2.38 72 0 72 C0 48.24 0 24.48 0 0 Z " fill="#A0A0AD" transform="translate(211,60)"/>
</svg>
