<?xml version="1.0" encoding="UTF-8"?>
<svg version="1.1" xmlns="http://www.w3.org/2000/svg" width="200" height="200">
<path d="M0 0 C66 0 132 0 200 0 C200 66 200 132 200 200 C134 200 68 200 0 200 C0 134 0 68 0 0 Z " fill="#FEFEFE" transform="translate(0,0)"/>
<path d="M0 0 C1.69107179 0.00560394 3.3821485 0.00987026 5.07322693 0.01286316 C9.49722028 0.02424922 13.92091228 0.05366173 18.3447876 0.0869751 C22.86979091 0.11781143 27.3948435 0.13139732 31.91992188 0.14648438 C40.77877732 0.1785382 49.63741035 0.22965792 58.49609375 0.29296875 C58.35295862 2.38024237 58.20487334 4.46717693 58.0546875 6.55395508 C57.97275146 7.71615067 57.89081543 8.87834625 57.80639648 10.07575989 C57.46671223 13.59759538 56.72644264 16.66485942 55.49609375 19.98046875 C55.14546875 20.95371094 54.79484375 21.92695312 54.43359375 22.9296875 C53.49609375 25.29296875 53.49609375 25.29296875 52.49609375 27.29296875 C51.83609375 27.29296875 51.17609375 27.29296875 50.49609375 27.29296875 C50.11710937 28.38158203 50.11710937 28.38158203 49.73046875 29.4921875 C44.70584152 40.89300308 33.24914093 46.99481674 22.328125 51.640625 C14.93046089 54.42598031 8.54578824 55.44114229 0.68359375 55.35546875 C-0.10466797 55.35095703 -0.89292969 55.34644531 -1.70507812 55.34179688 C-3.63805386 55.33008187 -5.57099018 55.31214873 -7.50390625 55.29296875 C-7.50390625 56.61296875 -7.50390625 57.93296875 -7.50390625 59.29296875 C15.26609375 59.29296875 38.03609375 59.29296875 61.49609375 59.29296875 C61.49609375 75.12524371 54.31749514 89.00258207 43.49609375 100.29296875 C33.74785979 109.02123312 19.77687948 114.67210496 6.6875 114.22265625 C-5.0048992 113.49473689 -5.0048992 113.49473689 -15.41796875 117.5234375 C-17.08061414 120.37987803 -18.28642652 123.22459078 -19.50390625 126.29296875 C-26.61320307 135.85027815 -39.09225912 142.44619226 -50.50390625 145.29296875 C-51.37015625 145.51984375 -52.23640625 145.74671875 -53.12890625 145.98046875 C-56.26152284 146.39265514 -59.34755497 146.31136241 -62.50390625 146.29296875 C-62.59740494 135.4427213 -62.66807027 124.59257279 -62.71115494 113.74200153 C-62.7318541 108.701308 -62.7598401 103.66089404 -62.80566406 98.62036133 C-62.84976316 93.73789491 -62.87317537 88.85569395 -62.88341522 83.97304344 C-62.89069362 82.12870299 -62.90489811 80.28437376 -62.92682648 78.44014931 C-63.19098154 55.25994313 -60.33968107 32.63116255 -43.87890625 15.16796875 C-30.80236642 2.52403625 -17.41111903 -0.17022454 0 0 Z " fill="#A3C9FD" transform="translate(100.50390625,26.70703125)"/>
<path d="M0 0 C1.69107179 0.00560394 3.3821485 0.00987026 5.07322693 0.01286316 C9.49722028 0.02424922 13.92091228 0.05366173 18.3447876 0.0869751 C22.86979091 0.11781143 27.3948435 0.13139732 31.91992188 0.14648438 C40.77877732 0.1785382 49.63741035 0.22965792 58.49609375 0.29296875 C58.35295862 2.38024237 58.20487334 4.46717693 58.0546875 6.55395508 C57.97275146 7.71615067 57.89081543 8.87834625 57.80639648 10.07575989 C57.46671223 13.59759538 56.72644264 16.66485942 55.49609375 19.98046875 C55.14546875 20.95371094 54.79484375 21.92695312 54.43359375 22.9296875 C53.49609375 25.29296875 53.49609375 25.29296875 52.49609375 27.29296875 C51.83609375 27.29296875 51.17609375 27.29296875 50.49609375 27.29296875 C50.11710937 28.38158203 50.11710937 28.38158203 49.73046875 29.4921875 C45.20296954 39.76502591 35.32356573 45.80872189 25.49609375 50.29296875 C24.77917862 50.63484222 24.06226349 50.9767157 23.32362366 51.32894897 C14.70535155 54.97182461 6.39576051 54.80717168 -2.765625 54.68359375 C-4.40899461 54.67611739 -6.05237323 54.67043107 -7.695755 54.66644287 C-11.98502975 54.65129609 -16.27374778 54.61211156 -20.56280518 54.56762695 C-24.95390292 54.52643524 -29.34509215 54.50838124 -33.73632812 54.48828125 C-42.32577404 54.44560434 -50.91477055 54.37748928 -59.50390625 54.29296875 C-59.54821598 52.41037329 -59.57949523 50.52746895 -59.60546875 48.64453125 C-59.62432129 47.59604004 -59.64317383 46.54754883 -59.66259766 45.46728516 C-59.01963175 32.60598864 -50.41428933 21.40304461 -41.50390625 12.84375 C-28.62764958 1.89557864 -16.22658431 -0.15864361 0 0 Z " fill="#1D65F2" transform="translate(100.50390625,26.70703125)"/>
<path d="M0 0 C22.11 0 44.22 0 67 0 C67 16.30938714 61.76814308 27.2087156 51 39 C45.80106074 43.93408763 39.53017754 47.14304733 33 50 C31.8965625 50.53882813 30.793125 51.07765625 29.65625 51.6328125 C23.23983306 54.00203224 16.23751297 53.31329434 9.5 53.1875 C8.09116014 53.17242613 6.68230468 53.1587425 5.2734375 53.14648438 C1.84855604 53.11129724 -1.57551763 53.06206079 -5 53 C-4.71995117 52.07123047 -4.43990234 51.14246094 -4.15136719 50.18554688 C-1.02662097 39.21282425 -0.35049103 28.86574006 -0.25 17.5 C-0.1675 11.725 -0.085 5.95 0 0 Z " fill="#76A9FA" transform="translate(94,87)"/>
</svg>
