<?xml version="1.0" encoding="UTF-8"?>
<svg version="1.1" xmlns="http://www.w3.org/2000/svg" width="225" height="225">
<path d="M0 0 C74.25 0 148.5 0 225 0 C225 74.25 225 148.5 225 225 C150.75 225 76.5 225 0 225 C0 150.75 0 76.5 0 0 Z " fill="#E535AB" transform="translate(0,0)"/>
<path d="M0 0 C74.25 0 148.5 0 225 0 C225 74.25 225 148.5 225 225 C150.75 225 76.5 225 0 225 C0 150.75 0 76.5 0 0 Z M95 11.625 C92.91651738 16.57327122 92.82736724 20.64838456 93 26 C93.495 26.99 93.495 26.99 94 28 C93.2869873 28.2693335 92.57397461 28.53866699 91.83935547 28.81616211 C88.95099255 30.02043311 86.29960146 31.41191176 83.5703125 32.94140625 C82.53463135 33.52172607 81.4989502 34.1020459 80.43188477 34.69995117 C79.34061279 35.31459229 78.24934082 35.9292334 77.125 36.5625 C76.00472412 37.18423096 74.88444824 37.80596191 73.73022461 38.4465332 C68.83146012 41.18284056 63.99582519 43.91924447 59.37109375 47.1015625 C55.97416641 49.42829405 52.86117343 51.52208571 49 53 C45.89398396 52.35309794 44.00362547 51.23649887 41.3984375 49.44921875 C37.12978429 46.8699511 32.79608826 47.12406771 28 48 C22.57086299 50.01284331 18.66934863 53.59038267 15.84375 58.62109375 C13.77927291 64.44177222 14.23276459 70.5628993 16.0625 76.375 C20.04120163 81.76549898 23.35034711 84.67006942 30 86 C30 103.49 30 120.98 30 139 C28.35 139.33 26.7 139.66 25 140 C23.04992974 141.1891333 23.04992974 141.1891333 21.375 142.75 C20.52035156 143.48476563 20.52035156 143.48476563 19.6484375 144.234375 C14.97526103 149.23976781 14.46857022 153.34136783 14.6484375 159.98828125 C15.31378163 165.68806262 17.37228357 169.45366939 21.5 173.375 C25.71633544 176.11561804 28.58440133 177.32409781 33.6875 177.4375 C34.66074219 177.47746094 35.63398437 177.51742187 36.63671875 177.55859375 C40.20203008 176.96644564 41.27395877 176.124504 44.11328125 174.0625 C46.44067383 172.69506836 46.44067383 172.69506836 49 172 C53.66538962 173.35064274 57.46012987 175.91623078 61.5 178.5625 C62.64778134 179.28429201 63.79754152 180.00294647 64.94921875 180.71850586 C66.67703701 181.7937805 68.40191931 182.87223621 70.11743164 183.96705627 C73.46647341 186.09699499 76.84224748 188.00579877 80.40625 189.75 C91.31316026 195.15877299 91.31316026 195.15877299 93.296875 200.4765625 C93.75 204.1875 93.75 204.1875 93.84765625 207.78515625 C94.03501963 211.73900401 94.97703363 213.72749364 97.52734375 216.671875 C102.64067167 221.28336437 108.06771993 223.31022252 115 223 C121.1770257 221.64704284 126.08801778 218.73140318 129.75 213.5 C132.21263566 208.57472868 132.1730447 204.4509079 132 199 C131.67 198.01 131.34 197.02 131 196 C132.31967773 195.5970874 132.31967773 195.5970874 133.66601562 195.18603516 C136.8380898 194.05759811 139.45528853 192.73747536 142.34375 191.0234375 C143.33665039 190.43820313 144.32955078 189.85296875 145.35253906 189.25 C146.39120117 188.63125 147.42986328 188.0125 148.5 187.375 C149.56702148 186.74851563 150.63404297 186.12203125 151.73339844 185.4765625 C156.35902895 182.76039002 160.97159535 180.02676809 165.546875 177.2265625 C166.18689453 176.84193848 166.82691406 176.45731445 167.48632812 176.06103516 C169.12821567 175.07326615 170.75986818 174.06853903 172.390625 173.0625 C175 172 175 172 177.19921875 172.7109375 C177.79347656 173.13632813 178.38773438 173.56171875 179 174 C184.5510734 177.52019288 189.60691016 177.79913623 196 177 C201.63257487 175.40156659 204.91076008 172.52226686 208.08984375 167.68359375 C210.88992332 162.50404741 210.75936392 156.70607748 210 151 C207.45284647 145.52670471 203.25878883 141.80468737 198 139 C197.01 139 196.02 139 195 139 C195 121.51 195 104.02 195 86 C197.475 85.505 197.475 85.505 200 85 C202.21723711 83.58517658 202.21723711 83.58517658 204.1875 81.75 C204.86167969 81.16734375 205.53585938 80.5846875 206.23046875 79.984375 C210.44169485 75.26185213 210.49086515 70.07989099 210.37890625 64.01171875 C209.60471267 57.85807697 206.65763139 54.29295248 201.875 50.5625 C198.09005251 48.50546332 195.13403143 47.7827419 190.875 47.625 C189.98554688 47.57601562 189.09609375 47.52703125 188.1796875 47.4765625 C184.74287261 48.0423281 183.66397789 48.93544256 180.9140625 50.93359375 C178.57470703 52.30273438 178.57470703 52.30273438 176 53 C171.33392648 51.65035502 167.54192512 49.0809594 163.5 46.4375 C162.35256806 45.72535363 161.20280348 45.01695246 160.05078125 44.31225586 C157.75607463 42.90201795 155.47465804 41.47362746 153.203125 40.02636719 C148.85652744 37.27661416 144.43642259 34.66365184 140 32.0625 C138.96069336 31.43589478 138.96069336 31.43589478 137.90039062 30.79663086 C134.67660054 28.69633726 134.67660054 28.69633726 131 28 C131.33 27.34 131.66 26.68 132 26 C132.48432216 18.85624814 131.4655319 13.85482641 126.625 8.25 C120.87907244 3.32491924 116.8122906 2.34538457 109.3046875 2.515625 C103.03225995 3.4349879 98.78205159 6.66105728 95 11.625 Z " fill="#FEFDFE" transform="translate(0,0)"/>
<path d="M0 0 C0.93199219 -0.03480469 1.86398438 -0.06960937 2.82421875 -0.10546875 C3.74847656 -0.17378906 4.67273438 -0.24210937 5.625 -0.3125 C10.42108874 1.38138249 12.06845826 5.43352981 14.51171875 9.70703125 C15.3157312 11.09764771 15.3157312 11.09764771 16.13598633 12.51635742 C17.87061881 15.56607984 19.56944565 18.63361835 21.26171875 21.70703125 C25.25347427 28.89595255 29.25158353 36.07347243 33.44921875 43.14453125 C38.26152995 51.25227305 42.98037125 59.41233834 47.66552734 67.59423828 C50.93001061 73.28405084 54.24047271 78.93531018 57.65625 84.53515625 C58.31399414 85.62497803 58.97173828 86.7147998 59.64941406 87.83764648 C60.90858356 89.91917313 62.18216197 91.99206832 63.47167969 94.05493164 C64.31327637 95.45473267 64.31327637 95.45473267 65.171875 96.8828125 C65.67340088 97.69661377 66.17492676 98.51041504 66.69165039 99.34887695 C67.51171875 101.70703125 67.51171875 101.70703125 66.84545898 104.13354492 C66.40532471 104.98279541 65.96519043 105.8320459 65.51171875 106.70703125 C64.52171875 108.68703125 63.53171875 110.66703125 62.51171875 112.70703125 C23.24171875 112.70703125 -16.02828125 112.70703125 -56.48828125 112.70703125 C-61.48828125 103.70703125 -61.48828125 103.70703125 -60.98242188 100.97949219 C-60.48935547 100.22958008 -59.99628906 99.47966797 -59.48828125 98.70703125 C-59.04162109 97.85141602 -58.59496094 96.99580078 -58.13476562 96.11425781 C-57.36616211 94.74479004 -57.36616211 94.74479004 -56.58203125 93.34765625 C-56.008479 92.32357666 -55.43492676 91.29949707 -54.84399414 90.24438477 C-54.23160889 89.15955811 -53.61922363 88.07473145 -52.98828125 86.95703125 C-52.03779907 85.26694946 -52.03779907 85.26694946 -51.06811523 83.54272461 C-47.23827561 76.75185382 -43.35492524 69.99718379 -39.37768555 63.29174805 C-35.63523278 56.97978289 -31.96448551 50.62748024 -28.30078125 44.26953125 C-27.35682495 42.63262329 -27.35682495 42.63262329 -26.39379883 40.96264648 C-23.37222089 35.72058851 -20.35466165 30.47629159 -17.34550476 25.22709656 C-15.97457434 22.83639163 -14.60170154 20.44680511 -13.22860718 18.05734253 C-12.25829346 16.36689583 -11.29085907 14.67479743 -10.32348633 12.98266602 C-9.43826294 11.44243774 -9.43826294 11.44243774 -8.53515625 9.87109375 C-7.75930176 8.51685303 -7.75930176 8.51685303 -6.96777344 7.13525391 C-3.1689649 0.90044371 -3.1689649 0.90044371 0 0 Z " fill="#FEFEFE" transform="translate(109.48828125,40.29296875)"/>
<path d="M0 0 C39.27 0 78.54 0 119 0 C117.65621026 4.03136923 115.94310632 4.45584468 112.26953125 6.51171875 C111.68266037 6.84363724 111.09578949 7.17555573 110.49113464 7.51753235 C108.60299392 8.58288155 106.70804178 9.63538625 104.8125 10.6875 C102.97338368 11.72013552 101.13571891 12.75532234 99.29806519 13.79055786 C98.06885858 14.48070418 96.83782657 15.16760915 95.60501099 15.85128784 C92.4095147 17.62560837 89.24988773 19.4396347 86.12646484 21.33837891 C85.4987468 21.71436722 84.87102875 22.09035553 84.22428894 22.47773743 C82.48685846 23.52185196 80.75815249 24.58044459 79.0300293 25.63989258 C75.67229894 27.14709714 74.41075769 27.22628998 71 26 C70.20335938 25.49339844 69.40671875 24.98679688 68.5859375 24.46484375 C63.79699476 21.75207407 58.3383915 22.35992092 53 23 C50.82340987 23.8940065 50.82340987 23.8940065 49.0625 25.125 C48.051875 25.74375 47.04125 26.3625 46 27 C41.84239953 25.98454102 38.38754981 24.23604593 34.7265625 22.05859375 C33.74365234 21.47867676 32.76074219 20.89875977 31.74804688 20.30126953 C30.20213867 19.37870361 30.20213867 19.37870361 28.625 18.4375 C26.48235304 17.17219068 24.33912161 15.90787055 22.1953125 14.64453125 C21.14633789 14.02529785 20.09736328 13.40606445 19.01660156 12.76806641 C14.87131506 10.3384642 10.69356021 7.97006379 6.5 5.625 C5.83049316 5.25044678 5.16098633 4.87589355 4.47119141 4.48999023 C2.98173481 3.65830684 1.49103936 2.82884247 0 2 C0 1.34 0 0.68 0 0 Z " fill="#FEF8FC" transform="translate(53,162)"/>
<path d="M0 0 C0.66 0.33 1.32 0.66 2 1 C-11.72035833 25.05485556 -25.50392387 49.07160627 -39.484375 72.9765625 C-41.9860756 77.25608544 -44.47311957 81.5438069 -46.953125 85.8359375 C-47.59886475 86.95081543 -48.24460449 88.06569336 -48.90991211 89.21435547 C-50.15846699 91.37052788 -51.40417013 93.52835466 -52.64672852 95.68798828 C-53.20287842 96.64688965 -53.75902832 97.60579102 -54.33203125 98.59375 C-54.82421143 99.44646484 -55.3163916 100.29917969 -55.82348633 101.17773438 C-56.4058606 102.07975586 -56.4058606 102.07975586 -57 103 C-57.33 103 -57.66 103 -58 103 C-58 85.51 -58 68.02 -58 50 C-55.03 48.35 -52.06 46.7 -49 45 C-44.2161103 38.90054063 -44 32.55755463 -44 25 C-43.34217529 24.63350342 -42.68435059 24.26700684 -42.0065918 23.8894043 C-38.8993377 22.15702704 -35.79333425 20.42242148 -32.6875 18.6875 C-31.56077881 18.05900146 -30.43405762 17.43050293 -29.27319336 16.78295898 C-23.87911946 13.76574067 -18.50206395 10.72819737 -13.1796875 7.5859375 C-11.87511597 6.81697144 -11.87511597 6.81697144 -10.54418945 6.0324707 C-8.91357891 5.06661669 -7.28695999 4.09398571 -5.66479492 3.11401367 C-3.81053851 2.01641118 -1.90934408 0.99870078 0 0 Z " fill="#FEFCFD" transform="translate(97,36)"/>
<path d="M0 0 C4.09654209 1.25306434 7.62260557 2.76496628 11.30859375 4.94140625 C12.29657959 5.52116211 13.28456543 6.10091797 14.30249023 6.69824219 C15.33704346 7.31344727 16.37159668 7.92865234 17.4375 8.5625 C18.49976807 9.18930664 19.56203613 9.81611328 20.65649414 10.46191406 C22.78425573 11.71891226 24.91050586 12.97847285 27.03515625 14.24072266 C29.6431507 15.78825296 32.25723008 17.32456058 34.875 18.85546875 C36.22946409 19.65314102 37.58365655 20.45127481 38.9375 21.25 C39.55101318 21.60779541 40.16452637 21.96559082 40.79663086 22.33422852 C44.88501295 24.77002589 44.88501295 24.77002589 46 27 C45.95875 28.03125 45.9175 29.0625 45.875 30.125 C46.0657812 36.03921731 47.54904356 40.23532325 51.3125 44.8125 C54.35053883 47.44749995 54.35053883 47.44749995 60 50 C60 67.49 60 84.98 60 103 C57.20036222 99.50045278 55.03087877 96.55200951 52.85546875 92.73828125 C52.26894531 91.71541016 51.68242187 90.69253906 51.078125 89.63867188 C50.45421875 88.54103516 49.8303125 87.44339844 49.1875 86.3125 C48.52258588 85.15013283 47.85721263 83.98802819 47.19140625 82.82617188 C45.8099087 80.4145854 44.43038435 78.00188656 43.05224609 75.58837891 C39.88661449 70.04829052 36.69177494 64.52505214 33.5 59 C32.25506706 56.84252943 31.01027598 54.684977 29.765625 52.52734375 C29.14751953 51.45597168 28.52941406 50.38459961 27.89257812 49.28076172 C25.96459245 45.93862144 24.03694696 42.59628515 22.109375 39.25390625 C21.4687915 38.14329834 20.82820801 37.03269043 20.16821289 35.88842773 C18.90413059 33.69667602 17.6402901 31.50478483 16.37670898 29.31274414 C13.4647286 24.26301115 10.54712017 19.2167572 7.61328125 14.1796875 C7.09540039 13.28950928 6.57751953 12.39933105 6.04394531 11.48217773 C5.08031771 9.82695518 4.11491699 8.17276319 3.14746094 6.51977539 C0 1.11106124 0 1.11106124 0 0 Z " fill="#FEFCFD" transform="translate(126,36)"/>
</svg>
