<?xml version="1.0" encoding="UTF-8"?>
<svg version="1.1" xmlns="http://www.w3.org/2000/svg" width="200" height="200">
<path d="M0 0 C66 0 132 0 200 0 C200 66 200 132 200 200 C134 200 68 200 0 200 C0 134 0 68 0 0 Z " fill="#000000" transform="translate(0,0)"/>
<path d="M0 0 C7.26 0 14.52 0 22 0 C22.01981934 1.55428711 22.03963867 3.10857422 22.06005859 4.70996094 C22.13608789 10.47249651 22.22480978 16.2347787 22.31738281 21.99707031 C22.35568354 24.49181112 22.39053446 26.98660736 22.421875 29.48144531 C22.46750124 33.06595685 22.5255006 36.6500864 22.5859375 40.234375 C22.59748871 41.35116638 22.60903992 42.46795776 22.62094116 43.61859131 C22.64081085 44.65936829 22.66068054 45.70014526 22.68115234 46.77246094 C22.69447601 47.68735291 22.70779968 48.60224487 22.7215271 49.54486084 C23.01742328 52.15361126 23.61276567 53.78384109 25 56 C29.05614305 58.70123692 33.29392084 58.55365637 38 58 C40.98244913 56.8646327 40.98244913 56.8646327 43 55 C43.98964237 52.03107289 44.15273727 49.98850092 44.20532227 46.88598633 C44.22526749 45.84513382 44.24521271 44.80428131 44.26576233 43.73188782 C44.28247482 42.60993515 44.29918732 41.48798248 44.31640625 40.33203125 C44.33718735 39.18208176 44.35796844 38.03213226 44.37937927 36.84733582 C44.44483342 33.16911875 44.50374074 29.49082952 44.5625 25.8125 C44.60568913 23.32095604 44.64930355 20.82941941 44.69335938 18.33789062 C44.80051065 12.22533462 44.90178997 6.11270594 45 0 C52.26 0 59.52 0 67 0 C67.06916134 7.06214178 67.12880974 14.12309117 67.16479492 21.18530273 C67.17980862 23.58378092 67.20022579 25.98223199 67.22631836 28.38061523 C67.26302904 31.84365564 67.27980116 35.3063306 67.29296875 38.76953125 C67.30845261 39.82831985 67.32393646 40.88710846 67.33988953 41.97798157 C67.34199564 51.46068353 66.06584363 60.69154402 59.87109375 68.21484375 C51.56475529 76.13968023 42.06968094 78.48497412 30.97338867 78.50415039 C21.86864098 78.2668119 14.90273852 74.82366897 8.0625 68.875 C0.83253944 60.58248337 -0.73853551 50.87601608 -0.48828125 40.234375 C-0.48120651 39.07496399 -0.47413177 37.91555298 -0.46684265 36.7210083 C-0.43913378 33.06331394 -0.37643744 29.40722183 -0.3125 25.75 C-0.28738687 23.25132438 -0.26457903 20.75262448 -0.24414062 18.25390625 C-0.18938387 12.16866527 -0.10327428 6.08460307 0 0 Z " fill="#FAFAFA" transform="translate(50,63)"/>
<path d="M0 0 C7.26 0 14.52 0 22 0 C22 25.41 22 50.82 22 77 C14.74 77 7.48 77 0 77 C0 51.59 0 26.18 0 0 Z " fill="#FAFAFA" transform="translate(128,63)"/>
</svg>
