<?xml version="1.0" encoding="UTF-8"?>
<svg version="1.1" xmlns="http://www.w3.org/2000/svg" width="266" height="300">
<path d="M0 0 C1.87365234 -0.07347656 1.87365234 -0.07347656 3.78515625 -0.1484375 C9.1311847 0.16939239 13.36424317 2.77494561 17.9375 5.375 C19.23699585 6.10855713 19.23699585 6.10855713 20.56274414 6.85693359 C23.36775133 8.46598378 26.15393726 10.10414847 28.9375 11.75 C31.06214655 12.99799776 33.18715936 14.24537214 35.3125 15.4921875 C36.40304688 16.1325293 37.49359375 16.77287109 38.6171875 17.43261719 C44.0422113 20.60625611 49.49003414 23.7400913 54.9375 26.875 C64.26643594 32.2480123 73.57661071 37.65184992 82.86767578 43.09008789 C88.18605919 46.19958756 93.5171798 49.2850891 98.8671875 52.33984375 C100.03779794 53.00970005 101.20837108 53.67962154 102.37890625 54.34960938 C104.59534312 55.61668506 106.81394459 56.87998527 109.03515625 58.13867188 C129.8241851 70.03505531 129.8241851 70.03505531 132.9375 79.375 C133.03680266 81.2723031 133.07681888 83.1729159 133.08467102 85.07279968 C133.09540398 86.85385857 133.09540398 86.85385857 133.10635376 88.67089844 C133.10904266 89.97534912 133.11173157 91.2797998 133.11450195 92.6237793 C133.12076793 94.01024038 133.12741485 95.39669978 133.13441467 96.78315735 C133.15544469 101.33849928 133.1658173 105.8938415 133.17578125 110.44921875 C133.17982946 112.01880219 133.1839464 113.58838544 133.18813133 115.15796852 C133.20718211 122.53376304 133.22141235 129.90954756 133.2297433 137.28536195 C133.23951024 145.79157562 133.26581584 154.29752868 133.30624419 162.80365056 C133.3364384 169.38297705 133.35121537 175.962229 133.35452431 182.54162341 C133.3568714 186.46887802 133.36578675 190.39585419 133.39098549 194.32303429 C133.41432881 198.02082937 133.41847465 201.71816395 133.40822411 205.41601372 C133.40749555 207.41120227 133.42654352 209.40636776 133.44628906 211.40145874 C133.39958052 219.48332412 132.71863224 225.38212807 126.94946289 231.47436523 C121.30399265 235.56174077 115.49037988 239.09740265 109.375 242.4375 C107.32728893 243.57531957 105.28044036 244.71469246 103.234375 245.85546875 C102.19087891 246.43603027 101.14738281 247.0165918 100.07226562 247.61474609 C95.05427418 250.43248117 90.08926302 253.3389519 85.125 256.25 C76.74670552 261.15585131 68.35120567 266.03011878 59.9375 270.875 C49.41951401 276.93370047 38.92571139 283.03278748 28.4453125 289.15625 C27.55360352 289.67574219 26.66189453 290.19523437 25.74316406 290.73046875 C23.72907207 291.9110225 21.72132139 293.10242015 19.71777344 294.30078125 C18.65333008 294.93371094 17.58888672 295.56664062 16.4921875 296.21875 C15.52522949 296.79818359 14.55827148 297.37761719 13.56201172 297.97460938 C7.44149213 301.24040476 0.71865272 301.24456592 -6.0625 300.375 C-11.04929795 298.56728574 -15.51793972 296.06779952 -20.0625 293.375 C-20.66320312 293.02727539 -21.26390625 292.67955078 -21.8828125 292.32128906 C-25.64617807 290.14133954 -29.36025294 287.89057395 -33.05810547 285.6015625 C-35.21352363 284.2825831 -37.38827633 282.9998386 -39.56640625 281.71875 C-41.04459045 280.83386703 -42.52246264 279.94846262 -44 279.0625 C-45.05743408 278.44991333 -45.05743408 278.44991333 -46.13623047 277.82495117 C-48.08984375 276.63671875 -48.08984375 276.63671875 -51.0625 274.375 C-51.0625 273.055 -51.0625 271.735 -51.0625 270.375 C-48.52445542 269.22052129 -45.98256371 268.07631573 -43.4375 266.9375 C-42.72464844 266.61201172 -42.01179688 266.28652344 -41.27734375 265.95117188 C-40.57480469 265.63857422 -39.87226562 265.32597656 -39.1484375 265.00390625 C-38.5095459 264.71588135 -37.8706543 264.42785645 -37.21240234 264.13110352 C-32.97487902 262.64080035 -30.30746659 261.80742366 -26.08984375 263.73022461 C-25.07019531 264.40577393 -24.05054687 265.08132324 -23 265.77734375 C-22.44562256 266.13389542 -21.89124512 266.49044708 -21.32006836 266.85780334 C-19.55659334 267.99350745 -17.80867051 269.15039508 -16.0625 270.3125 C-14.31565303 271.46974995 -12.56615036 272.62121116 -10.80493164 273.75648499 C-9.20615013 274.78751144 -7.62025939 275.8384465 -6.03515625 276.89038086 C-2.69172419 278.56017474 -0.74969494 278.79981105 2.9375 278.375 C5.54762067 277.09645331 7.87162905 275.7953652 10.3125 274.25 C11.83137921 273.32314937 13.35095058 272.39743237 14.87109375 271.47265625 C15.68690918 270.97137207 16.50272461 270.47008789 17.34326172 269.95361328 C21.9812322 267.13137376 26.68121236 264.41551988 31.375 261.6875 C32.38546387 261.0982373 33.39592773 260.50897461 34.43701172 259.90185547 C43.01000398 254.90396056 51.60616143 249.94663506 60.20458984 244.99267578 C67.64776216 240.70201078 75.07918051 236.39170957 82.5 232.0625 C83.40169922 231.5365625 84.30339844 231.010625 85.23242188 230.46875 C87.02555915 229.42156818 88.80258865 228.34625916 90.56143188 227.2424469 C93.19431164 225.7860891 95.37413135 224.83920441 98.17575073 223.88633728 C103.24223422 221.9339147 107.57810008 219.75659487 110.9375 215.375 C113.95878572 206.70582155 113.10363525 196.97768262 112.86312604 187.90834951 C112.78451607 184.2635999 112.80298406 180.61931182 112.81077576 176.97390747 C112.8109434 170.08415192 112.72490739 163.19833009 112.60720628 156.30968964 C112.47736818 148.46210274 112.44466117 140.61502744 112.41975892 132.76651549 C112.36641505 116.63414981 112.19224507 100.50546987 111.9375 84.375 C110.77109734 83.91707062 110.77109734 83.91707062 109.58113098 83.44989014 C107.00583235 82.40278367 104.67823531 81.19878292 102.26171875 79.828125 C101.36428955 79.32047607 100.46686035 78.81282715 99.54223633 78.28979492 C98.57954834 77.7404126 97.61686035 77.19103027 96.625 76.625 C95.60881592 76.04790283 94.59263184 75.47080566 93.5456543 74.8762207 C85.42045661 70.24974475 77.3418584 65.54517856 69.27416992 60.81933594 C61.52503487 56.28514159 53.7384108 51.81919496 45.9375 47.375 C34.87946166 41.07468504 23.86964968 34.69616584 12.88671875 28.265625 C12.02997559 27.77126953 11.17323242 27.27691406 10.29052734 26.76757812 C8.81399475 25.89373065 7.35682103 24.98533571 5.93212891 24.02929688 C3.14464903 22.20498609 1.53017266 21.29714893 -1.828125 21.73828125 C-6.60810096 24.15713382 -11.21276471 26.8182423 -15.8125 29.5625 C-17.97617549 30.83919778 -20.14025166 32.11521671 -22.3046875 33.390625 C-23.42069336 34.04998047 -24.53669922 34.70933594 -25.68652344 35.38867188 C-31.0837633 38.56425356 -36.51014 41.6887656 -41.9375 44.8125 C-44.12241376 46.07158348 -46.30730949 47.33069823 -48.4921875 48.58984375 C-49.57725586 49.21487793 -50.66232422 49.83991211 -51.78027344 50.48388672 C-56.12856958 52.98923497 -60.47542341 55.49707822 -64.82202148 58.00537109 C-66.96967831 59.24448478 -69.11762418 60.48309764 -71.26586914 61.72119141 C-76.34053957 64.64644002 -81.4125591 67.57602587 -86.4758606 70.52090454 C-88.86565668 71.9104863 -91.25686836 73.29762172 -93.64819336 74.68457031 C-95.33390589 75.66363253 -97.01756587 76.64622606 -98.70117188 77.62890625 C-100.23547852 78.51835937 -100.23547852 78.51835937 -101.80078125 79.42578125 C-103.14716675 80.20949097 -103.14716675 80.20949097 -104.52075195 81.0090332 C-106.98646993 82.3341405 -109.45818383 83.35755665 -112.0625 84.375 C-112.49396736 101.21318973 -112.78578528 118.04738212 -112.9148407 134.89046669 C-112.97797702 142.71286153 -113.08547122 150.52978812 -113.30029297 158.34960938 C-113.4875969 165.17195409 -113.58872784 171.98943855 -113.58965683 178.81444395 C-113.59307515 182.42582869 -113.63735155 186.02551582 -113.78521729 189.63411331 C-114.82604465 204.79669037 -114.82604465 204.79669037 -108.72821045 217.93071747 C-102.99068576 222.41080985 -96.7169939 225.41408124 -89.9982605 228.13758469 C-86.48397791 229.61884554 -83.25775111 231.42503853 -79.9858551 233.37470436 C-75.60095061 235.65519892 -70.93156853 235.89098992 -66.0625 235.375 C-61.24759534 233.6489021 -59.31272408 231.9127708 -57.0625 227.375 C-56.61851618 224.69000808 -56.61851618 224.69000808 -56.68395996 221.82064819 C-56.67575729 220.71585617 -56.66755463 219.61106415 -56.65910339 218.47279358 C-56.66525162 217.27053635 -56.67139984 216.06827911 -56.67773438 214.82958984 C-56.66948748 212.87464336 -56.66123979 210.91969688 -56.65296173 208.96475053 C-56.64697031 206.86892205 -56.64834252 204.7732127 -56.65180969 202.67737961 C-56.65862564 198.30740944 -56.64274214 193.93770151 -56.62341309 189.56777954 C-56.58236481 179.50603522 -56.57100473 169.44429834 -56.55988312 159.38248444 C-56.54937987 150.15399858 -56.53264169 140.92563884 -56.49178743 131.69723094 C-56.47340956 127.35177842 -56.46954607 123.00662617 -56.47672272 118.66114402 C-56.47787646 116.61086537 -56.47225113 114.56074148 -56.46354675 112.51048279 C-56.45296545 110.00906055 -56.45314756 107.50756142 -56.46589661 105.00614929 C-56.45769394 103.90699692 -56.44949127 102.80784454 -56.44104004 101.67538452 C-56.44032753 100.71860495 -56.43961502 99.76182537 -56.43888092 98.77605247 C-56.0625 96.375 -56.0625 96.375 -54.78517914 94.56643105 C-51.73219929 92.45494384 -48.07686088 92.98829127 -44.5 93.0625 C-43.71947266 93.05927734 -42.93894531 93.05605469 -42.13476562 93.05273438 C-36.32966981 93.10783019 -36.32966981 93.10783019 -34.0625 95.375 C-33.80802441 97.73274231 -33.80802441 97.73274231 -33.80180359 100.74926758 C-33.79471878 101.89030441 -33.78763397 103.03134125 -33.78033447 104.20695496 C-33.78281189 105.46510513 -33.78528931 106.72325531 -33.7878418 108.01953125 C-33.78349603 109.35334052 -33.77831334 110.68714728 -33.77235413 112.02095032 C-33.75892883 115.6515808 -33.75839003 119.28210739 -33.76091743 122.91275787 C-33.76198613 125.94650995 -33.75710565 128.98024093 -33.752312 132.01398849 C-33.7412017 139.17910076 -33.74078601 146.34416062 -33.74682617 153.50927734 C-33.75284947 160.88572633 -33.74060051 168.26198378 -33.7192561 175.63840008 C-33.70158966 181.97825933 -33.69564721 188.31805793 -33.69889385 194.65794086 C-33.70070101 198.44100962 -33.69812879 202.22394217 -33.68417931 206.00698853 C-33.67152563 209.57259625 -33.67361552 213.13790856 -33.68659019 216.70351219 C-33.69005313 218.62195493 -33.67882974 220.54040699 -33.66702271 222.45881653 C-33.728443 232.64775182 -35.18519176 241.34723011 -41.8359375 249.328125 C-49.84355666 256.68951524 -59.61009543 258.74822427 -70.15625 258.578125 C-81.1278676 257.81129151 -90.59010116 252.54798843 -100.0625 247.375 C-101.03670898 246.84342285 -102.01091797 246.3118457 -103.01464844 245.76416016 C-106.23165518 243.99088569 -109.43038722 242.18827646 -112.625 240.375 C-114.15966919 239.52168091 -114.15966919 239.52168091 -115.7253418 238.65112305 C-124.15107118 233.78321667 -130.3017868 228.9537253 -133.0625 219.375 C-133.31697559 216.50106907 -133.31697559 216.50106907 -133.32319641 213.46156311 C-133.33028122 212.30227798 -133.33736603 211.14299286 -133.34466553 209.94857788 C-133.34218811 208.69074493 -133.33971069 207.43291199 -133.3371582 206.13696289 C-133.34150935 204.78784402 -133.34669384 203.43872762 -133.35264587 202.08961487 C-133.36600344 198.4366961 -133.36661821 194.783881 -133.36408257 191.13094258 C-133.36301072 188.07682449 -133.36790166 185.02272719 -133.372688 181.96861356 C-133.38377182 174.76136774 -133.38422683 167.55417404 -133.37817383 160.34692383 C-133.37213331 152.9214813 -133.38444952 145.49622822 -133.4057439 138.07081801 C-133.42337839 131.68591484 -133.42935837 125.30107188 -133.42610615 118.91614527 C-133.4242962 115.10696313 -133.42690068 111.29791618 -133.44082069 107.48875618 C-133.45342473 103.90586865 -133.45143088 100.32327585 -133.43840981 96.74039268 C-133.43492867 94.80590415 -133.44620283 92.87140651 -133.45797729 90.93695068 C-133.40435571 82.05312853 -132.11515981 75.83661606 -126.02636719 69.12548828 C-121.90221811 65.44943795 -117.00650576 62.95983865 -112.1875 60.3125 C-111.02389005 59.65971515 -109.86114355 59.00538902 -108.69921875 58.34960938 C-106.315593 57.00524249 -103.92890066 55.66658125 -101.54003906 54.33154297 C-96.34418 51.40823389 -91.20359563 48.39323473 -86.0625 45.375 C-76.66258025 39.87864726 -67.23557103 34.4303822 -57.79980469 28.99584961 C-50.28963791 24.66752698 -42.79663071 20.31066824 -35.3125 15.9375 C-21.51968117 7.88432046 -21.51968117 7.88432046 -15.75 4.5625 C-14.17798828 3.65564453 -14.17798828 3.65564453 -12.57421875 2.73046875 C-8.29719933 0.42234163 -4.81607418 0.12738345 0 0 Z " fill="#549E43" transform="translate(133.0625,-0.375)"/>
<path d="M0 0 C6.06633052 6.42486069 9.36519401 15.3077549 9.25 24.0625 C9.24097656 24.95453125 9.23195313 25.8465625 9.22265625 26.765625 C9.21105469 27.44109375 9.19945312 28.1165625 9.1875 28.8125 C5.91728041 30.44760979 2.34016249 30.03878299 -1.25 30.0625 C-2.02666016 30.083125 -2.80332031 30.10375 -3.60351562 30.125 C-9.38138827 30.16481308 -9.38138827 30.16481308 -11.49682617 28.43603516 C-13.15337091 26.39186695 -13.8342816 24.42164915 -14.6875 21.9375 C-16.6544387 16.87650043 -18.60058112 13.50411061 -23.5703125 10.88671875 C-35.51000786 6.09722118 -54.20803691 6.15714337 -66.0859375 11.203125 C-70.34161792 13.68309491 -70.34161792 13.68309491 -72.4296875 17.93359375 C-72.9665092 22.63772092 -72.9665092 22.63772092 -71.9375 27.1875 C-64.0765045 33.1988495 -51.74585061 33.3693358 -42.25 34.75 C0.31321952 40.94017893 0.31321952 40.94017893 10.1875 53.8125 C15.31841784 62.67327324 15.25905428 72.64123622 12.75 82.3125 C9.43893959 92.17597471 2.6625056 98.71365079 -6.3515625 103.63671875 C-17.58892236 109.00567957 -29.73229481 110.19161844 -42.0625 110.125 C-43.15006592 110.12008545 -44.23763184 110.1151709 -45.3581543 110.11010742 C-61.91090173 109.87088814 -79.68247303 107.15913459 -91.8125 94.8125 C-97.93282322 86.96076956 -101.88205866 76.86635143 -100.8125 66.8125 C-97.98523016 63.98523016 -95.84474876 64.52278191 -91.98046875 64.49023438 C-90.65982422 64.49506836 -90.65982422 64.49506836 -89.3125 64.5 C-88.43207031 64.48388672 -87.55164063 64.46777344 -86.64453125 64.45117188 C-85.80277344 64.45052734 -84.96101563 64.44988281 -84.09375 64.44921875 C-83.32095703 64.44623779 -82.54816406 64.44325684 -81.75195312 64.44018555 C-81.11193359 64.56304932 -80.47191406 64.68591309 -79.8125 64.8125 C-77.92023374 67.65089939 -77.27292556 69.45391166 -76.4375 72.6875 C-75.18265974 76.89886634 -74.20868487 79.85172344 -70.8125 82.8125 C-56.42841923 90.20571634 -35.47831467 90.23160748 -20.08203125 85.76171875 C-15.20123394 83.7433871 -15.20123394 83.7433871 -11.6328125 80.015625 C-9.95374401 75.29914048 -9.20110203 71.74148203 -10.8125 66.8125 C-15.02546627 63.44212698 -19.10159089 61.8807667 -24.3125 60.8125 C-25.44147705 60.56777954 -25.44147705 60.56777954 -26.59326172 60.31811523 C-34.31554465 58.73962312 -42.12012785 57.84238652 -49.9375 56.875 C-81.53464347 52.89847545 -81.53464347 52.89847545 -92.1875 39.9375 C-96.87134156 33.21720559 -97.60185681 25.85179553 -96.8125 17.8125 C-95.58802512 11.75268999 -93.70897653 6.68309566 -89.8125 1.8125 C-89.36519531 1.24917969 -88.91789062 0.68585938 -88.45703125 0.10546875 C-81.55425362 -7.71767923 -70.99509561 -11.77425719 -60.8125 -13.1875 C-60.06742188 -13.30867188 -59.32234375 -13.42984375 -58.5546875 -13.5546875 C-38.40021754 -16.14507392 -15.62569982 -13.98617243 0 0 Z " fill="#559D44" transform="translate(208.8125,103.1875)"/>
<path d="M0 0 C0.78552246 0.01047363 1.57104492 0.02094727 2.38037109 0.03173828 C3.23115234 0.03818359 4.08193359 0.04462891 4.95849609 0.05126953 C6.29267578 0.07640625 6.29267578 0.07640625 7.65380859 0.10205078 C8.99958984 0.11558594 8.99958984 0.11558594 10.37255859 0.12939453 C12.59157445 0.15300108 14.81005937 0.18592768 17.02880859 0.22705078 C13.50549575 3.11875463 11.62541606 3.61825142 7.02880859 3.22705078 C6.03880859 2.89705078 5.04880859 2.56705078 4.02880859 2.22705078 C1.67692412 2.82498751 -0.66044736 3.48586873 -2.97119141 4.22705078 C-3.30119141 5.54705078 -3.63119141 6.86705078 -3.97119141 8.22705078 C-4.09619141 5.35205078 -4.09619141 5.35205078 -3.97119141 2.22705078 C-1.97119141 0.22705078 -1.97119141 0.22705078 0 0 Z " fill="#609654" transform="translate(111.97119140625,167.77294921875)"/>
<path d="M0 0 C6.36559573 0.49126929 12.69264693 0.99655747 19 2 C19 2.33 19 2.66 19 3 C13.06 3.33 7.12 3.66 1 4 C0.67 2.68 0.34 1.36 0 0 Z " fill="#5E9454" transform="translate(148,136)"/>
<path d="M0 0 C0.66 0.33 1.32 0.66 2 1 C-0.594903 3.13697894 -3.14595791 5.09122369 -6 6.875 C-9.40407771 9.28622171 -11.4615143 11.71490086 -14 15 C-14 10.96351573 -12.46999888 9.71047494 -9.859375 6.7890625 C-6.95584542 3.99533026 -3.71185996 1.60512863 0 0 Z " fill="#5B9A4E" transform="translate(17,62)"/>
<path d="M0 0 C0.33 0.66 0.66 1.32 1 2 C3.02463255 2.65213292 3.02463255 2.65213292 5 3 C5 3.66 5 4.32 5 5 C-0.94 5.495 -0.94 5.495 -7 6 C-6.34 5.01 -5.68 4.02 -5 3 C-3.68 3 -2.36 3 -1 3 C-0.67 2.01 -0.34 1.02 0 0 Z " fill="#609A4D" transform="translate(153,106)"/>
<path d="M0 0 C3.16020751 0.07483187 6.11068996 0.41829749 9.1875 1.1875 C9.1875 1.8475 9.1875 2.5075 9.1875 3.1875 C4.03578377 3.27788099 -0.73163204 3.03431133 -5.8125 2.1875 C-3.8125 0.1875 -3.8125 0.1875 0 0 Z " fill="#5F9657" transform="translate(155.8125,156.8125)"/>
<path d="M0 0 C0.66 0.33 1.32 0.66 2 1 C1.67 1.99 1.34 2.98 1 4 C-0.32 4 -1.64 4 -3 4 C-3.33 4.99 -3.66 5.98 -4 7 C-4.99 6.67 -5.98 6.34 -7 6 C-4.74259377 3.66475218 -2.7194239 1.81294927 0 0 Z " fill="#5B9851" transform="translate(74,29)"/>
<path d="M0 0 C-3.63 1.98 -7.26 3.96 -11 6 C-9.17559425 0.52678274 -5.4446504 -1.3611626 0 0 Z " fill="#5E9952" transform="translate(104,37)"/>
<path d="M0 0 C-0.99 0.66 -1.98 1.32 -3 2 C-3.99 1.67 -4.98 1.34 -6 1 C-6 1.66 -6 2.32 -6 3 C-7.98 3 -9.96 3 -12 3 C-8.62803192 -0.37196808 -4.5120049 -1.50400163 0 0 Z " fill="#5D9B4E" transform="translate(146,92)"/>
<path d="M0 0 C-3.625 3 -3.625 3 -7 3 C-7 2.34 -7 1.68 -7 1 C-7.99 0.67 -8.98 0.34 -10 0 C-6.33694766 -0.74926071 -3.57644848 -1.2380014 0 0 Z " fill="#619355" transform="translate(183,192)"/>
<path d="M0 0 C1.98 0 3.96 0 6 0 C3.64722731 2.72426311 1.37503669 3.8141763 -2 5 C-2 4.34 -2 3.68 -2 3 C-1.34 3 -0.68 3 0 3 C0 2.01 0 1.02 0 0 Z " fill="#5D9852" transform="translate(155,288)"/>
<path d="M0 0 C1.10844919 3.32534757 0.84454356 5.62182575 0 9 C-2 7 -2 7 -2.25 4.5 C-2 2 -2 2 0 0 Z " fill="#619556" transform="translate(135,119)"/>
</svg>
