<?xml version="1.0" encoding="UTF-8"?>
<svg version="1.1" xmlns="http://www.w3.org/2000/svg" width="180" height="180">
<path d="M0 0 C9.31032626 7.92245154 17.20734452 17.95309474 22.453125 29.015625 C22.95585937 30.06234375 23.45859375 31.1090625 23.9765625 32.1875 C33.42747174 52.93339833 35.32050064 78.32493795 27.453125 100.015625 C18.96282465 122.09366306 4.08686905 140.75704314 -17.546875 151.015625 C-18.59359375 151.51835937 -19.6403125 152.02109375 -20.71875 152.5390625 C-41.46464833 161.98997174 -66.85618795 163.88300064 -88.546875 156.015625 C-110.62491306 147.52532465 -129.28829314 132.64936905 -139.546875 111.015625 C-140.30097656 109.44554687 -140.30097656 109.44554687 -141.0703125 107.84375 C-150.52122174 87.09785167 -152.41425064 61.70631205 -144.546875 40.015625 C-136.05657465 17.93758694 -121.18061905 -0.72579314 -99.546875 -10.984375 C-98.50015625 -11.48710937 -97.4534375 -11.98984375 -96.375 -12.5078125 C-64.16700198 -27.18034493 -27.62523516 -21.52395623 0 0 Z " fill="#F03E2F" transform="translate(148.546875,19.984375)"/>
<path d="M0 0 C1.10400146 0.01208496 2.20800293 0.02416992 3.34545898 0.03662109 C17.60691119 0.38489899 26.96698029 4.42307504 36.875 14.75 C41.21786215 19.79387533 44.625 25.70725658 44.625 32.5 C40.91773774 32.73344349 37.2123688 32.87476346 33.5 33 C31.92992188 33.10054687 31.92992188 33.10054687 30.328125 33.203125 C22.64411939 33.39765679 22.64411939 33.39765679 19.66259766 30.77148438 C18.09375 28.625 18.09375 28.625 16.84960938 26.4765625 C14.60256384 22.84975217 11.6832749 21.48863238 7.625 20.5 C0.23205346 19.62300114 -7.12256962 19.03537124 -13.6875 23.125 C-17.00808978 25.81822645 -19.05443545 28.36223106 -20.375 32.5 C-20.41138143 34.16626954 -20.41714504 35.83386628 -20.375 37.5 C-12.39811096 41.5765619 -4.70507177 43.79698211 4.0625 45.5 C19.24228161 48.45855234 33.15323485 52.53611942 42.625 65.5 C46.66283618 72.06859267 46.62258335 80.05834999 45.625 87.5 C43.32604551 94.15930484 40.12805452 99.98467322 34.625 104.5 C33.8721875 105.14582031 33.119375 105.79164063 32.34375 106.45703125 C29.53153515 108.57023292 26.93777219 109.86145587 23.6875 111.1875 C22.68847656 111.60386719 21.68945312 112.02023438 20.66015625 112.44921875 C7.9591699 116.84634272 -8.21013244 115.8605078 -20.375 110.5 C-30.19132267 105.69567847 -37.12851308 99.63608686 -41.375 89.5 C-41.7875 88.571875 -42.2 87.64375 -42.625 86.6875 C-43.375 84.5 -43.375 84.5 -43.375 81.5 C-35.125 81.5 -26.875 81.5 -18.375 81.5 C-17.385 83.48 -16.395 85.46 -15.375 87.5 C-9.82948812 93.04551188 -4.67709704 94.55552604 3 94.8125 C10.0241622 94.6390639 16.0444197 93.59913674 21.0625 88.375 C24.08814275 84.46094138 24.98921905 80.3341276 25.625 75.5 C14.9112806 71.79889693 4.06383032 68.4083793 -7.02392578 66.02978516 C-18.11843488 63.63361156 -29.46019703 60.14990609 -36.375 50.5 C-40.89012929 42.99275518 -41.36973855 35.08087594 -40.375 26.5 C-39.45957326 23.18096616 -38.15910224 20.43437869 -36.375 17.5 C-36.024375 16.87609375 -35.67375 16.2521875 -35.3125 15.609375 C-27.7754431 3.57102022 -13.31555656 -0.23259497 0 0 Z " fill="#FEFCFC" transform="translate(88.375,32.5)"/>
<path d="M0 0 C4.85797066 1.14305192 6.96247847 3.94286779 9.70703125 7.8515625 C12.73021336 12.87497688 13.75003164 18.21404164 13 24 C7.45043923 31.28379851 -1.84669641 35.71544173 -10.67578125 37.55859375 C-26.99897088 39.72606781 -42.42092988 37.96914127 -56 28 C-61.23701004 23.71975141 -64.39847182 19.20967782 -67 13 C-67.4125 12.071875 -67.825 11.14375 -68.25 10.1875 C-69 8 -69 8 -69 5 C-60.75 5 -52.5 5 -44 5 C-43.01 6.98 -42.02 8.96 -41 11 C-35.45448812 16.54551188 -30.30209704 18.05552604 -22.625 18.3125 C-16.5504803 18.16251186 -11.01761603 17.4477658 -6.1796875 13.5234375 C-2.27297309 9.39024689 -0.97300121 5.54610693 0 0 Z " fill="#F8AFA9" transform="translate(114,109)"/>
<path d="M0 0 C1.10400146 0.01208496 2.20800293 0.02416992 3.34545898 0.03662109 C17.60691119 0.38489899 26.96698029 4.42307504 36.875 14.75 C41.21786215 19.79387533 44.625 25.70725658 44.625 32.5 C40.91773774 32.73344349 37.2123688 32.87476346 33.5 33 C31.92992188 33.10054687 31.92992188 33.10054687 30.328125 33.203125 C22.64411939 33.39765679 22.64411939 33.39765679 19.66259766 30.77148438 C18.09375 28.625 18.09375 28.625 16.84960938 26.4765625 C14.60256384 22.84975217 11.6832749 21.48863238 7.625 20.5 C0.23205346 19.62300114 -7.12256962 19.03537124 -13.6875 23.125 C-18.52393389 27.04020839 -20.47758956 31.397609 -21.375 37.5 C-28.43080429 33.3977882 -31.90276214 28.65727366 -34.4375 20.875 C-35.59125084 15.98656438 -35.59125084 15.98656438 -34.125 12.6875 C-23.3558868 4.12115995 -13.93400076 -0.2433979 0 0 Z " fill="#F8AFA9" transform="translate(88.375,32.5)"/>
</svg>
