<?xml version="1.0" encoding="UTF-8"?>
<svg version="1.1" xmlns="http://www.w3.org/2000/svg" width="225" height="225">
<path d="M0 0 C74.25 0 148.5 0 225 0 C225 74.25 225 148.5 225 225 C150.75 225 76.5 225 0 225 C0 150.75 0 76.5 0 0 Z " fill="#FEFEFE" transform="translate(0,0)"/>
<path d="M0 0 C3.24495029 0.92328835 3.24495029 0.92328835 5.24495029 2.61078835 C6.64594399 5.85058627 6.18224524 7.52989581 5.24495029 10.92328835 C3.55349903 13.09193751 1.94964014 14.89511937 0.0019846 16.80117226 C-0.82599163 17.64084841 -0.82599163 17.64084841 -1.67069465 18.49748772 C-3.5213175 20.36803621 -5.38927906 22.22022401 -7.25773525 24.07294655 C-8.58907227 25.41105937 -9.9193434 26.7502334 -11.24862576 28.09038734 C-14.86116119 31.72572661 -18.48934661 35.34506022 -22.12121081 38.96107697 C-25.91890058 42.74611363 -29.7043822 46.54332785 -33.49182034 50.33861732 C-39.85436448 56.71025969 -46.22738243 63.0712833 -52.60636806 69.42646217 C-59.98265078 76.77553357 -67.34074776 84.14244457 -74.68965596 91.5188821 C-80.99814676 97.85005781 -87.31632331 104.17144352 -93.64270717 110.48473996 C-97.42187598 114.25611098 -101.19757901 118.03078506 -104.96458912 121.81430435 C-108.50654548 125.37069689 -112.06049605 128.91464865 -115.62410069 132.44934464 C-116.93049619 133.74912495 -118.23264822 135.05318629 -119.53021908 136.36177635 C-121.30123123 138.14643706 -123.0869025 139.91500463 -124.87716579 141.68032265 C-125.38817559 142.20248606 -125.89918539 142.72464946 -126.42568034 143.26263601 C-129.70395925 146.45279466 -132.14015318 147.85846702 -136.75504971 147.92328835 C-139.70970495 145.73941273 -141.48570615 144.28632947 -142.21235657 140.60903931 C-141.55319753 136.7378159 -139.26273708 134.72967131 -136.56313992 132.07627296 C-135.72525302 131.22351109 -135.72525302 131.22351109 -134.87043911 130.3535217 C-132.99147414 128.44754172 -131.09505467 126.55995274 -129.19816494 124.6718235 C-127.84891218 123.31088709 -126.5007058 121.94891259 -125.15347195 120.58597755 C-121.487446 116.88428263 -117.80546367 113.19885833 -114.11935592 109.51717234 C-111.04579728 106.44480138 -107.97958214 103.36515276 -104.91319424 100.28562772 C-97.68034448 93.02242646 -90.43404394 85.77283676 -83.17961025 78.5311985 C-75.69010842 71.05438266 -68.22486922 63.55394866 -60.77095932 56.04166377 C-54.37506804 49.5975122 -47.96386044 43.16888381 -41.54021698 36.75239599 C-37.70173764 32.91780339 -33.86954657 29.07740783 -30.05219746 25.22176933 C-26.46245896 21.59727829 -22.85403794 17.99250352 -19.23020267 14.40211296 C-17.90223249 13.07993602 -16.58107947 11.75087192 -15.26729488 10.41459846 C-13.47467342 8.59345689 -11.65925821 6.79863497 -9.83584499 5.00840187 C-9.31928402 4.47194876 -8.80272304 3.93549566 -8.27050871 3.38278639 C-5.35916209 0.58333836 -4.10631189 -0.08388757 0 0 Z " fill="#151516" transform="translate(169.75504970550537,28.076711654663086)"/>
<path d="M0 0 C2.4375 1.6875 2.4375 1.6875 4 4 C4.42201959 7.10974762 4.320813 8.52561347 2.54568481 11.15049744 C1.84241058 11.88579178 1.13913635 12.62108612 0.41455078 13.37866211 C-0.41284607 14.25223358 -1.24024292 15.12580505 -2.0927124 16.02584839 C-3.0608251 17.01819237 -4.02998014 18.0095202 -5 19 C-6.08045283 20.11709377 -7.16070483 21.23438181 -8.24078369 22.35183716 C-12.01431748 26.23864074 -15.82046206 30.09271371 -19.6328125 33.94140625 C-20.32190578 34.63707136 -21.01099907 35.33273647 -21.72097397 36.04948235 C-25.35662793 39.71746475 -28.99617158 43.3815443 -32.63818359 47.04321289 C-35.64121036 50.06416158 -38.63545273 53.09343617 -41.62255859 56.13012695 C-45.25067406 59.81835357 -48.89322652 63.49171337 -52.54665756 67.15485954 C-53.93045819 68.54721161 -55.30912378 69.94468724 -56.6824379 71.3473835 C-58.5988578 73.30264315 -60.53328868 75.23819432 -62.47314453 77.17016602 C-63.31185593 78.03887833 -63.31185593 78.03887833 -64.16751099 78.92514038 C-67.8919582 82.58212335 -70.57080336 83.92990911 -76 84 C-78.4375 82.5 -78.4375 82.5 -80 80 C-80.53942093 76.62527941 -80.74200844 74.16042099 -78.84763908 71.19783211 C-77.1160514 69.20287774 -75.29771711 67.35212631 -73.40991211 65.50415039 C-72.70914551 64.79111755 -72.00837891 64.07808472 -71.28637695 63.34344482 C-68.96732571 60.99360853 -66.6236285 58.6702776 -64.27734375 56.34765625 C-62.65640869 54.72200565 -61.03651395 53.09531715 -59.4176178 51.46763611 C-56.02153453 48.0612338 -52.61311511 44.66781126 -49.19555664 41.28295898 C-44.81565964 36.94294397 -40.46793963 32.57226007 -36.12897396 28.19136906 C-32.78986327 24.82696448 -29.43425973 21.47941035 -26.0734272 18.13671684 C-24.46352708 16.53148657 -22.85881149 14.9210393 -21.25941277 13.30534554 C-19.02139398 11.04954919 -16.76215975 8.81741091 -14.49584961 6.59008789 C-13.83841263 5.91848129 -13.18097565 5.24687469 -12.50361633 4.55491638 C-8.41427643 0.59496299 -5.95607396 -0.96781171 0 0 Z " fill="#18181A" transform="translate(186,106)"/>
</svg>
