<?xml version="1.0" encoding="UTF-8"?>
<svg version="1.1" xmlns="http://www.w3.org/2000/svg" width="498" height="498">
<path d="M0 0 C2.53219198 -0.00271712 5.06438316 -0.00628206 7.59657288 -0.01062012 C13.70653216 -0.01872621 19.81642668 -0.01763273 25.92638666 -0.01179484 C30.8999737 -0.007243 35.87354701 -0.00668048 40.84713554 -0.00884247 C41.56010972 -0.00914893 42.2730839 -0.0094554 43.00766335 -0.00977115 C44.45689651 -0.01041072 45.90612967 -0.01105915 47.35536283 -0.01171634 C60.88361916 -0.01739328 74.41184821 -0.01090319 87.94010007 -0.0001156 C99.50239805 0.00881943 111.06465586 0.00726311 122.62695312 -0.00195312 C136.11460909 -0.01269931 149.60224126 -0.01684623 163.08990091 -0.0107286 C164.53293542 -0.01009162 165.97596993 -0.00946288 167.41900444 -0.00884247 C168.12866413 -0.00853392 168.83832381 -0.00822537 169.56948834 -0.00790747 C174.52716197 -0.00619366 179.48482028 -0.00906692 184.44249153 -0.01380157 C191.13628905 -0.02005491 197.82999996 -0.01549045 204.52379417 -0.00401306 C206.96488445 -0.00139229 209.40598116 -0.00208672 211.84706879 -0.00653839 C238.8475738 -0.05119858 267.78707261 0.87689324 292.06616211 14.25878906 C292.39616211 14.91878906 292.72616211 15.57878906 293.06616211 16.25878906 C294.27272461 16.47535156 294.27272461 16.47535156 295.50366211 16.69628906 C298.06616211 17.25878906 298.06616211 17.25878906 300.06616211 20.25878906 C301.30366211 20.72285156 301.30366211 20.72285156 302.56616211 21.19628906 C305.58802636 22.48058137 305.69349345 23.4219405 307.06616211 26.25878906 C307.68491211 26.40316406 308.30366211 26.54753906 308.94116211 26.69628906 C312.08535306 27.5285749 313.06189445 29.73913829 315.06616211 32.25878906 C316.25278475 33.12275701 317.46286019 33.95517953 318.69116211 34.75878906 C321.79261153 36.85077315 323.10907319 38.5367766 324.06616211 42.25878906 C324.72616211 42.25878906 325.38616211 42.25878906 326.06616211 42.25878906 C327.57397461 44.12207031 327.57397461 44.12207031 329.19116211 46.57128906 C329.72999023 47.37179688 330.26881836 48.17230469 330.82397461 48.99707031 C332.06616211 51.25878906 332.06616211 51.25878906 332.06616211 54.25878906 C332.72616211 54.25878906 333.38616211 54.25878906 334.06616211 54.25878906 C334.06616211 54.91878906 334.06616211 55.57878906 334.06616211 56.25878906 C334.72616211 56.58878906 335.38616211 56.91878906 336.06616211 57.25878906 C336.78189738 58.90498019 337.43790171 60.57726859 338.06616211 62.25878906 C338.54053711 63.27972656 339.01491211 64.30066406 339.50366211 65.35253906 C342.72478216 72.37458078 344.77609768 78.577953 345.70678711 86.32128906 C346.01223486 88.81799242 346.45749684 91.13662799 347.06616211 93.57128906 C349.54623287 104.33794546 350.31056258 115.1378658 350.03881836 126.14941406 C350.06213767 128.80115254 350.34857135 130.74444005 351.06616211 133.25878906 C351.06616211 136.05893399 350.84611297 138.72483328 350.56616211 141.50878906 C349.51673196 149.06180563 349.51673196 149.06180563 351.06616211 156.25878906 C350.952019 157.6598957 350.77667991 159.05639312 350.56616211 160.44628906 C350.03405269 164.5900912 350.42976343 168.12219765 351.06616211 172.25878906 C350.74065709 173.92700229 350.40770148 175.59378463 350.06616211 177.25878906 C350.39287114 179.25988184 350.72593425 181.25995037 351.06616211 183.25878906 C350.90116211 183.89816406 350.73616211 184.53753906 350.56616211 185.19628906 C349.81419826 188.29813993 350.6028511 191.13143977 351.06616211 194.25878906 C350.73616211 194.91878906 350.40616211 195.57878906 350.06616211 196.25878906 C350.39616211 197.24878906 350.72616211 198.23878906 351.06616211 199.25878906 C351.14879651 201.13094693 351.17357151 203.00592753 351.16381836 204.87988281 C351.1605957 205.98009766 351.15737305 207.0803125 351.15405273 208.21386719 C351.14567383 209.36306641 351.13729492 210.51226562 351.12866211 211.69628906 C351.12415039 212.84162109 351.11963867 213.98695313 351.11499023 215.16699219 C351.10626527 217.2971296 351.09549033 219.42726028 351.08203125 221.55737305 C351.06890922 223.79114611 351.06616211 226.02497746 351.06616211 228.25878906 C350.88053711 229.02191406 350.69491211 229.78503906 350.50366211 230.57128906 C349.94656225 233.99347389 350.55988432 236.82735072 351.06616211 240.25878906 C351.19958099 243.59426116 351.28322165 246.92628676 351.06616211 250.25878906 C350.73616211 250.58878906 350.40616211 250.91878906 350.06616211 251.25878906 C350.23116211 252.20753906 350.39616211 253.15628906 350.56616211 254.13378906 C351.06616211 257.25878906 351.06616211 257.25878906 350.06616211 260.25878906 C350.39376145 262.59293435 350.72689264 264.92631146 351.06616211 267.25878906 C350.73616211 267.91878906 350.40616211 268.57878906 350.06616211 269.25878906 C350.39616211 269.58878906 350.72616211 269.91878906 351.06616211 270.25878906 C351.16406781 271.75617031 351.19591075 273.25821798 351.19116211 274.75878906 C351.19374023 275.57347656 351.19631836 276.38816406 351.19897461 277.22753906 C351.06616211 279.25878906 351.06616211 279.25878906 350.06616211 280.25878906 C350.23116211 281.14566406 350.39616211 282.03253906 350.56616211 282.94628906 C351.08649778 286.39351285 350.74465915 288.86630384 350.06616211 292.25878906 C349.99288778 295.33282667 349.99288778 295.33282667 350.56616211 298.63378906 C351.60670265 306.17770798 351.60670265 306.17770798 350.06616211 309.25878906 C350.18191483 310.76357446 350.35802404 312.26397927 350.56616211 313.75878906 C351.097871 318.34477823 350.8758828 322.47278335 350.22241211 327.03222656 C350.05818448 329.37247023 350.43859884 331.01617325 351.06616211 333.25878906 C351.06616211 336.25878906 351.06616211 336.25878906 350.50366211 338.69628906 C350.0535186 341.33284391 350.36940635 342.73304945 351.06616211 345.25878906 C350.73616211 345.91878906 350.40616211 346.57878906 350.06616211 347.25878906 C350.15507369 349.38693076 350.31060624 351.51255787 350.50366211 353.63378906 C351.35189403 363.14687106 351.35189403 363.14687106 350.56225586 366.21972656 C349.99665556 368.5444774 350.04140221 370.4936265 350.12866211 372.88378906 C350.24711975 385.52491127 349.06584201 400.25974936 345.06616211 412.25878906 C344.87538086 413.02191406 344.68459961 413.78503906 344.48803711 414.57128906 C340.39949544 430.92545573 340.39949544 430.92545573 335.06616211 436.25878906 C334.78772461 436.99613281 334.50928711 437.73347656 334.22241211 438.49316406 C332.7878555 441.92446838 330.81188191 444.54852206 328.56616211 447.50878906 C328.16268555 448.05019531 327.75920898 448.59160156 327.34350586 449.14941406 C324.33093827 453.12640098 324.33093827 453.12640098 322.06616211 454.25878906 C321.96303711 454.85691406 321.85991211 455.45503906 321.75366211 456.07128906 C320.75439004 459.2507911 318.70203767 460.28188239 316.06616211 462.25878906 C314.92147461 463.46535156 314.92147461 463.46535156 313.75366211 464.69628906 C310.93338414 467.38539131 308.09529723 469.20814154 304.73803711 471.14550781 C302.90567764 472.16591869 302.90567764 472.16591869 302.06616211 474.25878906 C301.07616211 474.25878906 300.08616211 474.25878906 299.06616211 474.25878906 C298.44741211 474.87753906 297.82866211 475.49628906 297.19116211 476.13378906 C294.89337802 478.43157316 293.13773673 479.28881813 290.06616211 480.25878906 C289.40616211 480.25878906 288.74616211 480.25878906 288.06616211 480.25878906 C288.06616211 480.91878906 288.06616211 481.57878906 288.06616211 482.25878906 C270.2982075 490.28853778 249.47448784 493.79746683 230.03491211 493.29785156 C227.40856193 493.26329432 224.97879351 493.42932036 222.37866211 493.75878906 C214.33582605 494.72013815 206.15159906 494.33163084 198.06616211 494.25878906 C196.75698801 494.25878906 195.44782674 494.26756163 194.13867188 494.2746582 C190.71109401 494.29169152 187.28356079 494.30421331 183.85595703 494.3137207 C182.37287692 494.31876022 180.8898018 494.32559184 179.40673828 494.33422852 C177.2736692 494.34633339 175.14066547 494.35202545 173.00756836 494.35644531 C171.72567627 494.36168213 170.44378418 494.36691895 169.12304688 494.37231445 C166.06616211 494.25878906 166.06616211 494.25878906 164.06616211 493.25878906 C162.51463529 493.50013768 160.9634333 493.74373624 159.41381836 493.99707031 C154.33912026 494.56280205 149.16202674 494.50988964 144.06616211 494.25878906 C143.73616211 493.92878906 143.40616211 493.59878906 143.06616211 493.25878906 C142.40616211 493.58878906 141.74616211 493.91878906 141.06616211 494.25878906 C138.94226517 494.33034893 136.81615558 494.34277776 134.69116211 494.32128906 C133.54905273 494.31226563 132.40694336 494.30324219 131.23022461 494.29394531 C130.18608398 494.28234375 129.14194336 494.27074219 128.06616211 494.25878906 C124.3835862 494.25878906 120.7011188 494.26589274 117.01855469 494.2746582 C109.88788932 494.29099215 102.75722492 494.30223427 95.62654591 494.31060123 C91.3122183 494.31584015 86.99791016 494.32296292 82.68359375 494.33422852 C78.50985713 494.34505572 74.33613933 494.35106483 70.16238976 494.35366631 C68.56950266 494.35551908 66.97661664 494.35913689 65.38373756 494.36451912 C63.16433053 494.37172847 60.9450027 494.37278012 58.72558594 494.37231445 C57.4607991 494.37453506 56.19601227 494.37675568 54.89289856 494.37904358 C52.06616211 494.25878906 52.06616211 494.25878906 51.06616211 493.25878906 C49.56213778 493.35259796 48.0621384 493.51087741 46.56616211 493.69238281 C38.73802535 494.48101949 30.92255248 494.36675627 23.06616211 494.32128906 C21.55184069 494.31625971 20.03751763 494.31169936 18.52319336 494.30761719 C14.70415336 494.29638192 10.88517171 494.27775572 7.06616211 494.25878906 C4.49550844 494.25878906 1.92577583 494.27428669 -0.64477539 494.29394531 C-2.53279528 494.30325245 -4.42081617 494.31235923 -6.30883789 494.32128906 C-7.25500977 494.32966797 -8.20118164 494.33804687 -9.17602539 494.34667969 C-10.55274414 494.35151367 -10.55274414 494.35151367 -11.95727539 494.35644531 C-13.20903564 494.36430054 -13.20903564 494.36430054 -14.48608398 494.37231445 C-17.0605212 494.25291357 -19.41139399 493.77294746 -21.93383789 493.25878906 C-23.63988037 493.12990579 -25.34898551 493.0375115 -27.05883789 492.97753906 C-28.01274414 492.94015625 -28.96665039 492.90277344 -29.94946289 492.86425781 C-31.42672852 492.81205078 -31.42672852 492.81205078 -32.93383789 492.75878906 C-34.89230562 492.6895762 -36.85065064 492.61677883 -38.80883789 492.54003906 C-39.67250977 492.50974609 -40.53618164 492.47945313 -41.42602539 492.44824219 C-45.06424478 492.17339228 -48.31050481 491.4804186 -51.74633789 490.25878906 C-54.92824479 489.13699346 -54.92824479 489.13699346 -58.37133789 488.94628906 C-65.12021735 488.25951464 -71.57575924 485.50232984 -77.93383789 483.25878906 C-77.93383789 482.59878906 -77.93383789 481.93878906 -77.93383789 481.25878906 C-78.65571289 481.13503906 -79.37758789 481.01128906 -80.12133789 480.88378906 C-84.71011261 479.86406135 -87.68842548 478.65172022 -90.93383789 475.25878906 C-91.92383789 474.92878906 -92.91383789 474.59878906 -93.93383789 474.25878906 C-94.93383789 473.25878906 -95.93383789 472.25878906 -96.93383789 471.25878906 C-97.98571289 470.57816406 -99.03758789 469.89753906 -100.12133789 469.19628906 C-101.04946289 468.55691406 -101.97758789 467.91753906 -102.93383789 467.25878906 C-102.93383789 466.59878906 -102.93383789 465.93878906 -102.93383789 465.25878906 C-103.92383789 464.92878906 -104.91383789 464.59878906 -105.93383789 464.25878906 C-107.7011425 462.63875983 -109.31428021 461.0184166 -110.93383789 459.25878906 C-111.47266602 458.67871094 -112.01149414 458.09863281 -112.56665039 457.50097656 C-121.53187727 447.57088221 -132.15612132 434.99844849 -132.93383789 421.25878906 C-133.59383789 420.92878906 -134.25383789 420.59878906 -134.93383789 420.25878906 C-135.49633789 418.43847656 -135.49633789 418.43847656 -135.93383789 416.13378906 C-136.52092132 413.19371253 -137.1805587 410.45009308 -138.05883789 407.57128906 C-138.92829192 404.27978453 -138.93383789 401.63789279 -138.93383789 398.25878906 C-139.5538253 396.24382999 -140.21338025 394.24004756 -140.93383789 392.25878906 C-140.93383789 390.85639635 -140.92101781 389.45397264 -140.89868164 388.05175781 C-140.8896582 387.19195312 -140.88063477 386.33214844 -140.87133789 385.44628906 C-140.85973633 384.59421875 -140.84813477 383.74214844 -140.83618164 382.86425781 C-140.85929814 380.27769552 -140.85929814 380.27769552 -141.43774414 377.87207031 C-142.27043697 373.48568055 -141.94804618 369.08286964 -141.87133789 364.63378906 C-141.86551147 361.33331503 -142.11943498 358.11029944 -142.42993164 354.82519531 C-143.31803563 343.97529001 -143.03814673 333.07368596 -142.99633789 322.19628906 C-142.99131216 319.92871193 -142.98675115 317.66113371 -142.98266602 315.39355469 C-142.97290999 310.43320251 -142.95875963 305.47288613 -142.94056702 300.51255798 C-142.92977406 296.89770211 -142.93969076 293.2836471 -142.96899414 289.66894531 C-142.97827136 287.88639407 -142.98738034 286.10384194 -142.99633789 284.32128906 C-143.0047168 283.42732422 -143.0130957 282.53335937 -143.02172852 281.61230469 C-143.03766047 277.32023648 -142.84803284 273.4673802 -141.93383789 269.25878906 C-142.26383789 268.59878906 -142.59383789 267.93878906 -142.93383789 267.25878906 C-142.93383789 234.5921224 -142.93383789 201.92545573 -142.93383789 169.25878906 C-142.27383789 169.25878906 -141.61383789 169.25878906 -140.93383789 169.25878906 C-141.4249707 168.24171875 -141.4249707 168.24171875 -141.92602539 167.20410156 C-143.12921357 163.68780744 -143.12970495 160.84249865 -143.05883789 157.13378906 C-143.03176758 155.30460937 -143.03176758 155.30460937 -143.00415039 153.43847656 C-142.98094727 152.38917969 -142.95774414 151.33988281 -142.93383789 150.25878906 C-142.93383789 148.61291401 -142.93913439 146.96689323 -142.96899414 145.32128906 C-142.97801758 144.64066406 -142.98704102 143.96003906 -142.99633789 143.25878906 C-143.00793945 142.57816406 -143.01954102 141.89753906 -143.03149414 141.19628906 C-142.93383789 139.25878906 -142.93383789 139.25878906 -141.93383789 136.25878906 C-141.86274951 134.3980508 -141.84973243 132.53482193 -141.87133789 130.67285156 C-141.87907227 129.57714844 -141.88680664 128.48144531 -141.89477539 127.35253906 C-141.92072909 125.04785057 -141.94677016 122.74316306 -141.97290039 120.43847656 C-141.98063477 119.34019531 -141.98836914 118.24191406 -141.99633789 117.11035156 C-142.00793945 116.1082666 -142.01954102 115.10618164 -142.03149414 114.07373047 C-141.93694344 111.34830648 -141.52172509 108.91536572 -140.93383789 106.25878906 C-140.76563344 104.32310291 -140.62085995 102.38527536 -140.49633789 100.44628906 C-140.11247563 95.47435877 -139.23602938 91.06062019 -137.93383789 86.25878906 C-137.78946289 85.10378906 -137.64508789 83.94878906 -137.49633789 82.75878906 C-136.83322432 78.63274906 -135.52947715 75.10213171 -133.93383789 71.25878906 C-133.48008789 70.16566406 -133.02633789 69.07253906 -132.55883789 67.94628906 C-130.41692677 63.0210389 -128.1681961 58.14258389 -125.93383789 53.25878906 C-125.27383789 53.25878906 -124.61383789 53.25878906 -123.93383789 53.25878906 C-123.70696289 52.57816406 -123.48008789 51.89753906 -123.24633789 51.19628906 C-121.42735792 47.12523865 -119.04325821 42.31349922 -114.93383789 40.25878906 C-114.93383789 39.59878906 -114.93383789 38.93878906 -114.93383789 38.25878906 C-113.57055664 36.84863281 -113.57055664 36.84863281 -111.62133789 35.19628906 C-110.90075195 34.58269531 -110.18016602 33.96910156 -109.43774414 33.33691406 C-105.72950374 30.25924809 -102.00032066 27.20812958 -98.25415039 24.17675781 C-95.92527245 22.31322762 -95.92527245 22.31322762 -93.93383789 20.25878906 C-93.27383789 20.25878906 -92.61383789 20.25878906 -91.93383789 20.25878906 C-91.48008789 19.78441406 -91.02633789 19.31003906 -90.55883789 18.82128906 C-88.93383789 17.25878906 -88.93383789 17.25878906 -86.87133789 16.75878906 C-84.53696596 16.38611655 -84.53696596 16.38611655 -82.93383789 13.25878906 C-81.07042017 12.50078863 -79.20365537 11.744419 -77.29711914 11.10253906 C-74.76907234 10.23635339 -74.76907234 10.23635339 -71.76586914 8.82519531 C-67.40214402 6.94047583 -62.92098873 5.80727069 -58.30883789 4.69628906 C-57.51477539 4.48810547 -56.72071289 4.27992188 -55.90258789 4.06542969 C-37.68660773 -0.35014605 -18.61362108 -0.03397554 0 0 Z " fill="#4E26DF" transform="translate(144.933837890625,1.7412109375)"/>
<path d="M0 0 C40.79562686 -0.08060607 40.79562686 -0.08060607 57.84375 -0.09765625 C69.63185356 -0.10954017 81.41992861 -0.12353777 93.20800781 -0.15087891 C101.79182252 -0.17077866 110.37561418 -0.1837083 118.95945132 -0.18817699 C123.50686472 -0.19079018 128.05421215 -0.19695534 132.60160446 -0.21146011 C136.87787744 -0.22499016 141.154057 -0.22923197 145.43034935 -0.22621536 C147.00337035 -0.22676759 148.57639434 -0.23077222 150.1493969 -0.23841095 C152.29017458 -0.24830078 154.43059539 -0.24599102 156.57138062 -0.24050903 C157.77155508 -0.24235262 158.97172955 -0.24419621 160.20827293 -0.24609566 C163 0 163 0 165 2 C165.24609566 4.79172707 165.24609566 4.79172707 165.24050903 8.42861938 C165.24221788 9.09594727 165.24392673 9.76327515 165.24568737 10.4508251 C165.2489938 12.69730485 165.23795988 14.94348896 165.22705078 17.18994141 C165.22648692 18.79612725 165.22680275 20.4023136 165.22793579 22.00849915 C165.22851127 26.37812091 165.21672553 30.7476336 165.20278788 35.11722994 C165.1903129 39.6803104 165.18911258 44.24339316 165.18673706 48.80648804 C165.18051276 57.45148325 165.16408913 66.09642808 165.14403808 74.74140108 C165.11753599 86.42043457 165.10671411 98.09948178 165.09503365 109.77853775 C165.07620918 128.1857296 165.03636985 146.5928151 165 165 C138.27 165 111.54 165 84 165 C83.625 124.625 83.625 124.625 83.52197266 111.86572266 C83.48207414 108.09890809 83.48207414 108.09890809 83.43954468 104.3321228 C83.42183289 102.65141172 83.40803929 100.97065663 83.39730835 99.28988647 C83.3803202 96.74726737 83.35098987 94.20506418 83.31884766 91.66259766 C83.31558944 90.53513595 83.31558944 90.53513595 83.3122654 89.38489723 C83.37303258 85.23763975 83.37303258 85.23763975 81 82 C78.41199655 81.78263582 75.92815407 81.68863928 73.33740234 81.68115234 C72.53427423 81.67099909 71.73114613 81.66084583 70.9036808 81.6503849 C68.29777109 81.61969034 65.69197098 81.60257582 63.0859375 81.5859375 C61.4795639 81.5690091 59.8731994 81.55119315 58.2668457 81.5324707 C52.30300166 81.46920965 46.33898513 81.42315739 40.375 81.375 C27.05125 81.25125 13.7275 81.1275 0 81 C0 54.27 0 27.54 0 0 Z " fill="#FEFEFE" transform="translate(182,139)"/>
<path d="M0 0 C0.99 0.99 1.98 1.98 3 3 C2.34 3 1.68 3 1 3 C0.62294922 3.86818359 0.62294922 3.86818359 0.23828125 4.75390625 C-1.15592914 7.28283677 -2.73790358 8.9343046 -4.8125 10.9375 C-5.52921875 11.64003906 -6.2459375 12.34257813 -6.984375 13.06640625 C-8.49662891 14.51711495 -10.02553602 15.9504968 -11.5625 17.375 C-35.11367311 42.73780181 -35.15295963 77.5054106 -35.14526367 110.00976562 C-35.14825955 112.53915455 -35.15166307 115.06854303 -35.15544128 117.59793091 C-35.16333075 123.73203077 -35.16649411 129.8661165 -35.16705366 136.00022095 C-35.16753107 140.99448767 -35.16959696 145.98875125 -35.17275429 150.98301697 C-35.18154956 165.1875911 -35.18617557 179.39215771 -35.18542381 193.59673458 C-35.18538386 194.360486 -35.1853439 195.12423741 -35.18530273 195.91113281 C-35.18526185 196.67583261 -35.18522097 197.44053242 -35.18517885 198.22840494 C-35.18477296 210.60326939 -35.19433106 222.97810334 -35.2084411 235.35295898 C-35.22286295 248.10340402 -35.22970807 260.85383424 -35.22884732 273.60428762 C-35.2285173 280.7448973 -35.2311782 287.88547501 -35.24202538 295.02607727 C-35.25217542 301.75013421 -35.25173619 308.47411303 -35.24450874 315.19817734 C-35.24347179 317.65013096 -35.24577211 320.10208892 -35.2518692 322.55403519 C-35.33678116 359.10205704 -31.78794276 393.0515759 -5 420.3125 C-2.23860438 422.99924027 -2.23860438 422.99924027 1 425 C1 425.66 1 426.32 1 427 C1.66 427.20625 2.32 427.4125 3 427.625 C5.6197183 428.82570422 7.23467354 429.91102705 9.4375 431.6875 C18.21267887 438.35013581 27.50729801 442.21117783 38.125 444.8125 C38.90383545 445.007229 39.6826709 445.20195801 40.48510742 445.40258789 C58.26415565 449.40935762 76.6069881 449.29558637 94.72509766 449.2746582 C97.24740752 449.27901615 99.76971607 449.28420287 102.29202271 449.29014587 C108.38340701 449.30205857 114.4747304 449.30470128 120.56612404 449.30234561 C125.52824265 449.3005487 130.49034802 449.30234117 135.45246506 449.30657005 C136.51953105 449.30746284 136.51953105 449.30746284 137.60815393 449.30837366 C139.05423424 449.30958565 140.50031454 449.31079979 141.94639485 449.31201603 C155.4528888 449.32284702 168.95935769 449.32075052 182.46585302 449.31463119 C194.7593149 449.30946857 207.05269737 449.32070814 219.34614356 449.33972941 C232.03694899 449.35921151 244.72771705 449.36734561 257.4185375 449.36360615 C264.51617955 449.3617094 271.61375415 449.36403017 278.71138382 449.37832069 C285.3945446 449.39164303 292.07752292 449.38883541 298.7606926 449.37590981 C301.19120083 449.37357195 303.62172058 449.37617626 306.05221558 449.38453293 C344.2388439 449.50619744 376.99868745 445.29728006 405.3125 418.0625 C416.93890701 405.94774634 424.89112129 392.04146275 428.875 375.75 C429.06602295 374.97865723 429.2570459 374.20731445 429.45385742 373.41259766 C433.39659654 355.6282515 433.29181863 337.30743703 433.25878906 319.19555664 C433.26150574 316.66513468 433.26507044 314.13471352 433.26940918 311.60429382 C433.27752039 305.49453034 433.27641882 299.38483159 433.2705839 293.2750674 C433.26603369 288.30098829 433.26546886 283.32692293 433.26763153 278.35284233 C433.26809123 277.28361092 433.26809123 277.28361092 433.26856022 276.19277887 C433.26919978 274.7438699 433.26984821 273.29496094 433.2705054 271.84605198 C433.27618435 258.3158622 433.26968949 244.78569968 433.25890467 231.25551438 C433.24997332 219.69352264 433.25152252 208.13157109 433.26074219 196.56958008 C433.27149148 183.08338669 433.27563324 169.5972171 433.26951766 156.11102003 C433.26888069 154.66767117 433.26825194 153.2243223 433.26763153 151.78097343 C433.26732298 151.07115947 433.26701443 150.36134551 433.26669653 149.63002204 C433.26498335 144.67333075 433.26785466 139.7166548 433.27259064 134.7599659 C433.27884842 128.06453699 433.27427248 121.36919461 433.26280212 114.673769 C433.26018321 112.23309961 433.26087249 109.79242378 433.26532745 107.35175705 C433.54973367 67.00135715 433.54973367 67.00135715 419 30 C419 29.01 419 28.02 419 27 C418.34 26.67 417.68 26.34 417 26 C416.33333333 24.66666667 415.66666667 23.33333333 415 22 C414.34 21.67 413.68 21.34 413 21 C413.33 20.01 413.66 19.02 414 18 C415.9375 18.3125 415.9375 18.3125 418 19 C418.33 19.99 418.66 20.98 419 22 C419.66 22 420.32 22 421 22 C422.5078125 23.86328125 422.5078125 23.86328125 424.125 26.3125 C424.93324219 27.51326172 424.93324219 27.51326172 425.7578125 28.73828125 C427 31 427 31 427 34 C427.66 34 428.32 34 429 34 C429 34.66 429 35.32 429 36 C429.66 36.33 430.32 36.66 431 37 C431.71573527 38.64619113 432.3717396 40.31847953 433 42 C433.7115625 43.53140625 433.7115625 43.53140625 434.4375 45.09375 C437.65862005 52.11579172 439.70993557 58.31916394 440.640625 66.0625 C440.94607275 68.55920336 441.39133473 70.87783892 442 73.3125 C444.48007076 84.0791564 445.24440047 94.87907674 444.97265625 105.890625 C444.99597556 108.54236348 445.28240924 110.48565099 446 113 C446 115.80014493 445.77995086 118.46604422 445.5 121.25 C444.45056985 128.80301657 444.45056985 128.80301657 446 136 C445.88585689 137.40110664 445.7105178 138.79760406 445.5 140.1875 C444.96789058 144.33130214 445.36360132 147.86340859 446 152 C445.67449498 153.66821323 445.34153937 155.33499557 445 157 C445.32670903 159.00109278 445.65977214 161.00116131 446 163 C445.835 163.639375 445.67 164.27875 445.5 164.9375 C444.74803615 168.03935086 445.53668899 170.8726507 446 174 C445.67 174.66 445.34 175.32 445 176 C445.33 176.99 445.66 177.98 446 179 C446.0826344 180.87215787 446.1074094 182.74713847 446.09765625 184.62109375 C446.09443359 185.72130859 446.09121094 186.82152344 446.08789062 187.95507812 C446.07951172 189.10427734 446.07113281 190.25347656 446.0625 191.4375 C446.05798828 192.58283203 446.05347656 193.72816406 446.04882812 194.90820312 C446.04010316 197.03834054 446.02932822 199.16847122 446.01586914 201.29858398 C446.00274711 203.53235704 446 205.7661884 446 208 C445.814375 208.763125 445.62875 209.52625 445.4375 210.3125 C444.88040014 213.73468483 445.49372221 216.56856165 446 220 C446.13341888 223.3354721 446.21705954 226.6674977 446 230 C445.67 230.33 445.34 230.66 445 231 C445.165 231.94875 445.33 232.8975 445.5 233.875 C446 237 446 237 445 240 C445.32759934 242.33414529 445.66073053 244.66752239 446 247 C445.67 247.66 445.34 248.32 445 249 C445.33 249.33 445.66 249.66 446 250 C446.0979057 251.49738124 446.12974864 252.99942892 446.125 254.5 C446.12757813 255.3146875 446.13015625 256.129375 446.1328125 256.96875 C446 259 446 259 445 260 C445.165 260.886875 445.33 261.77375 445.5 262.6875 C446.02033567 266.13472379 445.67849704 268.60751478 445 272 C444.92672567 275.0740376 444.92672567 275.0740376 445.5 278.375 C446.54054054 285.91891892 446.54054054 285.91891892 445 289 C445.11575272 290.50478539 445.29186193 292.00519021 445.5 293.5 C446.03170889 298.08598917 445.80972069 302.21399428 445.15625 306.7734375 C444.99202237 309.11368116 445.37243673 310.75738418 446 313 C446 316 446 316 445.4375 318.4375 C444.98735649 321.07405485 445.30324424 322.47426038 446 325 C445.67 325.66 445.34 326.32 445 327 C445.08891158 329.1281417 445.24444413 331.2537688 445.4375 333.375 C446.28573192 342.888082 446.28573192 342.888082 445.49609375 345.9609375 C444.93049345 348.28568834 444.9752401 350.23483744 445.0625 352.625 C445.18095764 365.26612221 443.9996799 380.00096029 440 392 C439.80921875 392.763125 439.6184375 393.52625 439.421875 394.3125 C435.33333333 410.66666667 435.33333333 410.66666667 430 416 C429.7215625 416.73734375 429.443125 417.4746875 429.15625 418.234375 C427.72169339 421.66567932 425.7457198 424.28973299 423.5 427.25 C423.09652344 427.79140625 422.69304687 428.3328125 422.27734375 428.890625 C419.26477616 432.86761192 419.26477616 432.86761192 417 434 C416.896875 434.598125 416.79375 435.19625 416.6875 435.8125 C415.68822793 438.99200203 413.63587556 440.02309333 411 442 C409.8553125 443.2065625 409.8553125 443.2065625 408.6875 444.4375 C405.86722203 447.12660225 403.02913513 448.94935247 399.671875 450.88671875 C397.83951553 451.90712963 397.83951553 451.90712963 397 454 C396.01 454 395.02 454 394 454 C393.38125 454.61875 392.7625 455.2375 392.125 455.875 C389.82721591 458.17278409 388.07157462 459.03002907 385 460 C384.34 460 383.68 460 383 460 C383 460.66 383 461.32 383 462 C365.23204539 470.02974872 344.40832573 473.53867776 324.96875 473.0390625 C322.34239982 473.00450526 319.9126314 473.1705313 317.3125 473.5 C309.26966394 474.46134909 301.08543695 474.07284177 293 474 C291.6908259 474 290.38166463 474.00877256 289.07250977 474.01586914 C285.6449319 474.03290246 282.21739868 474.04542425 278.78979492 474.05493164 C277.30671481 474.05997115 275.8236397 474.06680278 274.34057617 474.07543945 C272.20750709 474.08754433 270.07450336 474.09323638 267.94140625 474.09765625 C266.65951416 474.10289307 265.37762207 474.10812988 264.05688477 474.11352539 C261 474 261 474 259 473 C257.44847318 473.24134862 255.89727119 473.48494717 254.34765625 473.73828125 C249.27295815 474.30401299 244.09586463 474.25110058 239 474 C238.67 473.67 238.34 473.34 238 473 C237.34 473.33 236.68 473.66 236 474 C233.87610306 474.07155987 231.74999347 474.0839887 229.625 474.0625 C228.48289062 474.05347656 227.34078125 474.04445313 226.1640625 474.03515625 C225.11992187 474.02355469 224.07578125 474.01195312 223 474 C219.31742409 474 215.63495669 474.00710367 211.95239258 474.01586914 C204.82172721 474.03220309 197.69106282 474.04344521 190.5603838 474.05181217 C186.24605619 474.05705109 181.93174805 474.06417386 177.61743164 474.07543945 C173.44369502 474.08626666 169.26997722 474.09227576 165.09622765 474.09487724 C163.50334055 474.09673002 161.91045453 474.10034783 160.31757545 474.10573006 C158.09816842 474.11293941 155.87884059 474.11399106 153.65942383 474.11352539 C152.39463699 474.115746 151.12985016 474.11796661 149.82673645 474.12025452 C147 474 147 474 146 473 C144.49597567 473.09380889 142.99597629 473.25208834 141.5 473.43359375 C133.67186324 474.22223043 125.85639038 474.10796721 118 474.0625 C116.48567858 474.05747065 114.97135552 474.0529103 113.45703125 474.04882812 C109.63799125 474.03759286 105.8190096 474.01896666 102 474 C99.42934633 474 96.85961372 474.01549763 94.2890625 474.03515625 C92.40104261 474.04446339 90.51302172 474.05357017 88.625 474.0625 C87.67882812 474.07087891 86.73265625 474.07925781 85.7578125 474.08789062 C84.38109375 474.09272461 84.38109375 474.09272461 82.9765625 474.09765625 C81.72480225 474.10551147 81.72480225 474.10551147 80.44775391 474.11352539 C77.8733167 473.9941245 75.52244391 473.51415839 73 473 C71.29395752 472.87111673 69.58485238 472.77872243 67.875 472.71875 C66.92109375 472.68136719 65.9671875 472.64398438 64.984375 472.60546875 C63.50710937 472.55326172 63.50710937 472.55326172 62 472.5 C60.04153227 472.43078714 58.08318725 472.35798977 56.125 472.28125 C55.26132813 472.25095703 54.39765625 472.22066406 53.5078125 472.18945312 C49.86959311 471.91460322 46.62333308 471.22162954 43.1875 470 C40.00559311 468.8782044 40.00559311 468.8782044 36.5625 468.6875 C29.81362054 468.00072557 23.35807865 465.24354077 17 463 C17 462.34 17 461.68 17 461 C16.278125 460.87625 15.55625 460.7525 14.8125 460.625 C10.22372528 459.60527229 7.24541241 458.39293116 4 455 C3.01 454.67 2.02 454.34 1 454 C0 453 -1 452 -2 451 C-3.051875 450.319375 -4.10375 449.63875 -5.1875 448.9375 C-6.115625 448.298125 -7.04375 447.65875 -8 447 C-8 446.34 -8 445.68 -8 445 C-8.99 444.67 -9.98 444.34 -11 444 C-12.76730461 442.37997077 -14.38044232 440.75962753 -16 439 C-16.53882812 438.41992188 -17.07765625 437.83984375 -17.6328125 437.2421875 C-26.59803938 427.31209315 -37.22228343 414.73965943 -38 401 C-38.66 400.67 -39.32 400.34 -40 400 C-40.5625 398.1796875 -40.5625 398.1796875 -41 395.875 C-41.58708343 392.93492346 -42.24672081 390.19130401 -43.125 387.3125 C-43.99445403 384.02099546 -44 381.37910373 -44 378 C-44.61998741 375.98504093 -45.27954236 373.9812585 -46 372 C-46 370.59760729 -45.98717992 369.19518358 -45.96484375 367.79296875 C-45.95582031 366.93316406 -45.94679688 366.07335937 -45.9375 365.1875 C-45.92589844 364.33542969 -45.91429687 363.48335938 -45.90234375 362.60546875 C-45.92546025 360.01890646 -45.92546025 360.01890646 -46.50390625 357.61328125 C-47.33659908 353.22689149 -47.01420829 348.82408057 -46.9375 344.375 C-46.93167358 341.07452597 -47.18559709 337.85151037 -47.49609375 334.56640625 C-48.38419774 323.71650095 -48.10430884 312.8148969 -48.0625 301.9375 C-48.05747427 299.66992286 -48.05291326 297.40234465 -48.04882812 295.13476562 C-48.0390721 290.17441345 -48.02492174 285.21409707 -48.00672913 280.25376892 C-47.99593617 276.63891305 -48.00585287 273.02485804 -48.03515625 269.41015625 C-48.04443347 267.62760501 -48.05354245 265.84505288 -48.0625 264.0625 C-48.07087891 263.16853516 -48.07925781 262.27457031 -48.08789062 261.35351562 C-48.10382258 257.06144742 -47.91419494 253.20859114 -47 249 C-47.33 248.34 -47.66 247.68 -48 247 C-48 214.33333333 -48 181.66666667 -48 149 C-47.34 149 -46.68 149 -46 149 C-46.49113281 147.98292969 -46.49113281 147.98292969 -46.9921875 146.9453125 C-48.19537568 143.42901837 -48.19586706 140.58370958 -48.125 136.875 C-48.09792969 135.04582031 -48.09792969 135.04582031 -48.0703125 133.1796875 C-48.04710937 132.13039062 -48.02390625 131.08109375 -48 130 C-48 128.35412495 -48.0052965 126.70810417 -48.03515625 125.0625 C-48.04417969 124.381875 -48.05320313 123.70125 -48.0625 123 C-48.07410156 122.319375 -48.08570313 121.63875 -48.09765625 120.9375 C-48 119 -48 119 -47 116 C-46.92891162 114.13926174 -46.91589454 112.27603287 -46.9375 110.4140625 C-46.94523437 109.31835938 -46.95296875 108.22265625 -46.9609375 107.09375 C-46.9868912 104.78906151 -47.01293227 102.484374 -47.0390625 100.1796875 C-47.04679687 99.08140625 -47.05453125 97.983125 -47.0625 96.8515625 C-47.07410156 95.84947754 -47.08570313 94.84739258 -47.09765625 93.81494141 C-47.00310555 91.08951742 -46.5878872 88.65657666 -46 86 C-45.83179555 84.06431385 -45.68702206 82.1264863 -45.5625 80.1875 C-45.17863773 75.21556971 -44.30219149 70.80183113 -43 66 C-42.855625 64.845 -42.71125 63.69 -42.5625 62.5 C-41.89938643 58.37396 -40.59563926 54.84334265 -39 51 C-38.54625 49.906875 -38.0925 48.81375 -37.625 47.6875 C-35.48308888 42.76224984 -33.23435821 37.88379482 -31 33 C-30.34 33 -29.68 33 -29 33 C-28.773125 32.319375 -28.54625 31.63875 -28.3125 30.9375 C-26.49352003 26.86644958 -24.10942032 22.05471016 -20 20 C-20 19.34 -20 18.68 -20 18 C-18.63671875 16.58984375 -18.63671875 16.58984375 -16.6875 14.9375 C-15.96820313 14.32390625 -15.24890625 13.7103125 -14.5078125 13.078125 C-10.77693542 9.98649477 -7.00775016 6.94292 -3.22265625 3.91796875 C-0.93666852 2.19416673 -0.93666852 2.19416673 0 0 Z " fill="#0A0A0A" transform="translate(50,22)"/>
<path d="M0 0 C10.50923367 -0.0694474 21.01841294 -0.12278448 31.52782917 -0.15543652 C36.40755112 -0.17110624 41.28711632 -0.19236831 46.16674805 -0.22631836 C50.87405632 -0.25886528 55.58121363 -0.27684317 60.28862572 -0.28463173 C62.08642136 -0.29018364 63.88420854 -0.30102494 65.68194008 -0.31719017 C68.19610204 -0.33890262 70.70963664 -0.34196956 73.22387695 -0.34057617 C73.97050095 -0.351362 74.71712494 -0.36214783 75.4863739 -0.3732605 C78.26053972 -0.35657516 80.48352822 -0.27214645 82.96472168 1.03527832 C84.61178895 4.16103563 84.39035519 7.33028549 84.34057617 10.77612305 C84.34123329 11.96183899 84.34123329 11.96183899 84.34190369 13.17150879 C84.33981311 15.78516308 84.31646976 18.39817647 84.29296875 21.01171875 C84.28737374 22.8234675 84.2831032 24.63522079 84.28010559 26.44697571 C84.26864929 31.2162834 84.23917537 35.98531716 84.20599365 40.7545166 C84.17530968 45.62081191 84.16160383 50.48715147 84.14648438 55.35351562 C84.11430641 64.90246413 84.06310057 74.45120929 84 84 C73.49076633 84.0694474 62.98158706 84.12278448 52.47217083 84.15543652 C47.59244888 84.17110624 42.71288368 84.19236831 37.83325195 84.22631836 C33.12594368 84.25886528 28.41878637 84.27684317 23.71137428 84.28463173 C21.91357864 84.29018364 20.11579146 84.30102494 18.31805992 84.31719017 C15.80389796 84.33890262 13.29036336 84.34196956 10.77612305 84.34057617 C10.02949905 84.351362 9.28287506 84.36214783 8.5136261 84.3732605 C5.73946028 84.35657516 3.51647178 84.27214645 1.03527832 82.96472168 C-0.61178895 79.83896437 -0.39035519 76.66971451 -0.34057617 73.22387695 C-0.34101425 72.43339966 -0.34145233 71.64292236 -0.34190369 70.82849121 C-0.33981311 68.21483692 -0.31646976 65.60182353 -0.29296875 62.98828125 C-0.28737374 61.1765325 -0.2831032 59.36477921 -0.28010559 57.55302429 C-0.26864929 52.7837166 -0.23917537 48.01468284 -0.20599365 43.2454834 C-0.17530968 38.37918809 -0.16160383 33.51284853 -0.14648438 28.64648438 C-0.11430641 19.09753587 -0.06310057 9.54879071 0 0 Z " fill="#957DEC" transform="translate(182,220)"/>
<path d="M0 0 C0.99 0.99 1.98 1.98 3 3 C2.34 3 1.68 3 1 3 C0.62294922 3.86818359 0.62294922 3.86818359 0.23828125 4.75390625 C-1.15592914 7.28283677 -2.73790358 8.9343046 -4.8125 10.9375 C-5.52921875 11.64003906 -6.2459375 12.34257813 -6.984375 13.06640625 C-8.49662891 14.51711495 -10.02553602 15.9504968 -11.5625 17.375 C-35.11367311 42.73780181 -35.15295963 77.5054106 -35.14526367 110.00976562 C-35.14825955 112.53915455 -35.15166307 115.06854303 -35.15544128 117.59793091 C-35.16333075 123.73203077 -35.16649411 129.8661165 -35.16705366 136.00022095 C-35.16753107 140.99448767 -35.16959696 145.98875125 -35.17275429 150.98301697 C-35.18154956 165.1875911 -35.18617557 179.39215771 -35.18542381 193.59673458 C-35.18538386 194.360486 -35.1853439 195.12423741 -35.18530273 195.91113281 C-35.18526185 196.67583261 -35.18522097 197.44053242 -35.18517885 198.22840494 C-35.18477296 210.60326939 -35.19433106 222.97810334 -35.2084411 235.35295898 C-35.22286295 248.10340402 -35.22970807 260.85383424 -35.22884732 273.60428762 C-35.2285173 280.7448973 -35.2311782 287.88547501 -35.24202538 295.02607727 C-35.25217542 301.75013421 -35.25173619 308.47411303 -35.24450874 315.19817734 C-35.24347179 317.65013096 -35.24577211 320.10208892 -35.2518692 322.55403519 C-35.32301708 353.17768842 -33.86966632 382.79877618 -15.03125 408.30078125 C-14 410 -14 410 -14 413 C-14.66 413 -15.32 413 -16 413 C-16 413.99 -16 414.98 -16 416 C-16.66 416.66 -17.32 417.32 -18 418 C-17.6814823 420.10820797 -17.6814823 420.10820797 -17 422 C-18.32 421.67 -19.64 421.34 -21 421 C-21.144375 421.639375 -21.28875 422.27875 -21.4375 422.9375 C-22 425 -22 425 -23 426 C-23.99 426.33 -24.98 426.66 -26 427 C-38.71862348 406.74898785 -38.71862348 406.74898785 -38 401 C-38.66 400.67 -39.32 400.34 -40 400 C-40.5625 398.1796875 -40.5625 398.1796875 -41 395.875 C-41.58708343 392.93492346 -42.24672081 390.19130401 -43.125 387.3125 C-43.99445403 384.02099546 -44 381.37910373 -44 378 C-44.61998741 375.98504093 -45.27954236 373.9812585 -46 372 C-46 370.59760729 -45.98717992 369.19518358 -45.96484375 367.79296875 C-45.95582031 366.93316406 -45.94679688 366.07335937 -45.9375 365.1875 C-45.92589844 364.33542969 -45.91429687 363.48335938 -45.90234375 362.60546875 C-45.92546025 360.01890646 -45.92546025 360.01890646 -46.50390625 357.61328125 C-47.33659908 353.22689149 -47.01420829 348.82408057 -46.9375 344.375 C-46.93167358 341.07452597 -47.18559709 337.85151037 -47.49609375 334.56640625 C-48.38419774 323.71650095 -48.10430884 312.8148969 -48.0625 301.9375 C-48.05747427 299.66992286 -48.05291326 297.40234465 -48.04882812 295.13476562 C-48.0390721 290.17441345 -48.02492174 285.21409707 -48.00672913 280.25376892 C-47.99593617 276.63891305 -48.00585287 273.02485804 -48.03515625 269.41015625 C-48.04443347 267.62760501 -48.05354245 265.84505288 -48.0625 264.0625 C-48.07087891 263.16853516 -48.07925781 262.27457031 -48.08789062 261.35351562 C-48.10382258 257.06144742 -47.91419494 253.20859114 -47 249 C-47.33 248.34 -47.66 247.68 -48 247 C-48 214.33333333 -48 181.66666667 -48 149 C-47.34 149 -46.68 149 -46 149 C-46.49113281 147.98292969 -46.49113281 147.98292969 -46.9921875 146.9453125 C-48.19537568 143.42901837 -48.19586706 140.58370958 -48.125 136.875 C-48.09792969 135.04582031 -48.09792969 135.04582031 -48.0703125 133.1796875 C-48.04710937 132.13039062 -48.02390625 131.08109375 -48 130 C-48 128.35412495 -48.0052965 126.70810417 -48.03515625 125.0625 C-48.04417969 124.381875 -48.05320313 123.70125 -48.0625 123 C-48.07410156 122.319375 -48.08570313 121.63875 -48.09765625 120.9375 C-48 119 -48 119 -47 116 C-46.92891162 114.13926174 -46.91589454 112.27603287 -46.9375 110.4140625 C-46.94523437 109.31835938 -46.95296875 108.22265625 -46.9609375 107.09375 C-46.9868912 104.78906151 -47.01293227 102.484374 -47.0390625 100.1796875 C-47.04679687 99.08140625 -47.05453125 97.983125 -47.0625 96.8515625 C-47.07410156 95.84947754 -47.08570313 94.84739258 -47.09765625 93.81494141 C-47.00310555 91.08951742 -46.5878872 88.65657666 -46 86 C-45.83179555 84.06431385 -45.68702206 82.1264863 -45.5625 80.1875 C-45.17863773 75.21556971 -44.30219149 70.80183113 -43 66 C-42.855625 64.845 -42.71125 63.69 -42.5625 62.5 C-41.89938643 58.37396 -40.59563926 54.84334265 -39 51 C-38.54625 49.906875 -38.0925 48.81375 -37.625 47.6875 C-35.48308888 42.76224984 -33.23435821 37.88379482 -31 33 C-30.34 33 -29.68 33 -29 33 C-28.773125 32.319375 -28.54625 31.63875 -28.3125 30.9375 C-26.49352003 26.86644958 -24.10942032 22.05471016 -20 20 C-20 19.34 -20 18.68 -20 18 C-18.63671875 16.58984375 -18.63671875 16.58984375 -16.6875 14.9375 C-15.96820313 14.32390625 -15.24890625 13.7103125 -14.5078125 13.078125 C-10.77693542 9.98649477 -7.00775016 6.94292 -3.22265625 3.91796875 C-0.93666852 2.19416673 -0.93666852 2.19416673 0 0 Z " fill="#0E0E0E" transform="translate(50,22)"/>
<path d="M0 0 C1.9375 0.3125 1.9375 0.3125 4 1 C4.33 1.99 4.66 2.98 5 4 C5.66 4 6.32 4 7 4 C8.5078125 5.86328125 8.5078125 5.86328125 10.125 8.3125 C10.66382813 9.11300781 11.20265625 9.91351563 11.7578125 10.73828125 C13 13 13 13 13 16 C13.66 16 14.32 16 15 16 C15 16.66 15 17.32 15 18 C15.66 18.33 16.32 18.66 17 19 C17.71573527 20.64619113 18.3717396 22.31847953 19 24 C19.474375 25.0209375 19.94875 26.041875 20.4375 27.09375 C23.65862005 34.11579172 25.70993557 40.31916394 26.640625 48.0625 C26.94607275 50.55920336 27.39133473 52.87783892 28 55.3125 C30.48007076 66.0791564 31.24440047 76.87907674 30.97265625 87.890625 C30.99597556 90.54236348 31.28240924 92.48565099 32 95 C32 97.80014493 31.77995086 100.46604422 31.5 103.25 C30.45056985 110.80301657 30.45056985 110.80301657 32 118 C31.88585689 119.40110664 31.7105178 120.79760406 31.5 122.1875 C30.96789058 126.33130214 31.36360132 129.86340859 32 134 C31.67449498 135.66821323 31.34153937 137.33499557 31 139 C31.32670903 141.00109278 31.65977214 143.00116131 32 145 C31.835 145.639375 31.67 146.27875 31.5 146.9375 C30.74803615 150.03935086 31.53668899 152.8726507 32 156 C31.67 156.66 31.34 157.32 31 158 C31.33 158.99 31.66 159.98 32 161 C32.0826344 162.87215787 32.1074094 164.74713847 32.09765625 166.62109375 C32.09443359 167.72130859 32.09121094 168.82152344 32.08789062 169.95507812 C32.07532227 171.67887695 32.07532227 171.67887695 32.0625 173.4375 C32.05798828 174.58283203 32.05347656 175.72816406 32.04882812 176.90820312 C32.04010316 179.03834054 32.02932822 181.16847122 32.01586914 183.29858398 C32.00274711 185.53235704 32 187.7661884 32 190 C31.7215625 191.1446875 31.7215625 191.1446875 31.4375 192.3125 C30.88040014 195.73468483 31.49372221 198.56856165 32 202 C32.13341888 205.3354721 32.21705954 208.6674977 32 212 C31.67 212.33 31.34 212.66 31 213 C31.165 213.94875 31.33 214.8975 31.5 215.875 C32 219 32 219 31 222 C31.32759934 224.33414529 31.66073053 226.66752239 32 229 C31.67 229.66 31.34 230.32 31 231 C31.33 231.33 31.66 231.66 32 232 C32.0979057 233.49738124 32.12974864 234.99942892 32.125 236.5 C32.12886719 237.72203125 32.12886719 237.72203125 32.1328125 238.96875 C32 241 32 241 31 242 C31.2475 243.3303125 31.2475 243.3303125 31.5 244.6875 C32.02033567 248.13472379 31.67849704 250.60751478 31 254 C30.92672567 257.0740376 30.92672567 257.0740376 31.5 260.375 C32.54054054 267.91891892 32.54054054 267.91891892 31 271 C31.11575272 272.50478539 31.29186193 274.00519021 31.5 275.5 C32.03170889 280.08598917 31.80972069 284.21399428 31.15625 288.7734375 C30.99202237 291.11368116 31.37243673 292.75738418 32 295 C32 298 32 298 31.4375 300.4375 C30.98735649 303.07405485 31.30324424 304.47426038 32 307 C31.67 307.66 31.34 308.32 31 309 C31.08891158 311.1281417 31.24444413 313.2537688 31.4375 315.375 C32.28573192 324.888082 32.28573192 324.888082 31.49609375 327.9609375 C30.93049345 330.28568834 30.9752401 332.23483744 31.0625 334.625 C31.18095764 347.26612221 29.9996799 362.00096029 26 374 C25.63109697 375.55908654 25.27784121 377.12193041 24.9375 378.6875 C24.76089844 379.49574219 24.58429688 380.30398438 24.40234375 381.13671875 C24.26957031 381.75160156 24.13679688 382.36648438 24 383 C19.32307692 381.52307692 19.32307692 381.52307692 17.6875 378.875 C17.460625 378.25625 17.23375 377.6375 17 377 C17.9590625 376.319375 17.9590625 376.319375 18.9375 375.625 C21.09702406 374.16078274 21.09702406 374.16078274 22 372 C21.88363737 367.18437724 21.20949442 362.45527964 19.9375 357.8125 C18.98089234 353.92229551 18.83492491 350.96180211 19 347 C18.67 347 18.34 347 18 347 C18.07050221 345.85562186 18.14100443 344.71124372 18.21364307 343.53218746 C19.03036543 329.41449884 19.14864825 315.33372603 19.14526367 301.19555664 C19.14826312 298.66513521 19.15166743 296.13471422 19.15544128 293.60429382 C19.16329713 287.49454848 19.16649225 281.38481731 19.16705366 275.2750674 C19.1675325 270.300991 19.16960536 265.32691773 19.17275429 260.35284233 C19.18153562 246.18962525 19.18617725 232.02641567 19.18542381 217.86319584 C19.18536388 216.72350545 19.18536388 216.72350545 19.18530273 215.56079102 C19.18526185 214.80004972 19.18522097 214.03930843 19.18517885 213.25551438 C19.18477237 200.92636062 19.19434914 188.59723739 19.2084411 176.26809246 C19.2228619 163.54906616 19.22970827 150.8300547 19.22884732 138.11102003 C19.22851748 130.99398881 19.23117091 123.87698967 19.24202538 116.7599659 C19.25217331 110.06454324 19.25173732 103.36919905 19.24450874 96.673769 C19.24347188 94.23309734 19.24577158 91.79242131 19.2518692 89.35175705 C19.55189699 49.00144952 19.55189699 49.00144952 5 12 C5 11.01 5 10.02 5 9 C4.34 8.67 3.68 8.34 3 8 C2.33333333 6.66666667 1.66666667 5.33333333 1 4 C0.34 3.67 -0.32 3.34 -1 3 C-0.67 2.01 -0.34 1.02 0 0 Z " fill="#0F0F0F" transform="translate(464,40)"/>
<path d="M0 0 C0 26.73 0 53.46 0 81 C-25.41 81 -50.82 81 -77 81 C-77 76 -77 76 -75.81587315 74.19784069 C-75.25672183 73.64199952 -74.69757051 73.08615835 -74.12147522 72.51347351 C-73.1644294 71.54394997 -73.1644294 71.54394997 -72.18804932 70.55484009 C-71.12442169 69.51582047 -71.12442169 69.51582047 -70.03930664 68.45581055 C-69.29964157 67.71380905 -68.5599765 66.97180756 -67.79789734 66.20732117 C-65.34713656 63.7549439 -62.8790089 61.32087093 -60.41015625 58.88671875 C-58.70759686 57.19094582 -57.00606637 55.4941393 -55.30552673 53.79634094 C-51.73919171 50.24069069 -48.16499412 46.69321625 -44.58422852 43.15209961 C-39.98237315 38.60118917 -35.39354308 34.03743342 -30.80963993 29.46844769 C-26.45121462 25.12477688 -22.08755996 20.7863783 -17.72265625 16.44921875 C-16.88378435 15.61525763 -16.04491245 14.7812965 -15.18062019 13.92206383 C-12.81993694 11.57757245 -10.45569813 9.23673545 -8.09008789 6.8972168 C-7.38302704 6.19441589 -6.67596619 5.49161499 -5.94747925 4.76751709 C-5.30662888 4.13526718 -4.6657785 3.50301727 -4.00550842 2.85160828 C-3.44598008 2.29765224 -2.88645174 1.74369619 -2.30996799 1.17295361 C-1 0 -1 0 0 0 Z " fill="#957CEC" transform="translate(182,139)"/>
<path d="M0 0 C26.4 0 52.8 0 80 0 C73.24861693 7.87661358 73.24861693 7.87661358 70.6479187 10.50598145 C69.76073151 11.40606934 69.76073151 11.40606934 68.85562134 12.32434082 C68.22892548 12.95529663 67.60222961 13.58625244 66.95654297 14.23632812 C66.27934204 14.92170654 65.60214111 15.60708496 64.90441895 16.31323242 C62.68667959 18.55557178 60.4650011 20.7939411 58.2421875 23.03125 C57.48040318 23.798358 56.71861885 24.565466 55.93375015 25.3558197 C51.91233657 29.40383484 47.8873441 33.44825622 43.85986328 37.49023438 C40.52600631 40.83750397 37.19959585 44.19191996 33.87939453 47.55273438 C29.8634685 51.61776843 25.83560188 55.67058705 21.79861832 59.71470642 C20.26253041 61.25752945 18.73071829 62.80462159 17.20324326 64.35597229 C15.07520152 66.51540704 12.9321717 68.65877208 10.78466797 70.79882812 C10.15392365 71.44597778 9.52317932 72.09312744 8.87332153 72.7598877 C7.09811401 74.5098877 7.09811401 74.5098877 4 77 C2.68 76.67 1.36 76.34 0 76 C0 50.92 0 25.84 0 0 Z " fill="#967EED" transform="translate(266,304)"/>
<path d="M0 0 C1.9375 0.3125 1.9375 0.3125 4 1 C4.33 1.99 4.66 2.98 5 4 C5.66 4 6.32 4 7 4 C8.5078125 5.86328125 8.5078125 5.86328125 10.125 8.3125 C10.66382813 9.11300781 11.20265625 9.91351563 11.7578125 10.73828125 C13 13 13 13 13 16 C13.66 16 14.32 16 15 16 C15 16.66 15 17.32 15 18 C15.66 18.33 16.32 18.66 17 19 C17.71573527 20.64619113 18.3717396 22.31847953 19 24 C19.474375 25.0209375 19.94875 26.041875 20.4375 27.09375 C23.65862005 34.11579172 25.70993557 40.31916394 26.640625 48.0625 C26.94607275 50.55920336 27.39133473 52.87783892 28 55.3125 C30.48007076 66.0791564 31.24440047 76.87907674 30.97265625 87.890625 C30.99597556 90.54236348 31.28240924 92.48565099 32 95 C32 97.82896713 31.81328935 100.55844274 31.5625 103.375 C31.48128906 104.31085938 31.40007812 105.24671875 31.31640625 106.2109375 C31.01677154 108.85216197 30.56183776 111.40327086 30 114 C27.69 113.34 25.38 112.68 23 112 C23.99 111.505 23.99 111.505 25 111 C23.515 110.01 23.515 110.01 22 109 C19.99905245 104.46560819 19.69294421 100.1628441 19.65625 95.27734375 C19.62787822 93.76407821 19.59947535 92.25081326 19.57104492 90.73754883 C19.5541713 89.56115341 19.5541713 89.56115341 19.53695679 88.36099243 C19.40970291 48.50118077 19.40970291 48.50118077 5 12 C5 11.01 5 10.02 5 9 C4.34 8.67 3.68 8.34 3 8 C2.33333333 6.66666667 1.66666667 5.33333333 1 4 C0.34 3.67 -0.32 3.34 -1 3 C-0.67 2.01 -0.34 1.02 0 0 Z " fill="#121212" transform="translate(464,40)"/>
<path d="M0 0 C0.99 0.99 1.98 1.98 3 3 C2.34 3 1.68 3 1 3 C0.62294922 3.86818359 0.62294922 3.86818359 0.23828125 4.75390625 C-1.15592914 7.28283677 -2.73790358 8.9343046 -4.8125 10.9375 C-5.52921875 11.64003906 -6.2459375 12.34257813 -6.984375 13.06640625 C-8.49662891 14.51711495 -10.02553602 15.9504968 -11.5625 17.375 C-26.95237018 33.94870635 -32.26898724 54.8351357 -34.4921875 76.77734375 C-34.57710449 77.60000732 -34.66202148 78.4226709 -34.74951172 79.27026367 C-34.91450055 80.9035888 -35.07001815 82.5379027 -35.21533203 84.1730957 C-35.40801555 86.123434 -35.69564186 88.06394408 -36 90 C-36.99 90.495 -36.99 90.495 -38 91 C-38.66 91.99 -39.32 92.98 -40 94 C-40.66 94 -41.32 94 -42 94 C-42 93.34 -42 92.68 -42 92 C-42.66 92 -43.32 92 -44 92 C-43.67 93.32 -43.34 94.64 -43 96 C-43.99 96 -44.98 96 -46 96 C-46.97229785 92.2188417 -46.78013582 89.77981297 -46 86 C-45.83179555 84.06431385 -45.68702206 82.1264863 -45.5625 80.1875 C-45.17863773 75.21556971 -44.30219149 70.80183113 -43 66 C-42.855625 64.845 -42.71125 63.69 -42.5625 62.5 C-41.89938643 58.37396 -40.59563926 54.84334265 -39 51 C-38.54625 49.906875 -38.0925 48.81375 -37.625 47.6875 C-35.48308888 42.76224984 -33.23435821 37.88379482 -31 33 C-30.34 33 -29.68 33 -29 33 C-28.773125 32.319375 -28.54625 31.63875 -28.3125 30.9375 C-26.49352003 26.86644958 -24.10942032 22.05471016 -20 20 C-20 19.34 -20 18.68 -20 18 C-18.63671875 16.58984375 -18.63671875 16.58984375 -16.6875 14.9375 C-15.96820313 14.32390625 -15.24890625 13.7103125 -14.5078125 13.078125 C-10.77693542 9.98649477 -7.00775016 6.94292 -3.22265625 3.91796875 C-0.93666852 2.19416673 -0.93666852 2.19416673 0 0 Z " fill="#141414" transform="translate(50,22)"/>
<path d="M0 0 C1.32 0 2.64 0 4 0 C4 0.66 4 1.32 4 2 C4.99 2.66 5.98 3.32 7 4 C9.30801819 16.50796955 5.96617342 36.10147973 2 48 C1.63109697 49.55908654 1.27784121 51.12193041 0.9375 52.6875 C0.67259766 53.89986328 0.67259766 53.89986328 0.40234375 55.13671875 C0.26957031 55.75160156 0.13679688 56.36648438 0 57 C-4.67692308 55.52307692 -4.67692308 55.52307692 -6.3125 52.875 C-6.539375 52.25625 -6.76625 51.6375 -7 51 C-6.0409375 50.319375 -6.0409375 50.319375 -5.0625 49.625 C-2.90297594 48.16078274 -2.90297594 48.16078274 -2 46 C-2.11636263 41.18437724 -2.79050558 36.45527964 -4.0625 31.8125 C-5.01910766 27.92229551 -5.16507509 24.96180211 -5 21 C-5.33 21 -5.66 21 -6 21 C-6.31563182 15.73946963 -5.66590937 12.55426184 -3 8 C-2.01 8 -1.02 8 0 8 C1.21690533 6.23470405 1.21690533 6.23470405 2 4 C1.21690533 1.76529595 1.21690533 1.76529595 0 0 Z " fill="#181818" transform="translate(488,366)"/>
<path d="M0 0 C0.66 1.32 1.32 2.64 2 4 C2.969375 3.979375 3.93875 3.95875 4.9375 3.9375 C8 4 8 4 9 5 C9.15806531 6.92478813 9.251135 8.8549921 9.31640625 10.78515625 C9.37924805 12.53989258 9.37924805 12.53989258 9.44335938 14.33007812 C9.48267578 15.56177734 9.52199219 16.79347656 9.5625 18.0625 C9.60568359 19.29806641 9.64886719 20.53363281 9.69335938 21.80664062 C9.79984198 24.87097335 9.90185424 27.93539073 10 31 C9.01 31 8.02 31 7 31 C6.01 32.485 6.01 32.485 5 34 C4.34 34 3.68 34 3 34 C3 33.34 3 32.68 3 32 C2.34 32 1.68 32 1 32 C1.33 33.32 1.66 34.64 2 36 C1.01 36 0.02 36 -1 36 C-2.18449072 33.63101856 -2.06901735 32.32310009 -2 29.6875 C-1.95179298 25.52964433 -2.15546993 21.45643112 -2.5 17.3125 C-3.5 4.8125 -3.5 4.8125 -1.5 1.5625 C-1.005 1.046875 -0.51 0.53125 0 0 Z " fill="#1C1C1C" transform="translate(5,338)"/>
<path d="M0 0 C1.9375 0.3125 1.9375 0.3125 4 1 C4.33 1.99 4.66 2.98 5 4 C5.66 4 6.32 4 7 4 C8.5078125 5.86328125 8.5078125 5.86328125 10.125 8.3125 C10.66382813 9.11300781 11.20265625 9.91351563 11.7578125 10.73828125 C13 13 13 13 13 16 C13.66 16 14.32 16 15 16 C15 16.66 15 17.32 15 18 C15.66 18.33 16.32 18.66 17 19 C17.71870299 20.64489764 18.37348818 22.31782725 19 24 C19.72896484 25.61841797 19.72896484 25.61841797 20.47265625 27.26953125 C23.27143226 33.50660703 25.72306913 39.07672821 26 46 C25.34 46 24.68 46 24 46 C23.67 46.66 23.34 47.32 23 48 C22.01 47.34 21.02 46.68 20 46 C19.01 46 18.02 46 17 46 C16.78085937 44.93523437 16.56171875 43.87046875 16.3359375 42.7734375 C14.01039214 31.96177937 11.21145123 21.31717684 5 12 C5 11.01 5 10.02 5 9 C4.34 8.67 3.68 8.34 3 8 C2.33333333 6.66666667 1.66666667 5.33333333 1 4 C0.34 3.67 -0.32 3.34 -1 3 C-0.67 2.01 -0.34 1.02 0 0 Z " fill="#1D1D1D" transform="translate(464,40)"/>
<path d="M0 0 C1.65 0 3.3 0 5 0 C4.34 0.66 3.68 1.32 3 2 C3.495 2.4125 3.99 2.825 4.5 3.25 C6 5 6 5 6 9 C5.01 9.495 5.01 9.495 4 10 C4.66 11.32 5.32 12.64 6 14 C7.32 13.67 8.64 13.34 10 13 C10 14.32 10 15.64 10 17 C10.33 15.35 10.66 13.7 11 12 C11.33 12 11.66 12 12 12 C12 17.28 12 22.56 12 28 C10.02 28.99 10.02 28.99 8 30 C8 30.99 8 31.98 8 33 C6.35 33.66 4.7 34.32 3 35 C3 35.66 3 36.32 3 37 C2.01 36.67 1.02 36.34 0 36 C0 24.12 0 12.24 0 0 Z " fill="#121212" transform="translate(2,177)"/>
<path d="M0 0 C0.99 0.99 1.98 1.98 3 3 C2.34 3 1.68 3 1 3 C0.62294922 3.86818359 0.62294922 3.86818359 0.23828125 4.75390625 C-1.15592914 7.28283677 -2.73790358 8.9343046 -4.8125 10.9375 C-5.52921875 11.64003906 -6.2459375 12.34257813 -6.984375 13.06640625 C-8.49662891 14.51711495 -10.02553602 15.9504968 -11.5625 17.375 C-16.98388514 23.21341476 -21.20605799 30.01914671 -25 37 C-25.66 36.67 -26.32 36.34 -27 36 C-29.09821215 36.39938767 -29.09821215 36.39938767 -31 37 C-31.33 36.34 -31.66 35.68 -32 35 C-31.67 34.34 -31.34 33.68 -31 33 C-30.34 33 -29.68 33 -29 33 C-28.773125 32.319375 -28.54625 31.63875 -28.3125 30.9375 C-26.49352003 26.86644958 -24.10942032 22.05471016 -20 20 C-20 19.34 -20 18.68 -20 18 C-18.63671875 16.58984375 -18.63671875 16.58984375 -16.6875 14.9375 C-15.96820313 14.32390625 -15.24890625 13.7103125 -14.5078125 13.078125 C-10.77693542 9.98649477 -7.00775016 6.94292 -3.22265625 3.91796875 C-0.93666852 2.19416673 -0.93666852 2.19416673 0 0 Z " fill="#393939" transform="translate(50,22)"/>
<path d="M0 0 C3.91728701 3.30521092 3.91728701 3.30521092 4.3125 6.625 C4 9 4 9 3 11 C3.21475938 13.51575273 3.57967447 15.99362778 3.94140625 18.4921875 C4.00727263 21.31126876 3.43960318 22.61614096 2 25 C1.67 25.66 1.34 26.32 1 27 C0.67 26.01 0.34 25.02 0 24 C-0.928125 24.309375 -0.928125 24.309375 -1.875 24.625 C-2.57625 24.74875 -3.2775 24.8725 -4 25 C-4.66 24.34 -5.32 23.68 -6 23 C-5.34 23 -4.68 23 -4 23 C-4.40748497 20.06610821 -4.73263311 18.32906695 -6.625 16 C-8 14 -8 14 -7.75 11.4375 C-7.19004371 9.61764204 -6.60211577 7.80634732 -6 6 C-5.34 6 -4.68 6 -4 6 C-4 5.01 -4 4.02 -4 3 C-3.34 3 -2.68 3 -2 3 C-2 3.66 -2 4.32 -2 5 C-1.34 5 -0.68 5 0 5 C0 4.01 0 3.02 0 2 C-0.66 1.67 -1.32 1.34 -2 1 C-1.34 0.67 -0.68 0.34 0 0 Z " fill="#1C1C1C" transform="translate(492,300)"/>
<path d="M0 0 C0.99 0 1.98 0 3 0 C3.33 1.32 3.66 2.64 4 4 C5.32 4 6.64 4 8 4 C8 4.66 8 5.32 8 6 C8.66 6.33 9.32 6.66 10 7 C10.9375 9.75 10.9375 9.75 11 13 C8.6875 15.875 8.6875 15.875 6 18 C5.34 18 4.68 18 4 18 C4.33 18.99 4.66 19.98 5 21 C5 21.99 5 22.98 5 24 C3.35 25.32 1.7 26.64 0 28 C0 18.76 0 9.52 0 0 Z " fill="#1E1E1E" transform="translate(2,308)"/>
<path d="M0 0 C0.66 1.32 1.32 2.64 2 4 C2.969375 3.979375 3.93875 3.95875 4.9375 3.9375 C8 4 8 4 9 5 C9.42263803 8.70713929 9.51028647 12.30042312 9 16 C6.625 18.0625 6.625 18.0625 4 19 C3.34 19.66 2.68 20.32 2 21 C1.731875 20.38125 1.46375 19.7625 1.1875 19.125 C0.04443152 16.7004767 0.04443152 16.7004767 -3 15 C-3.3984375 12.5390625 -3.3984375 12.5390625 -3.375 9.625 C-3.38273438 8.66851562 -3.39046875 7.71203125 -3.3984375 6.7265625 C-2.95022038 3.65935126 -2.04380946 2.28171321 0 0 Z " fill="#121212" transform="translate(5,338)"/>
<path d="M0 0 C0.66 0.33 1.32 0.66 2 1 C3.16662186 1.04789131 3.16662186 1.04789131 4.875 0.4375 C7 0 7 0 10 1 C10.15808824 9.0625 10.15808824 9.0625 9 13 C8.01 13.495 8.01 13.495 7 14 C6.01 15.485 6.01 15.485 5 17 C4.34 17 3.68 17 3 17 C3 16.34 3 15.68 3 15 C2.34 15 1.68 15 1 15 C1.33 16.32 1.66 17.64 2 19 C1.01 19 0.02 19 -1 19 C-1.97153482 15.22180902 -1.85763219 12.77358163 -1 9 C-0.62116985 6.00471628 -0.3075345 3.00336881 0 0 Z " fill="#202020" transform="translate(5,99)"/>
<path d="M0 0 C1.33841672 0.31229724 2.67139075 0.64830932 4 1 C4.99 1 5.98 1 7 1 C8.87368302 6.80841735 6.86244815 12.41265556 5 18 C4.63109697 19.55908654 4.27784121 21.12193041 3.9375 22.6875 C3.67259766 23.89986328 3.67259766 23.89986328 3.40234375 25.13671875 C3.26957031 25.75160156 3.13679688 26.36648438 3 27 C-1.67692308 25.52307692 -1.67692308 25.52307692 -3.3125 22.875 C-3.539375 22.25625 -3.76625 21.6375 -4 21 C-3.0409375 20.319375 -3.0409375 20.319375 -2.0625 19.625 C0.09702406 18.16078274 0.09702406 18.16078274 1 16 C0.93739497 14.39218897 0.80242442 12.78671739 0.625 11.1875 C0.47804688 9.84945313 0.47804688 9.84945313 0.328125 8.484375 C0.08247731 6.62447105 -0.24986385 4.77566712 -0.625 2.9375 C-0.74875 2.298125 -0.8725 1.65875 -1 1 C-0.67 0.67 -0.34 0.34 0 0 Z " fill="#131313" transform="translate(485,396)"/>
<path d="M0 0 C2 2 2 2 2.01171875 4.20703125 C1.90472656 5.06683594 1.79773438 5.92664063 1.6875 6.8125 C1.57921875 7.70324219 1.4709375 8.59398437 1.359375 9.51171875 C0.99544598 12.03153161 0.57868362 14.51992734 0 17 C-2.31 16.34 -4.62 15.68 -7 15 C-6.34 14.67 -5.68 14.34 -5 14 C-5.99 13.34 -6.98 12.68 -8 12 C-8.73046875 9.8359375 -8.73046875 9.8359375 -9.1875 7.375 C-9.34605469 6.55773437 -9.50460937 5.74046875 -9.66796875 4.8984375 C-9.77753906 4.27195313 -9.88710938 3.64546875 -10 3 C-8.68 3 -7.36 3 -6 3 C-5.67 2.34 -5.34 1.68 -5 1 C-4.34 1.66 -3.68 2.32 -3 3 C-2.01 2.01 -1.02 1.02 0 0 Z M-5 3 C-4 5 -4 5 -4 5 Z " fill="#171717" transform="translate(494,137)"/>
<path d="M0 0 C1.9375 0.3125 1.9375 0.3125 4 1 C4.33 1.99 4.66 2.98 5 4 C5.66 4 6.32 4 7 4 C8.5078125 5.86328125 8.5078125 5.86328125 10.125 8.3125 C10.66382813 9.11300781 11.20265625 9.91351563 11.7578125 10.73828125 C13 13 13 13 13 16 C13.66 16 14.32 16 15 16 C15 17.65 15 19.3 15 21 C13.68 21.33 12.36 21.66 11 22 C9.99193149 20.40089132 8.99379615 18.79551738 8 17.1875 C7.443125 16.29417969 6.88625 15.40085937 6.3125 14.48046875 C5 12 5 12 5 9 C4.34 8.67 3.68 8.34 3 8 C2.33333333 6.66666667 1.66666667 5.33333333 1 4 C0.34 3.67 -0.32 3.34 -1 3 C-0.67 2.01 -0.34 1.02 0 0 Z " fill="#2F2F2F" transform="translate(464,40)"/>
<path d="M0 0 C0.9880383 3.61457345 1.3673245 7.15756127 1.71875 10.87890625 C1.9565083 13.18416348 1.9565083 13.18416348 3 16 C2.72428861 18.00875442 2.39764263 20.01178687 2 22 C-1.28976808 23.09658936 -2.71303767 22.79953138 -6 22 C-5.52974693 19.36858391 -5.05388628 16.73838173 -4.5703125 14.109375 C-4.20186894 12.10060052 -3.84188786 10.09024707 -3.4921875 8.078125 C-3.24855469 6.74007813 -3.24855469 6.74007813 -3 5.375 C-2.7834375 4.14910156 -2.7834375 4.14910156 -2.5625 2.8984375 C-2.376875 2.27195312 -2.19125 1.64546875 -2 1 C-1.34 0.67 -0.68 0.34 0 0 Z " fill="#040305" transform="translate(483,386)"/>
<path d="M0 0 C2.31 0 4.62 0 7 0 C7.33 0.99 7.66 1.98 8 3 C8.99 2.67 9.98 2.34 11 2 C10.34 3.98 9.68 5.96 9 8 C3.39 8 -2.22 8 -8 8 C-8 7.01 -8 6.02 -8 5 C-5.03 5.495 -5.03 5.495 -2 6 C-1.34 4.02 -0.68 2.04 0 0 Z " fill="#323232" transform="translate(207,488)"/>
<path d="M0 0 C0 1.32 0 2.64 0 4 C-2.31 4.66 -4.62 5.32 -7 6 C-6.67 6.99 -6.34 7.98 -6 9 C-6.66 9.66 -7.32 10.32 -8 11 C-8.33 11.845625 -8.66 12.69125 -9 13.5625 C-10 16 -10 16 -12 17 C-12 12.38 -12 7.76 -12 3 C-3 -1.5 -3 -1.5 0 0 Z " fill="#010101" transform="translate(496,248)"/>
<path d="M0 0 C1.98 0 3.96 0 6 0 C5.01 1.485 5.01 1.485 4 3 C4.33 3.66 4.66 4.32 5 5 C5.99 5.33 6.98 5.66 8 6 C7.73799687 11.32739707 7.73799687 11.32739707 7 14 C4.56990326 15.99392553 3.16090285 17 0 17 C0.185625 16.505 0.37125 16.01 0.5625 15.5 C1.08080567 12.5382533 0.68888413 9.92936549 0.2578125 6.97265625 C-0.0476156 4.63566848 -0.07355495 2.35375846 0 0 Z " fill="#111111" transform="translate(2,286)"/>
<path d="M0 0 C3.18776365 5.77782161 1.72881959 11.8256443 0 18 C-4.67692308 16.52307692 -4.67692308 16.52307692 -6.3125 13.875 C-6.539375 13.25625 -6.76625 12.6375 -7 12 C-6.360625 11.54625 -5.72125 11.0925 -5.0625 10.625 C-2.90297594 9.16078274 -2.90297594 9.16078274 -2 7 C-1.960008 5.00039988 -1.95653201 2.99952758 -2 1 C-1.34 0.67 -0.68 0.34 0 0 Z " fill="#2D2D2D" transform="translate(488,405)"/>
<path d="M0 0 C0.66 0 1.32 0 2 0 C2 3.96 2 7.92 2 12 C1.01 12 0.02 12 -1 12 C-0.67 11.01 -0.34 10.02 0 9 C-1.89179203 8.3185177 -1.89179203 8.3185177 -4 8 C-4.66 8.66 -5.32 9.32 -6 10 C-6.99 9.67 -7.98 9.34 -9 9 C-8.67 8.01 -8.34 7.02 -8 6 C-7.34 6 -6.68 6 -6 6 C-6 4.68 -6 3.36 -6 2 C-4.7934375 1.7834375 -4.7934375 1.7834375 -3.5625 1.5625 C-1.07896294 1.25864751 -1.07896294 1.25864751 0 0 Z " fill="#050505" transform="translate(12,112)"/>
<path d="M0 0 C0.99 0.33 1.98 0.66 3 1 C3.125 6.75 3.125 6.75 2 9 C1.05125 8.79375 0.1025 8.5875 -0.875 8.375 C-1.90625 8.25125 -2.9375 8.1275 -4 8 C-4.66 8.66 -5.32 9.32 -6 10 C-6.99 9.67 -7.98 9.34 -9 9 C-9 7.35 -9 5.7 -9 4 C-7.515 4.99 -7.515 4.99 -6 6 C-6 4.68 -6 3.36 -6 2 C-4.7934375 1.7834375 -4.7934375 1.7834375 -3.5625 1.5625 C-1.07896294 1.25864751 -1.07896294 1.25864751 0 0 Z " fill="#050505" transform="translate(12,368)"/>
<path d="M0 0 C2.1385485 2.1385485 2.42655063 3.13275314 3 6 C2.154375 6.12375 1.30875 6.2475 0.4375 6.375 C-3.15236798 7.02770327 -6.50824875 7.95247463 -10 9 C-10.66 8.34 -11.32 7.68 -12 7 C-12 6.01 -12 5.02 -12 4 C-9.1875 2.4375 -9.1875 2.4375 -6 1 C-5.01 1.33 -4.02 1.66 -3 2 C-2.34 2 -1.68 2 -1 2 C-0.67 1.34 -0.34 0.68 0 0 Z " fill="#010101" transform="translate(288,481)"/>
<path d="M0 0 C0.66 0.33 1.32 0.66 2 1 C2 1.66 2 2.32 2 3 C2.66 3.33 3.32 3.66 4 4 C3.34 4 2.68 4 2 4 C2.33 4.99 2.66 5.98 3 7 C2.67 7.66 2.34 8.32 2 9 C2.66 9.33 3.32 9.66 4 10 C1.02588876 11.23921302 -1.85262818 12.30058404 -5 13 C-4.54996653 7.37458159 -3.31558515 4.38512875 0 0 Z " fill="#020203" transform="translate(473,415)"/>
<path d="M0 0 C0.99 0.99 1.98 1.98 3 3 C2.34 3 1.68 3 1 3 C0.74476562 3.58265625 0.48953125 4.1653125 0.2265625 4.765625 C-1.11741087 7.21388223 -2.61810296 8.81743248 -4.625 10.75 C-5.57246094 11.67039062 -5.57246094 11.67039062 -6.5390625 12.609375 C-7.02117188 13.06828125 -7.50328125 13.5271875 -8 14 C-8.99 13.01 -9.98 12.02 -11 11 C-8.51017809 8.43904032 -6.04769994 6.03794313 -3.25 3.8125 C-0.92512612 2.19690923 -0.92512612 2.19690923 0 0 Z M-14 13 C-14 16 -14 16 -14 16 Z " fill="#3E3657" transform="translate(50,22)"/>
<path d="M0 0 C1.86399449 5.24248449 2.17114854 8.583438 1 14 C0.34 14 -0.32 14 -1 14 C-1.268125 13.401875 -1.53625 12.80375 -1.8125 12.1875 C-2.98493467 10.02775192 -4.19369282 8.64209744 -6 7 C-5.67 6.38125 -5.34 5.7625 -5 5.125 C-3.85806765 3.08981656 -3.85806765 3.08981656 -4 1 C-2 0 -2 0 0 0 Z " fill="#161616" transform="translate(494,329)"/>
<path d="M0 0 C1.65 0 3.3 0 5 0 C4.34 0.66 3.68 1.32 3 2 C3.495 2.4125 3.99 2.825 4.5 3.25 C6 5 6 5 6 9 C5.01 9.495 5.01 9.495 4 10 C4.33 11.32 4.66 12.64 5 14 C4.34 14 3.68 14 3 14 C2.67 14.66 2.34 15.32 2 16 C2 15.34 2 14.68 2 14 C1.34 14 0.68 14 0 14 C0 9.38 0 4.76 0 0 Z " fill="#1E1E1E" transform="translate(2,177)"/>
<path d="M0 0 C0 3 0 3 -1 5 C-5.71987817 7.27253393 -8.83606456 8 -14 8 C-14 7.01 -14 6.02 -14 5 C-13.071875 4.54625 -12.14375 4.0925 -11.1875 3.625 C-3.68609023 -0.19924812 -3.68609023 -0.19924812 0 0 Z " fill="#2E2E2E" transform="translate(160,488)"/>
<path d="M0 0 C2.16874252 0.50603992 3.99967627 0.99983813 6 2 C5.01508224 5.64419572 4.34173648 6.78914132 1.0625 8.8125 C-2 10 -2 10 -5 10 C-5.33 10.66 -5.66 11.32 -6 12 C-6 8.09538875 -4.66236719 7.66236719 -2 5 C-1.29289322 3.35008418 -0.62056011 1.68437744 0 0 Z " fill="#3C3C3C" transform="translate(438,472)"/>
<path d="M0 0 C0.99 0 1.98 0 3 0 C5.1875 3 5.1875 3 7 6 C6.67 6.66 6.34 7.32 6 8 C7.65 8.33 9.3 8.66 11 9 C10.01 9.66 9.02 10.32 8 11 C6.68 9.68 5.36 8.36 4 7 C2.35 8.32 0.7 9.64 -1 11 C-1.02688151 9.35425434 -1.04634123 7.70838587 -1.0625 6.0625 C-1.07410156 5.14597656 -1.08570313 4.22945312 -1.09765625 3.28515625 C-1 1 -1 1 0 0 Z " fill="#030303" transform="translate(485,178)"/>
<path d="M0 0 C0.33 0.99 0.66 1.98 1 3 C0.01 4.485 0.01 4.485 -1 6 C-0.01 5.67 0.98 5.34 2 5 C2.33 5.99 2.66 6.98 3 8 C0.94766315 10.2477975 -0.00667261 11.0022242 -3 12 C-4.32 10.35 -5.64 8.7 -7 7 C-6.01 7 -5.02 7 -4 7 C-4 5.35 -4 3.7 -4 2 C-2.68 2 -1.36 2 0 2 C0 1.34 0 0.68 0 0 Z " fill="#1E1E1E" transform="translate(38,450)"/>
<path d="M0 0 C1.98 1.32 3.96 2.64 6 4 C4.625 5.5 4.625 5.5 3 7 C2.34 7 1.68 7 1 7 C1 7.66 1 8.32 1 9 C-0.98 9 -2.96 9 -5 9 C-3.90931332 5.22454612 -3.0916909 2.52956528 0 0 Z " fill="#1A1A1A" transform="translate(175,487)"/>
<path d="M0 0 C2.51570636 0.97382182 3.73944098 1.46151135 4.9375 3.9375 C5 6 5 6 3.5625 7.75 C2.7890625 8.36875 2.7890625 8.36875 2 9 C2.66 9 3.32 9 4 9 C3.67 9.99 3.34 10.98 3 12 C2.401875 11.360625 1.80375 10.72125 1.1875 10.0625 C-0.90810337 7.79689611 -0.90810337 7.79689611 -4 7 C-4 6.34 -4 5.68 -4 5 C-2.68 5 -1.36 5 0 5 C0 3.35 0 1.7 0 0 Z " fill="#020202" transform="translate(9,253)"/>
<path d="M0 0 C1.65 0 3.3 0 5 0 C5 3.96 5 7.92 5 12 C3.68 11.67 2.36 11.34 1 11 C1 8 1 8 2 7 C1.34 6.34 0.68 5.68 0 5 C0 3.33333333 0 1.66666667 0 0 Z " fill="#020202" transform="translate(9,205)"/>
<path d="M0 0 C1.9375 0.3125 1.9375 0.3125 4 1 C4.33 1.99 4.66 2.98 5 4 C5.66 4 6.32 4 7 4 C7.33 4.99 7.66 5.98 8 7 C7.34 7 6.68 7 6 7 C6.33 8.32 6.66 9.64 7 11 C6.01 11.495 6.01 11.495 5 12 C5 11.01 5 10.02 5 9 C4.34 8.67 3.68 8.34 3 8 C2.33333333 6.66666667 1.66666667 5.33333333 1 4 C0.34 3.67 -0.32 3.34 -1 3 C-0.67 2.01 -0.34 1.02 0 0 Z " fill="#101010" transform="translate(464,40)"/>
<path d="M0 0 C1.98 0.99 1.98 0.99 4 2 C4 2.66 4 3.32 4 4 C4.598125 4.061875 5.19625 4.12375 5.8125 4.1875 C8 5 8 5 9.8125 7.375 C11 10 11 10 10 13 C8.82737096 11.88121617 7.66204862 10.75476949 6.5 9.625 C5.52546875 8.68527344 5.52546875 8.68527344 4.53125 7.7265625 C3 6 3 6 3 4 C2.34 4 1.68 4 1 4 C0.67 2.68 0.34 1.36 0 0 Z " fill="#2B2B2B" transform="translate(448,24)"/>
<path d="M0 0 C0.33 0.99 0.66 1.98 1 3 C0.030625 3.45375 -0.93875 3.9075 -1.9375 4.375 C-5.07079582 5.65786221 -5.07079582 5.65786221 -6 8 C-6.66 8 -7.32 8 -8 8 C-7.66666667 6.66666667 -7.33333333 5.33333333 -7 4 C-6.87625 3.278125 -6.7525 2.55625 -6.625 1.8125 C-6.41875 1.214375 -6.2125 0.61625 -6 0 C-3 -1 -3 -1 0 0 Z " fill="#5D5D5D" transform="translate(453,468)"/>
<path d="M0 0 C0.33 1.98 0.66 3.96 1 6 C-2 6 -5 6 -8 6 C-7.67 5.01 -7.34 4.02 -7 3 C-6.67 3 -6.34 3 -6 3 C-6 2.34 -6 1.68 -6 1 C-4 0 -4 0 0 0 Z " fill="#272727" transform="translate(495,253)"/>
<path d="M0 0 C1.27627886 2.55255772 1.19829842 4.15772269 1 7 C0 9.8125 0 9.8125 -1 12 C-1.66 12 -2.32 12 -3 12 C-3 8.37 -3 4.74 -3 1 C-2.01 0.67 -1.02 0.34 0 0 Z " fill="#010101" transform="translate(487,279)"/>
<path d="M0 0 C1.67542976 0.28604898 3.34385343 0.61781233 5 1 C4.875 2.875 4.875 2.875 4 5 C0.9375 6.25 0.9375 6.25 -2 7 C-1.125 1.125 -1.125 1.125 0 0 Z " fill="#373737" transform="translate(4,296)"/>
<path d="M0 0 C2.4375 0.6875 2.4375 0.6875 5 2 C5.8125 4.625 5.8125 4.625 6 7 C5.01 7.33 4.02 7.66 3 8 C3 7.34 3 6.68 3 6 C2.01 5.67 1.02 5.34 0 5 C-0.75 3 -0.75 3 -1 1 C-0.67 0.67 -0.34 0.34 0 0 Z M0 7 C0.99 7.33 1.98 7.66 3 8 C2.34 8.66 1.68 9.32 1 10 C0.67 9.01 0.34 8.02 0 7 Z " fill="#000000" transform="translate(490,289)"/>
<path d="M0 0 C2.12932581 3.19398872 2.21365943 3.87217358 2.0625 7.5 C1.94816757 10.48258506 2.03516907 12.10550722 3 15 C2.34 15.66 1.68 16.32 1 17 C0 16 0 16 -0.09765625 12.40234375 C-0.0909822 10.91403133 -0.07902183 9.42573568 -0.0625 7.9375 C-0.05798828 7.17888672 -0.05347656 6.42027344 -0.04882812 5.63867188 C-0.0370068 3.75908129 -0.01907078 1.87953101 0 0 Z " fill="#030303" transform="translate(484,143)"/>
<path d="M0 0 C1.4606285 2.64738916 2 3.89448334 2 7 C1.01 7.66 0.02 8.32 -1 9 C-2.35439668 6.29120665 -2.06501451 3.99066732 -2 1 C-1.34 0.67 -0.68 0.34 0 0 Z " fill="#3B3B3B" transform="translate(488,405)"/>
<path d="M0 0 C1.98 0 3.96 0 6 0 C5.01 1.485 5.01 1.485 4 3 C4.30840599 5.15274948 4.30840599 5.15274948 5 7 C4.01 6.67 3.02 6.34 2 6 C2 5.34 2 4.68 2 4 C1.34 4 0.68 4 0 4 C0 2.68 0 1.36 0 0 Z " fill="#434343" transform="translate(2,286)"/>
<path d="M0 0 C1.98 0.99 1.98 0.99 4 2 C3.39816251 4.02045442 2.72693904 6.02111039 2 8 C1.01 8.495 1.01 8.495 0 9 C0 6.03 0 3.06 0 0 Z " fill="#030303" transform="translate(484,192)"/>
<path d="M0 0 C0.66 0.33 1.32 0.66 2 1 C1.01 3.31 0.02 5.62 -1 8 C-2.32 7.34 -3.64 6.68 -5 6 C-3.625 4.5 -3.625 4.5 -2 3 C-1.34 3 -0.68 3 0 3 C0 2.01 0 1.02 0 0 Z " fill="#000000" transform="translate(446,467)"/>
<path d="M0 0 C1.65 0 3.3 0 5 0 C4.34 0.66 3.68 1.32 3 2 C3.3185177 4.10820797 3.3185177 4.10820797 4 6 C3.01 6 2.02 6 1 6 C0.67 4.02 0.34 2.04 0 0 Z " fill="#535353" transform="translate(2,177)"/>
<path d="M0 0 C0.66 0.99 1.32 1.98 2 3 C-0.3125 5.0625 -0.3125 5.0625 -3 7 C-3.99 6.67 -4.98 6.34 -6 6 C-5.67 5.34 -5.34 4.68 -5 4 C-4.34 4 -3.68 4 -3 4 C-1.36323743 2.0399719 -1.36323743 2.0399719 0 0 Z " fill="#000000" transform="translate(39,33)"/>
<path d="M0 0 C0.66 0.33 1.32 0.66 2 1 C1.67 2.32 1.34 3.64 1 5 C0.01 5 -0.98 5 -2 5 C-2.33 4.01 -2.66 3.02 -3 2 C-2.01 1.34 -1.02 0.68 0 0 Z " fill="#323232" transform="translate(493,200)"/>
<path d="M0 0 C1.98 0.66 3.96 1.32 6 2 C5.67 2.99 5.34 3.98 5 5 C3.68 5 2.36 5 1 5 C0.67 3.35 0.34 1.7 0 0 Z " fill="#363636" transform="translate(490,181)"/>
<path d="M0 0 C1.98 0.495 1.98 0.495 4 1 C4 2.32 4 3.64 4 5 C1.525 4.01 1.525 4.01 -1 3 C-0.67 2.01 -0.34 1.02 0 0 Z " fill="#454545" transform="translate(464,40)"/>
<path d="M0 0 C1.32 0 2.64 0 4 0 C2.60667426 3.36720387 1.0210714 4.9859524 -2 7 C-1.125 2.25 -1.125 2.25 0 0 Z " fill="#3A3A3A" transform="translate(4,329)"/>
<path d="M0 0 C0 1.32 0 2.64 0 4 C-1.32 4 -2.64 4 -4 4 C-4.33 4.66 -4.66 5.32 -5 6 C-5.33 4.68 -5.66 3.36 -6 2 C-2.25 0 -2.25 0 0 0 Z " fill="#2D2D2D" transform="translate(8,182)"/>
<path d="M0 0 C0.99 0.66 1.98 1.32 3 2 C2.67 2.66 2.34 3.32 2 4 C1.01 4.33 0.02 4.66 -1 5 C-1.99 4.01 -2.98 3.02 -4 2 C-2.68 1.34 -1.36 0.68 0 0 Z " fill="#0A0A0A" transform="translate(14,83)"/>
<path d="M0 0 C0.66 0.33 1.32 0.66 2 1 C2.625 3.5625 2.625 3.5625 3 6 C2.01 6.33 1.02 6.66 0 7 C-0.66 5.68 -1.32 4.36 -2 3 C-1.34 2.01 -0.68 1.02 0 0 Z " fill="#000000" transform="translate(493,265)"/>
<path d="M0 0 C2.31 0.66 4.62 1.32 7 2 C7 2.66 7 3.32 7 4 C4.69 3.67 2.38 3.34 0 3 C0 2.01 0 1.02 0 0 Z " fill="#2E2E2E" transform="translate(2,259)"/>
<path d="" fill="#BFBFBF" transform="translate(0,0)"/>
<path d="" fill="#FFFFFF" transform="translate(0,0)"/>
<path d="" fill="#FFFFFF" transform="translate(0,0)"/>
<path d="" fill="#FFFFFF" transform="translate(0,0)"/>
<path d="" fill="#000000" transform="translate(0,0)"/>
<path d="" fill="#000000" transform="translate(0,0)"/>
<path d="" fill="#000000" transform="translate(0,0)"/>
<path d="" fill="#000000" transform="translate(0,0)"/>
<path d="" fill="#000000" transform="translate(0,0)"/>
<path d="" fill="#000000" transform="translate(0,0)"/>
<path d="" fill="#000000" transform="translate(0,0)"/>
<path d="" fill="#000000" transform="translate(0,0)"/>
<path d="" fill="#000000" transform="translate(0,0)"/>
</svg>
