<?xml version="1.0" encoding="UTF-8"?>
<svg version="1.1" xmlns="http://www.w3.org/2000/svg" width="410" height="404">
<path d="M0 0 C0.83027146 7.1172026 -1.25330504 13.38124568 -3.28125 20.15625 C-3.61419067 21.29912476 -3.94713135 22.44199951 -4.29016113 23.61950684 C-5.35009466 27.24936003 -6.4248042 30.87464181 -7.5 34.5 C-8.22363768 36.9684625 -8.94630469 39.43720978 -9.66796875 41.90625 C-11.43408515 47.94084314 -13.21233538 53.97175732 -15 60 C-13.71040375 59.76196655 -12.4208075 59.52393311 -11.09213257 59.27868652 C1.06051713 57.03627114 13.21418607 54.79945654 25.3688755 52.56812286 C31.61769646 51.4207907 37.86614148 50.27148757 44.11376953 49.11767578 C50.14293405 48.00428483 56.17303022 46.89607699 62.20380783 45.79145813 C64.50463178 45.36908977 66.80511375 44.94485412 69.10524368 44.51872253 C72.32660159 43.92224998 75.54911079 43.33242457 78.77197266 42.74414062 C79.72287781 42.56647659 80.67378296 42.38881256 81.65350342 42.20576477 C93.38054784 40.08332897 93.38054784 40.08332897 98.3125 42.875 C101 45 101 45 102 47 C102.88932096 55.26739116 100.34979306 60.18847775 96.25 67.25 C95.65944824 68.3021167 95.06889648 69.3542334 94.46044922 70.43823242 C92.65922438 73.63669378 90.83257093 76.81941767 89 80 C87.99641858 81.76116223 86.99375194 83.52284619 85.9921875 85.28515625 C84.05390441 88.6884399 82.10527877 92.08557602 80.15234375 95.48046875 C73.97735926 106.24997072 68.0136186 117.13992456 62 128 C54.35515075 141.79688279 46.69038556 155.58049095 38.91137695 169.30224609 C34.11227855 177.77760738 29.38235108 186.29066279 24.65844727 194.80810547 C18.71367618 205.52472941 12.72776111 216.21800966 6.73388672 226.90722656 C3.82060861 232.10370742 0.91043473 237.30192626 -2 242.5 C-5.48676785 248.72741207 -8.97412444 254.95448933 -12.46484375 261.1796875 C-18.52060086 271.98203312 -24.55608874 282.79513013 -30.5625 293.625 C-35.69378598 302.87593606 -40.8711635 312.09905816 -46.08837891 321.30175781 C-50.24271247 328.6385918 -54.34726044 336.00226831 -58.4375 343.375 C-59.06003662 344.49559814 -59.68257324 345.61619629 -60.32397461 346.77075195 C-63.50898878 352.5049313 -66.68582289 358.24343757 -69.8515625 363.98828125 C-71.08836014 366.22145471 -72.3253326 368.45453136 -73.5625 370.6875 C-74.12187256 371.70827637 -74.68124512 372.72905273 -75.25756836 373.78076172 C-83.60200771 388.80100386 -83.60200771 388.80100386 -88 391 C-94.88914461 391.68891446 -94.88914461 391.68891446 -98.828125 389.24609375 C-103.52902029 385.04812622 -106.09127401 379.17664641 -109 373.6875 C-110.3277239 371.23001702 -111.66434776 368.77739937 -113 366.32421875 C-113.33555908 365.70497528 -113.67111816 365.08573181 -114.0168457 364.44772339 C-117.21702664 358.55620885 -120.59011341 352.7724092 -124 347 C-128.96243264 338.56877088 -133.77367306 330.06574422 -138.5 321.5 C-143.80206842 311.89183937 -149.23960957 302.37820912 -154.80078125 292.91796875 C-158.95900268 285.82838852 -163.0036613 278.68193905 -167 271.5 C-171.57566642 263.27796975 -176.23587865 255.1142887 -181 247 C-186.31839275 237.93815741 -191.49871109 228.80807301 -196.61376953 219.63012695 C-200.987516 211.78903143 -205.41487167 203.97969078 -209.875 196.1875 C-210.20836365 195.60504517 -210.54172729 195.02259033 -210.88519287 194.42248535 C-212.57873714 191.46406468 -214.27307826 188.50610134 -215.96777344 185.54833984 C-218.98368289 180.28378943 -221.99260211 175.015245 -225.00201416 169.74697876 C-226.66771971 166.83115361 -228.33388314 163.91559013 -230 161 C-230.66666886 159.83333459 -231.33333552 158.66666792 -232 157.5 C-232.33 156.9225 -232.66 156.345 -233 155.75 C-236 150.5 -236 150.5 -236.99996948 148.75004578 C-237.66672911 147.58322151 -238.3334975 146.41640226 -239.00027466 145.24958801 C-240.66559088 142.33537354 -242.33075537 139.42107258 -243.99560547 136.5065918 C-247.01152571 131.22727897 -250.0285824 125.94863158 -253.05123901 120.673172 C-254.74323755 117.72004096 -256.43435205 114.76640443 -258.125 111.8125 C-258.62184296 110.94448257 -258.62184296 110.94448257 -259.12872314 110.05892944 C-264.51745126 100.63976993 -269.84327944 91.18666666 -275.10253906 81.69458008 C-277.67801946 77.06313519 -280.28793916 72.47679865 -283.09375 67.98046875 C-283.56635254 67.21565186 -284.03895508 66.45083496 -284.52587891 65.6628418 C-285.38554319 64.28467208 -286.2612837 62.91631018 -287.15771484 61.56176758 C-290.07175826 56.87932531 -291.03703003 52.4967965 -290 47 C-287.81840855 44.24430553 -286.12822506 42.56411253 -283 41 C-276.50768825 40.57586666 -270.34754806 41.84126926 -263.9777832 43.00366211 C-262.18635391 43.3231205 -262.18635391 43.3231205 -260.35873413 43.64903259 C-257.09989151 44.23143722 -253.84210569 44.81920627 -250.58469033 45.40950847 C-247.16937115 46.02717369 -243.75285249 46.63813327 -240.33647156 47.24989319 C-234.60371387 48.27740908 -228.8717739 49.30938295 -223.14038086 50.34448242 C-215.06051936 51.80370359 -206.9791254 53.25429442 -198.897452 54.7034415 C-193.29261389 55.70881735 -187.68816829 56.71637841 -182.08378196 57.72426915 C-180.72664582 57.96830965 -179.36949618 58.21227507 -178.01233315 58.45616603 C-173.55252069 59.25766498 -169.09316727 60.06167663 -164.6340332 60.86694336 C-163.50927078 61.06906433 -162.38450836 61.2711853 -161.22566223 61.47943115 C-160.19533875 61.66591721 -159.16501526 61.85240326 -158.10346985 62.04454041 C-157.20920445 62.20585418 -156.31493906 62.36716795 -155.39357471 62.53337002 C-153.23879258 62.95344713 -151.12322445 63.44390074 -149 64 C-148.95512451 62.92516357 -148.91024902 61.85032715 -148.86401367 60.74291992 C-148.69378878 56.75586265 -148.50487745 52.76987261 -148.31030273 48.78393555 C-148.22869934 47.05858353 -148.15216803 45.33298386 -148.08081055 43.60717773 C-147.97736459 41.12661495 -147.85571452 38.64751454 -147.73046875 36.16796875 C-147.70220505 35.39599655 -147.67394135 34.62402435 -147.64482117 33.82865906 C-147.34810561 28.45907182 -147.34810561 28.45907182 -145.74778748 26.34861755 C-143.649364 24.7294443 -142.10520874 24.31114277 -139.51123047 23.77685547 C-138.54251007 23.57222687 -137.57378967 23.36759827 -136.57571411 23.1567688 C-135.47565033 22.93745697 -134.37558655 22.71814514 -133.2421875 22.4921875 C-132.04423553 22.24459686 -130.84628357 21.99700623 -129.61203003 21.74191284 C-125.95070608 20.98818447 -122.28573086 20.25356888 -118.61979675 19.52262878 C-115.79319627 18.95874429 -112.96719591 18.39191163 -110.14123535 17.8248291 C-96.26757472 15.04381391 -82.38642326 12.301676 -68.50195312 9.57519531 C-62.2986085 8.35681546 -56.09677728 7.13090032 -49.89525032 5.90330696 C-45.08507872 4.95239551 -40.27391643 4.00657556 -35.46245956 3.06219101 C-33.17277575 2.61191 -30.88345557 2.15977572 -28.59451675 1.70572281 C-25.41706507 1.07595574 -22.23828992 0.45335084 -19.05908203 -0.16748047 C-17.65662987 -0.44788933 -17.65662987 -0.44788933 -16.22584534 -0.73396301 C-4.50416194 -3.00277463 -4.50416194 -3.00277463 0 0 Z " fill="#8C72FD" transform="translate(299,3)"/>
<path d="M0 0 C0.8001827 7.01741498 -1.18113042 13.15599387 -3.17578125 19.83984375 C-3.5016069 20.96137344 -3.82743256 22.08290314 -4.16313171 23.23841858 C-5.20294879 26.80778214 -6.25768896 30.37254233 -7.3125 33.9375 C-8.01070732 36.32980349 -8.70798242 38.72237926 -9.40429688 41.11523438 C-14.70768789 59.27167205 -14.70768789 59.27167205 -17.34382629 67.05970764 C-18.87777079 71.59555043 -20.27386493 76.17560678 -21.6875 80.75 C-22.00783203 81.76449219 -22.32816406 82.77898437 -22.65820312 83.82421875 C-22.96048828 84.80519531 -23.26277344 85.78617187 -23.57421875 86.796875 C-23.98546997 88.11703613 -23.98546997 88.11703613 -24.4050293 89.46386719 C-25.01973439 92.08412016 -25.1817015 94.31865941 -25 97 C-23.81195696 98.40676293 -23.81195696 98.40676293 -20.41796875 98.25 C-13.25842957 98.17065423 -6.29262569 96.45544778 0.6875 95 C2.7757164 94.56790523 4.8643546 94.13851681 6.95454407 93.71606445 C8.84298231 93.33399386 10.72953984 92.94266167 12.6159668 92.55078125 C20.68637653 91.23725089 20.68637653 91.23725089 23.9375 93.125 C25.55805411 95.98480138 24.73227908 97.84003747 24 101 C22.98362164 103.39032673 21.9325624 105.6632501 20.7580719 107.97160339 C20.25284615 108.98823979 20.25284615 108.98823979 19.73741382 110.02541429 C18.61058375 112.28797981 17.47243967 114.54465482 16.33422852 116.80151367 C15.52204899 118.42638173 14.71056868 120.05159945 13.8997345 121.67713928 C11.69568437 126.09066069 9.48172748 130.49914475 7.26587796 134.90675139 C4.94012933 139.5369089 2.62317104 144.17146139 0.30516052 148.80549622 C-3.59619401 156.60175382 -7.50345308 164.39502783 -11.41479492 172.1862793 C-16.40818079 182.13297154 -21.39255945 192.08414685 -26.37377834 202.03693676 C-30.68014628 210.64130675 -34.99005577 219.24390176 -39.30085492 227.84605241 C-40.21966746 229.67964982 -41.13836605 231.51330433 -42.05694842 233.34701705 C-44.68552049 238.59424677 -47.31601692 243.84050265 -49.94949532 249.08527184 C-50.74092787 250.66211824 -51.53175592 252.23926826 -52.3218689 253.81677628 C-57.38168337 263.91740303 -62.56836374 273.94366883 -67.85381413 283.92814255 C-70.25568388 288.47036273 -72.57686223 293.04919314 -74.84375 297.66015625 C-75.62230512 299.2298627 -76.40095316 300.79952307 -77.1796875 302.36914062 C-78.35723696 304.74937321 -79.53342079 307.13026694 -80.70800781 309.51196289 C-81.87481821 311.87558064 -83.04646996 314.23674768 -84.21875 316.59765625 C-84.57078491 317.3151857 -84.92281982 318.03271515 -85.28552246 318.77198792 C-86.65703834 321.5291501 -87.80686644 323.80686644 -90 326 C-92.83636384 326.36363639 -94.35389542 326.48968155 -96.67158508 324.73310852 C-98 323 -98 323 -98.1471405 321.10124207 C-98.0382399 320.3938942 -97.92933929 319.68654633 -97.81713867 318.95776367 C-97.69785004 318.15849457 -97.5785614 317.35922546 -97.45565796 316.53573608 C-96.68232708 312.2321505 -95.84156922 307.95141774 -94.92578125 303.67578125 C-94.7211879 302.70327423 -94.51659454 301.73076721 -94.30580139 300.72879028 C-93.86968941 298.6574309 -93.43175427 296.58645465 -92.99212646 294.51583862 C-92.07707058 290.20283138 -91.17297271 285.88755187 -90.26837158 281.57234192 C-89.59629898 278.36672731 -88.92297899 275.16137654 -88.24951172 271.95605469 C-86.60467459 264.12053505 -84.97331688 256.28264305 -83.375 248.4375 C-83.12790283 247.25260986 -82.88080566 246.06771973 -82.6262207 244.84692383 C-81.53703794 239.46336325 -80.70040603 234.49518411 -81 229 C-87.22408309 227.0622144 -92.19465766 229.41623817 -98.0625 231.5 C-100.00785662 232.18810116 -101.9569994 232.86561203 -103.91015625 233.53125 C-105.19611694 233.98854492 -105.19611694 233.98854492 -106.50805664 234.45507812 C-109.38990274 235.08526138 -111.19517146 234.87151832 -114 234 C-116 232 -116 232 -116.07763672 229.87963867 C-115.28872351 222.22266436 -113.81533327 214.8175182 -112.125 207.3125 C-111.58200224 204.83622901 -111.04032756 202.35966751 -110.5 199.8828125 C-110.11134766 198.10825684 -110.11134766 198.10825684 -109.71484375 196.29785156 C-108.80551202 192.10275149 -107.93602611 187.90266059 -107.125 183.6875 C-106.90070313 182.53636719 -106.67640625 181.38523438 -106.4453125 180.19921875 C-105.96512738 176.74946777 -105.8530764 173.47863225 -106 170 C-107.02327881 168.74170075 -107.02327881 168.74170075 -109.19750977 168.99365234 C-118.39228649 169.67520071 -126.99628033 171.79713104 -135.8918457 174.13964844 C-137.7889293 174.63563667 -139.68935812 175.11877386 -141.58984375 175.6015625 C-142.70222412 175.89369629 -143.81460449 176.18583008 -144.96069336 176.48681641 C-148.04401515 177.00743191 -150.02518079 176.89429348 -153 176 C-155.0221092 173.9778908 -154.1634801 170.01614755 -154.1804657 167.31315613 C-154.17891983 166.20563492 -154.17737396 165.09811371 -154.17578125 163.95703125 C-154.17435623 162.79774612 -154.17293121 161.638461 -154.17146301 160.44404602 C-154.07912147 146.554209 -153.21084836 132.71100098 -152.32526779 118.85438156 C-151.94682159 112.90198812 -151.58401918 106.94859975 -151.21762276 100.99545479 C-151.07839161 98.73869638 -150.93802326 96.48201056 -150.79759216 94.22532654 C-150.19236764 84.44975778 -149.65887397 74.67280973 -149.171875 64.890625 C-149.0454985 62.41576281 -148.91895704 59.94090904 -148.79223633 57.46606445 C-148.61376574 53.97532362 -148.43965245 50.48468303 -148.28036499 46.99301147 C-148.13544913 43.82661576 -147.97382035 40.66148416 -147.80859375 37.49609375 C-147.77115051 36.56819031 -147.73370728 35.64028687 -147.69512939 34.68426514 C-147.62452301 33.41827484 -147.62452301 33.41827484 -147.55249023 32.12670898 C-147.51792221 31.39693344 -147.48335419 30.6671579 -147.44773865 29.91526794 C-146.86333062 27.41537664 -146.03991325 26.54046636 -144 25 C-141.95993042 24.28121948 -141.95993042 24.28121948 -139.51123047 23.77685547 C-138.54251007 23.57222687 -137.57378967 23.36759827 -136.57571411 23.1567688 C-135.47565033 22.93745697 -134.37558655 22.71814514 -133.2421875 22.4921875 C-132.04423553 22.24459686 -130.84628357 21.99700623 -129.61203003 21.74191284 C-125.95070608 20.98818447 -122.28573086 20.25356888 -118.61979675 19.52262878 C-115.79319627 18.95874429 -112.96719591 18.39191163 -110.14123535 17.8248291 C-96.26757472 15.04381391 -82.38642326 12.301676 -68.50195312 9.57519531 C-62.2986085 8.35681546 -56.09677728 7.13090032 -49.89525032 5.90330696 C-45.08507872 4.95239551 -40.27391643 4.00657556 -35.46245956 3.06219101 C-33.17277575 2.61191 -30.88345557 2.15977572 -28.59451675 1.70572281 C-25.41706507 1.07595574 -22.23828992 0.45335084 -19.05908203 -0.16748047 C-17.65662987 -0.44788933 -17.65662987 -0.44788933 -16.22584534 -0.73396301 C-4.50416194 -3.00277463 -4.50416194 -3.00277463 0 0 Z " fill="#FEC923" transform="translate(299,3)"/>
</svg>
