<?xml version="1.0" encoding="UTF-8"?>
<svg version="1.1" xmlns="http://www.w3.org/2000/svg" width="512" height="512">
<path d="M0 0 C-5.48289498 50.59131188 -5.48289498 50.59131188 -19.23095703 65.05712891 C-22.47658176 68.62167233 -25.19000227 72.59009781 -28 76.5 C-29.17382858 78.09388782 -30.34960076 79.68634615 -31.52734375 81.27734375 C-37.07670356 88.80917092 -42.53531667 96.40665123 -48 104 C-55.20063208 114.00550398 -62.44250786 123.97688478 -69.76708984 133.89208984 C-75.90919634 142.21502749 -81.95790683 150.60432215 -88 159 C-95.20063208 169.00550398 -102.44250786 178.97688478 -109.76708984 188.89208984 C-115.90919634 197.21502749 -121.95790683 205.60432215 -128 214 C-135.20063208 224.00550398 -142.44250786 233.97688478 -149.76708984 243.89208984 C-155.90919634 252.21502749 -161.95790683 260.60432215 -168 269 C-193.9450735 305.05149287 -193.9450735 305.05149287 -196.45720196 307.31020164 C-203.25823823 314.28281721 -201.83628762 324.03056871 -201.77294922 333.08398438 C-201.78112505 335.03589091 -201.79193036 336.98778793 -201.80516052 338.93966675 C-201.83355761 344.22434608 -201.82525723 349.50840125 -201.81029272 354.7931118 C-201.80090485 360.32116552 -201.82537067 365.84906773 -201.84622192 371.3770752 C-201.88055089 381.83874336 -201.88450125 392.3001929 -201.87749684 402.76190615 C-201.87100292 414.67486971 -201.8984368 426.58767989 -201.92869925 438.50059795 C-201.9901774 463.00046183 -202.00463964 487.50005327 -202 512 C-220.81 512 -239.62 512 -259 512 C-258.95697754 506.1014917 -258.91395508 500.2029834 -258.86962891 494.12573242 C-258.73745857 474.59600156 -258.68205313 455.0666033 -258.66578102 435.53644848 C-258.65405849 423.69980588 -258.61646431 411.86433047 -258.51660156 400.02807617 C-258.42956291 389.70384383 -258.39245463 379.38080406 -258.41372812 369.05620652 C-258.42327719 363.59568835 -258.40889753 358.13773801 -258.33458328 352.6776638 C-256.76924206 324.58768516 -256.76924206 324.58768516 -268.48526955 300.28638744 C-269.68542587 299.10863241 -270.90654332 297.95180188 -272.14907455 296.81884193 C-275.58805501 293.43947197 -278.22652653 289.42658196 -281 285.5 C-282.16221192 283.91565126 -283.32720187 282.33333313 -284.49609375 280.75390625 C-285.07343262 279.97031738 -285.65077148 279.18672852 -286.24560547 278.37939453 C-288.007296 275.99010481 -289.77098098 273.60229927 -291.53515625 271.21484375 C-297.77471072 262.76659743 -303.9706422 254.28993416 -310.10791016 245.76708984 C-315.75718083 237.93122514 -321.49312892 230.16007146 -327.23388672 222.39111328 C-330.74312623 217.64000853 -334.24461276 212.88318709 -337.74755859 208.12744141 C-340.67420749 204.15468511 -343.60270774 200.18332154 -346.53515625 196.21484375 C-352.81493357 187.7118829 -359.04981905 179.18016447 -365.21777344 170.59570312 C-369.52404872 164.61845489 -373.93017603 158.7202723 -378.39501953 152.8605957 C-382 148.10478983 -382 148.10478983 -382 147 C-374.07209752 146.74410125 -366.14594378 146.54918558 -358.214921 146.43006611 C-354.53119226 146.37286438 -350.85030551 146.29542959 -347.16821289 146.17016602 C-343.60825611 146.04982809 -340.05101436 145.98471752 -336.48917961 145.95635033 C-334.48272292 145.92639802 -332.47734699 145.84064279 -330.47254944 145.7537384 C-325.04476408 145.75010339 -321.46368608 145.7548764 -317.22523499 149.36042786 C-314.92536176 152.14378815 -312.94081924 154.95852775 -311 158 C-309.86077188 159.54038187 -308.71303723 161.0745745 -307.55078125 162.59765625 C-306.46902699 164.08424686 -305.38964056 165.57256305 -304.3125 167.0625 C-299.64526595 173.46022432 -294.89002193 179.77096996 -290 186 C-284.66677816 192.80002495 -279.49770617 199.70275413 -274.39501953 206.67700195 C-269.29353709 213.63634406 -264.07526296 220.50227573 -258.83398438 227.35668945 C-254.2473567 233.35626195 -249.69677492 239.38091096 -245.18212891 245.43481445 C-242.83071074 248.58212858 -240.45838486 251.70916693 -238.0390625 254.8046875 C-237.33402588 255.70864258 -237.33402588 255.70864258 -236.61474609 256.63085938 C-235.72875633 257.76315113 -234.8386811 258.89226235 -233.94384766 260.01757812 C-231 263.78004235 -231 263.78004235 -231 266 C-230.34 266 -229.68 266 -229 266 C-228.72559082 265.41855225 -228.45118164 264.83710449 -228.16845703 264.23803711 C-227.02708488 262.05187779 -225.7694546 260.17254979 -224.3046875 258.19140625 C-223.76199219 257.45535156 -223.21929687 256.71929687 -222.66015625 255.9609375 C-222.07105469 255.16945312 -221.48195313 254.37796875 -220.875 253.5625 C-220.25753906 252.72847656 -219.64007813 251.89445313 -219.00390625 251.03515625 C-213.72136103 243.92118754 -208.34941831 236.87657862 -202.96435547 229.84008789 C-198.58134751 224.10395425 -194.26562959 218.32385044 -190 212.5 C-185.07434972 205.77502542 -180.06633768 199.11961007 -175 192.5 C-167.5446706 182.75457661 -160.24870594 172.89966126 -153 163 C-145.09019325 152.19746393 -137.09892917 141.46878051 -128.96142578 130.83642578 C-124.57954805 125.10139884 -120.26470535 119.32258859 -116 113.5 C-111.07434972 106.77502542 -106.06633768 100.11961007 -101 93.5 C-93.5446706 83.75457661 -86.24870594 73.89966126 -79 64 C-77.85960197 62.44254212 -76.71897652 60.88525073 -75.578125 59.328125 C-75.0102124 58.55283447 -74.4422998 57.77754395 -73.85717773 56.97875977 C-72.70296092 55.41035888 -71.54361104 53.84572253 -70.37915039 52.28491211 C-67.23851009 48.075247 -64.18711377 43.82959767 -61.23046875 39.48828125 C-53.08278875 27.77708113 -45.94116272 20.94519187 -32.87255859 15.30615234 C-29.47804485 13.762667 -26.18622129 12.04935192 -22.89453125 10.30078125 C-21.97778877 9.81494316 -21.97778877 9.81494316 -21.04252625 9.31929016 C-19.8073617 8.66393345 -18.57245216 8.00809589 -17.33779907 7.35177612 C-14.40750936 5.79434959 -11.47377651 4.24523204 -8.53125 2.7109375 C-7.03948242 1.92662354 -7.03948242 1.92662354 -5.51757812 1.12646484 C-3 0 -3 0 0 0 Z " fill="#3DB4D6" transform="translate(486,0)"/>
</svg>
